<mxfile host="Electron" modified="2024-05-02T04:11:39.656Z" agent="Mozilla/5.0 (X11; Linux x86_64) AppleWebKit/537.36 (KHTML, like Gecko) draw.io/21.6.5 Chrome/114.0.5735.243 Electron/25.3.1 Safari/537.36" etag="cQrIKjD6rpBTSB75Ejuw" version="21.6.5" type="device">
  <diagram name="Page-1" id="P9CiYvj9hmXSTqhzRz0L">
    <mxGraphModel dx="779" dy="482" grid="1" gridSize="10" guides="1" tooltips="1" connect="1" arrows="1" fold="1" page="1" pageScale="1" pageWidth="1060" pageHeight="2000" math="0" shadow="0">
      <root>
        <mxCell id="0" />
        <mxCell id="1" parent="0" />
        <mxCell id="Ovqw94P8crnnViNfrfdU-2" value="" style="shape=image;aspect=fixed;image=data:image/png,iVBORw0KGgoAAAANSUhEUgAAAlgAAAILCAYAAAFDe9ITAADtNUlEQVR42ux9B5xcVfV/ZrYkhBJCC016kSqb3Z2Zne29JCEd0ggJKIqiP0RFBUVQ8aeIYkfxr4CdIiAoRQXhhzRBlCKggFTpAqElW+blf7+z527u3rw38/q8N3PO53M+szvzyn33nXvu6WfKFIZ4QV3d7G8K3ChwTKBBf6s4Ont2PT4XCExU4gRt9IgXVcIkPeHDREkEFWaYmhxiOU3SG0FOlIIdTE3OcKy9vaMqbpM0XIKJUnERU5MzfCzSE9XQ0LgxQpMF7GeqcoBLlx6d4Imyj7moTdT3IzxZG5mqnOFIJCYqlUpXx2CygqMu0vKl/vXlIlR1VTlMlnxmp0tq0MnNQOJxmCwruUshDIm/djJZhpO3E5OJyqtCNsc+5guzxluI8WSNFqGoCcxkmpJ2Juq1YjdtaWmrLgfKKrSC9In1JALEnbJs8llM5sGOeZXZhWI4WcM03vVOzquvb9ioT9SYG7MunZuL0YT9jyfDolfZRXxuKEDGpZiQQvf9gttrep6sbLa5prExZfbbZ0tMQfubfJdxugT1JexpGdH539K33QgsN1DXvSZj9Sb9w0DmYVCXqYMg2SUSEj2NZWJJNjVlk56WoA872oaGhsYaZYC1PvAV385Xn83tc4pJniRXTkmnM9Umg8kRWg4MZmRlEIaYrB1MjvsqjmlubpnkdTnqqGUJpyxgs21cgHiYGhrDi/pYfZisTk8WCWLohsUgPuDULOJAbHnGqbqmyI94KSrVw/s0YHIuNoYOga0tLa3Vfhr8zlJkLVDZtuLzfjf2Izv8x831enp6k6BG8FFxjRm21JgQLKU51zYhGxPm9Fr19RNepmUCT9iMSZcShLxVrapMLifLahf9g8fJ3zvSrrBSU5bXsYQxUcYmM05ropSTBWuBW34X9CQ96MPDFdsJX/bqGfd1d/MzCMTJ2zSxWD5rsSPu7XHy34ys39DmeaPaeXvI61lM5GseJisZlcnKOfQIvVRIOlfPtdAg6p1MlNQ0ou6VFtJ5/S7ic08SDg07yqoD0zVe0iMCdyYTTDzCKD0qx+8UmSwv195QViFH2jUSJt/dWHbBudDSvT7Q4OBQ0mSyDivLKGYxyE86XTZmFNre3pHw4lCZEjcQg24ReAVkHLsMXvz9lhPfJAmgzyPrAhuJwGlxnKj8bghZCVYAfJfJNFVZPXRjY3qabqKm/08sRj30IuTLuDaukyXxgzY3AcOB+XjEYrc8N/LLkKykhmoQtNjtjADc8SpPe4ZcXkYUJ2k/dQKU5WM1WSN+TJgqlZsozp9WTcjSTh85NUfwjxptsMCnNSr4tcJnnOLnJJ+yWtrihVWbaxOzr+ro6KwKa3J+Vtxe3lBTxDU1Sp6gWvy/du3xCYXSDI3qdMcIohL3xkQpFGwUcoEVwaN8M7W4xM9aDVY85JbaA/YoD/dNxdKACd3Q2JhKKu62EfrtG/gkL9M7BQJWPHu1bRvLfAgYMfutS7VjKce1Unrvrur5y5evTIyHBGSrlO/vosmcb2Ht+LqHJb4ZrlixKjEloB1qUxCF9XUXKLzr24qjYlS+NGUS69T86VQqXUtLeD8zqR6T5OdEycgbXxRgE3xAvW5zc0uygGkFS+hhgWsEPkdLbFidLMX4dz7OKRavENAzXez3ZBnWPrwGK+HzZYE/V+7/AlGWjNAbUX77lJlIUkwXLBRk60nH9LIUW1vbkm5MN4JJT1V+/5s0xcjvBCVVqbGd4vNVp8lM4h61HibLPMy7v38w4TVc2oFTQqeyfbWJzYsTCCYhXpTwamFwEYe2zleLZxCGQTm52WxzwkTucsQCTMZwpVe2opOtox0vaCuq33Yrcc5vfLuuOPAjQRnWAgjKHXY5jhG/qHWKLxcJnsKMoMZhFjTnmAL80C+FeLBVVPIHfbm2OKFKV2Yj5Dob9Xkc19OyBN4UF2uqnQjkPacwMDD4Bel0Rgid9bNIrhu24GE5yg0aq9iJMgk1il/ZgSCBbPO5UkrvcfQh+o1LeKIcLk01NiJ24IfhzQVeEKtJamlpLXW+YY6XXYhKduBAztIoJY8bTFFxFy/EoM7gySqdBbQ8Gb4YzIyoF79AxGE56HnxXo5tbe1JPdQnjozdyc4Ijzc989t+8J8mC3t6TVzq0Nh9XicTlSpww2yMKWtjd3dvYvK469/jabkWM6GYHN8aR8patWp1wrMbzGnJAPHdwjhOlvj/Uk+bgTjoBqdxmOLv7phOljeLrJsbC0rbJW6T5XQXReSzH0y6NU4MXjx0wjNVehxEVcSqsrkJCrY3WR0dnXuXagBBVo30GBsfCGWZxZsbJTIn6/h7bcJyHp7V8MVioJ+PHJmoLrtUKp30LPmLL5b6MaDxvEJbMeh+8DM713ifctz/uaUsE7Gh3nFVNmWy3jKjMlUa7u8fSJqIKud6VYYRd4pPpK2YJBGMygg/VBtBNm1oZmkxICyx5apJhrzMPzUheydBsbYGDhXFxrU+Z8ZTtRdpWKhuKJZWj4KRKMfnu3WUPueY1ddz4NbfsthkCX5T5eB6m7EJZWzzS2b4Q0ZEJtME6jJQBspDBHGh7Po2t84TdbIi5dmRn7NnN/habMyLT4D+Hp4SNfBSJEecVxPEZAk8Oep+Q8PFuYXs+Od6GYt4ebWRdq767KA1fLhe6b3THR1dVV4mK53O1FjIcq+4to379AKDoqycm3KZ5G+0Ku87l1QnQ/P/Vdu47oinjIkSLEXD6QTPmTMvoVxra6trQ60aGBhKOFzSyShNlmGhv31H4I4CzykiS92piyE2+Jm85zwxgTtaWTsiRVV+GBH164gHn+XTtaMZduTXA9F3x/t07VPLLkbL5Bp/9+G60U80cBHrvhll6XzGTUuGKXGB3t7+JD3kmQLvU1JO7FLWxAT29w8kiiVSis/b1BpdsQO5FFQqKWRJpXPeo9dCLjBRH5cmItoJx2KXdWHmT1R+O8qnqmyWyzQukzSiFroJuuyJ9BSLz6S2LKtiE09KId6vWcV0+lF6yiRAxXSyaGwfjcIkPWW1XRfa7cC3Ghoap7mVycT5O4GK4dqie22tM3wTad4ItRg16s3YcEGNWS018QDv0u33WqNcy6psAi8XeICuDlmNQVz3QBuuNHdRzM3NrVV+xScU0BVHaMfaXj4owizp7+MEnqTWexcPPF2ZlB8JrNbMxf+x6s9jp9yea6HWT09wOp2ZWsgSobn9jY6OzjyDVgoHjdHEIt23nSboPtn7a2hoDo77qzgvYVFlssqvZzFrBJkOKA5qrdUA1OKGJu4qdQn2kx0LZZ02kJxWVah9s98RPPpkrQ4qfNrKti7fGNXQksx+qjJRY8rDy6CO9WKStyeTj9n9dwpipUx6IFgfgwqdPvbYtYVUle+qlNXV1ZOg5XcGiReyQhvKQyWVotOG3ZSTQPiWxwv+ya6HWGf4avFp1aQslXF1qbr1LXrolml9XTdxVX6YbuRyJdFEjaM6RbVCeDHwqTqnr0ZDBztF0q2Ub6UX0rEP0Od1diqzBWFv8/WCYZudffYpGmFO1kyXk/VqVDK9/JysQjN/k0d9cszHyfqMh3Gc5tdkWaVqvD3FB/BJaHzMh3E841dlth8ptvSc30FgHusfH+rnWGSV8Ej6F906N6iseXxLqDAwMDC4ZpXHk04+GnBO1gawWoH7pFLpap75MgNpY41CwQQi5msjFenKYA/ES5sR1QzRiqnyWC4gVJUZPivpoXOzyKtbFbTF7UOuRSPGBGVKZJFre10BgveHYs6ZPMcLMfgEbW3tVRESwEuNNzJF+MOhNjKaape/ZepwR1CXM4dijdJvomKCcobXMdUUJqhqJhLXW+MLTEEmkM22MFF5x5uYkjbnVsNMGN45FxJK4kwENwm8DH+n0xnPpegRp8xE4Z/j20mErxkgXzhMl0lgzSFs9l9mtI8tLphFU+hNP8ht4uTBPuTw+mNMDP6hXZ+jWNDT7fQcwfWQree3Py7Q+H1x3B5MDL7jsI15NxxqnR/1c/ub7oOfa/siDziPCcF3HCsy526bu+4aJXcKqP3hAveYz4QQHmH50DEYmudekbJ+iwFta3Kf2UwI/ndWMJnnwPq3bdYApUROXwS0bcUunGBlrLlz5yEXv63O557mhYIUGxoaEzoxfb0EL/e5MFZTZWqFjTKz/H1hc8rW1rZx4kql0iXRyih7JSkGUuVQ8/xPBXI4g0q42H3uHxFh/a5k3TWpV0QpXpRa8eNpO+pzpW+ZtACPtGF32sYnQd0p/tEvW5VX7KUJqC+wUr8v8P+xHDbZEl7gnQ2XIkjSskWJC+u6H/hoETnrUIEfY6IyJy4zj0VjY3pjyEoR7nG/HSu7EbaQ2dLSlqDMZBX/7sDdY2iNzFR57OSGhlS1MtlnhcyhMZ6XBO6jjAEc+ho0KVPGknNazMKCK62h7z8fFoE7tWP9WOAnBTbbaaYhHvSAuvHW53eQU9koNlFQUdesOU6WEP6L+ltTUzOKHfYWOB9l7ZaIsbmOriCVfCSgVYwdoCZAdxptiZP7qeG7hQsXJWwuHnUx5mwylfw54t3NnBIVEAM6XcsDHFN+Uzvq3UHfnR9W6wkf+1C+hTKpPo/tFKtWsvT7iG4Y1boQYs4/XGmx7V/V/jeUOC39xa0PeDzXee1CG/D4xrR6vtPp+78p3R4RiftVgedx+OimiVunrcQNTjz2Po3hADfEFdLYdFPDOvr+IC8FFysC0ulxmUkWmfbSRNLDC3Qqd/2mRBlMBlOMs8nbs1T9z8S9bo5yyzELbjqVqaZ4nJBh12MfwP3P9iJjtbd3VAU8vjOLdCTi9HuXW8/iIO4Pk4WPpoaFQYyxq6snaTeTiSvVbCKsZ0q15RQxCuP7Pdra2tXWEV8Q59TaMCa/3+c5+ocD4+lWTFWbJu6/vgaW2dA+i9ijvqudI+99gPyupaU1adMj0N3Z2ZXwMN4/ONiid2Rq2nwCX3EwgS/YvOY8h2UjCzac8booCN9wMCe2r4s2TUxF1hP5fIkziauLvOAtfNQmS9bRpFKJa0UJIhoMm5wj4wd38XPcjY2pJFONd5tN6LWmVq5cpQrvPy4w3gGujxUf4vplFF6SctybBY45Mcx4LAb/iOyPVENiLCBudpDFfdXICyOdztRaHDcWUAjOKD33Qq8aMUNhArtdTPB2ZIeaCo9+X19/UmhFeVkDTbYFwuh5g9NUcv1eTU1Zs7pdX7WwhzniOuKcabh+d3dPAtktnZ3dSRTyFb/VKs/6dSdaJIM3wrKdASy+u9oFh7AT3vsY/e4mHt+s2fHWBY4/n9+6vwR0iBKFemAxwkL1FBNOsmcUa1iJ7TRh8rxWrq3L6Hfp0jmRqcMmNDQ0Yst5v0VShxoZuZtTc0HUkjGwbfb29k0yEaAZY4EaZMN0jBl3vZepxwRsyCaYvM+SvJN0oymJ86pKaGdSn+NmIftNK7C4CqWw19Iz5Iq4j75cMcTT1NQsEyZ+6jQTCKtYGgDtRkFAcKcVXq3cb1+B2ymNzS8SeE6AhISx7iKzafAptr8aJdHkIoWjftPGnCA9ror8hk6IWV73LdjZoiDfrFS5Cf4mVo1UpscI38F3ynFBmAHUjOmXndQRoFCTMY1bGcrK/x966Tupzw6tkp7lNsFFqo455tiE8qLOEN8llWs+rYzvSvk3ZCi5tSnbMXARbfePOs3lBGEGwHnluMaUbGv1XRomWT0nuyGokQgKuxs7O7uSDid1TG4vdN7b9HmMmrShbD9TpS0KkwsTxpw5+fSwUfIh7ovfkQupxzxJW5Niy8L/a0GYGjEvoMLAqAn2cQedxHPKvaJUQGXULlHlokhUJi/yUAerUXKsnEZocBpfqb34SROmmyq0OZLnHKscM1f5X/7eiqiN5ubWJBHxrbIdvA3unv992bLliQg39jSKEdXJEa1bvrHAmN90srLE5+8lq0frXHCPpUuPymdhIwFT5XZIrdIVCxMN87vivGlqDl8qlamiCI3l4rcqGVKD2C3FZGCHQIa1Z+2OcKmBG9waHkuhQb3HJpdtc3Lt/v6BpHLu3SRXHDi+zeW3JiTVzqDfsxgHbGhSDhOfuwncX3zXCHmJjpOlrFOKOLFBKhHi7xOcWOZl6YECz3xBhHYXvKvWYi+pu9Sta2X6lxPwUIqpE9xME8aBz5sstM9qHMusqsup0nFO2t/BLsb1qgN5GLa/26NQoKQotLa2VYdcHAT36fRBi53hosQ0tMxbTApsnEH/98prykp1UrkB4WjCu5SphkiA/5aLOXzD4xyEyaVGvQx0XoAD8z2WiLYoX8JmFLlsg2KLgtX/KOJyCdIQd1HOeSBwDcs/w7NbfMiXAQ4ODiX8HqSZn8zHCd3XZ247pqj4Bv3tp70ukEWmEPuyyAYWqkUnorIii4y3NkZF1J4Nej5g4CXFxIgaYe3rcUDvLZH3INLVmKUlPeQ58UJcI74OpqWltcplP8EXI+DkTkTQ/nN/id11j7oc9wG+D0asrmoH7PSpiMZ35Ups77k0YvPxkSLyovQNPhSkXKxyAekM3Ung4eL/bch5WzMl4oC68mLMl4RFZHGpo9DYmKoaGpqbJ55strmGU8r8WbmD4MZHHFEHYniNwo3hRE6JRQMj534oTkvRqPuKz3eLzzokNwj8ksD7xhsi5Dl6PjVf1lZlYGBgCGybdM1lGhpSzKEYpkyRrWgprOVZUkyGyUThpDT1GLl5DAqLuVTg3rj28uUrmdgqATo7u6qEUIowl2clMQSoAY6Rx+JLPPNlCtBiqRlCySIAwM3EOLZEETd+IzEHqnl+dkCp757avDDEFGCHKWFXMztb5dv8lmKm2UU1IcQiO2Ylv7Xoy1LbxrXBJb+9iEKUM4wctJ/r5DcZHS4100HmS+S3R67RHg0u9VaZdlCFjHhMJpNlR3BY0N7ekaCk0HLhUsy9ogB+hdjGTPa6ht98QEBdICq26Tg0x8bG6Me7xU2Weh93sp/cfZbBO1F9rsIJqmidVQbnRLWYCal4wRAGB4DS1ExAIaZiVRC32sDEwy1PgjApMNrDFFOMPU51CGuAzhDpWkw5BUApicjozAzxb6aewtzqJ0wo3A3Mb6KqYQLxhE8yFZkT1vtZtopHmajYQH//QII1QV9krdOYmjbnWMytfHBUp9MZjuFSiOpCJowKFuLFdoU8vQ8LvAfBdn5cc86cuYkCXa8YneNRXt+JLFMVFlFtpzXtMfwqzBqTdK1YoFom3OW7GFbeba7UMhB++7OHazNR+Ni9VTZEcMilrCJz1wfFqZI2i8QabvLjxHknMTGULl6LOpIVYhoj7e0dySA41RqHGtuIw+s/wMTgr9khlUrXFpv31avXJGx2IAHDOCAIwhpxqfra6okjJoGJwX/cv8g7ddrW5j++EhXK7ri0Lxl2ohzFMUk2jAaC77MhTzmy6qMZvJ/c6gmPDzi9iPxWxUQQCF5Y4J3u6XIHOiAsTdBWo/CBgUHLQmMtLfnS2GxxD7Expfjtcbfv0rfSlz69dEuDndA2qqJUFK2M8Faz+W5qylZ7LJ7yRT+I6ptBq79tbe1VZVAlJop4k8U7fc0js8C5G1wTVVeX/xkyZvdJpzMsYwWDl1owCt9a4bmq6aW5bnxr/XH00csn7dHd3T1RLucYZzxHe59fDCq/UeA2donquiB7Pg8NzZkgrhUrVnEcVjC4CvO7cuUxiRB6RoMBHVGMqC4Jo6G4LN4PoKbcjP7iQWTOCasyD6z9m7t9Ojq6qkiwC61b/YIFCxPsgA4Mdy7B3I4iEtgsuiBMe5KxZs1aSVh3MiH4i52dXckSEBbo5+AJoipRkJ2hEPXZbppzV2hMu9O5Dbk5QsPGUgfZYZJm0/07HZx3RwUSluGQuEaiQljDJZqw3zqcgPMrPAPnOZsRCcPZbHOptsJGL55uv/AlhbDGigz4txW+DUrsKfa+wDXQYL0UwrsuuP+9FJMk2WYm01RdgGsaNJHLWSgfDzu2sxBLtBUaOmHNLAUnAMEIxQH9A6uol7KpvECEN8pENcnafVCB379E73X/khHVeOhKa6JEctZECG0B63u3wIt5C9z8JRZw3h9Ov/+05PmM4oePluDl5ZT732y2VQqcyqlhpvi81VanzOnbJa8ZIX4sRcCdoRUE2czfJXAPHzUWIwKanV9jGLYgrNESyFefs+OAzpWCsIS8pYfp5ITsVe0wgycnx08C/5ukTdYr90FY7oshPqeh94U+9ti1ED0+Ujfel1ofu13iM9LpDMo+dZjkFFaHFPJtP3SGBPkxi4czlAnIuZiMgjFa+svu6+u3E/mAsb6MiVSiJGsgN3pI0PSTQ52/Zs1xBceSzTZXqeMX53zVZsTHUj3KF+fJZNWgnw0KF4jbdiwWtRb5kMDvCVwmXsC7ip3T3NwC7jKXBMbXaGLsdInfxcSWhXO+DY2xkHzltXlkXV19bYBKy/DChYtcx4eLRZWkRNJC2vBd+oJEKp2iERo2CN8Ng8Cxb+Odh148RIbFiO1suhjEHwsM+GTiHlNVwlKIbUMhldqnuP6ngrA1hZDQkqPf31S+e42+u81qMYrPb6kL2iJ7aqo4dldx3KECswL7YZwVWBepKjWIbReD3drE4f1XuX2p3/f29iUL+DE/G0BS7vooV9UzW2DSwKzZtO4z0Qjz7ena2jqSAwND5V07S8o3sh+feOgq1VVh5eoJqneyeEm+VGsWzzMjrKIsci6EjJZQfvtld3fPhGw6ySlcQcXWPgDCEQKgbiQ1LCbTCGFMXrTFOwMe2+MFbFZy3AuFnFXjR2mpciK0m4iQRun/HS1DMoIbw+F+ZiEFzLXGtNAnLsldhGP8gf7WHc9dQd+/vb0z4SKBFi/7gKDHBnFB46h5Dj44OIQxj0CsWLr0qARTkTlh/Rq2HzP/oZAptgppDBd6dsAGBHriCb5rbW1P1HEnMEcveDjsrYbu+72oFpQ1MZw+yZTi7OVuo2tBJXx5RTnW3LlHJko1tvnzF/L258UoKGSIqSHd202RkidKsRUS/pwppgggM9rKVylkrL1CIKoPu/WxFfMJegW42izCkjHePqYe65d6ZpGX99WI27F+EsL4inWdnc6UNHnCigbzBW3HEvd4I+pdIew4lqU3g4mqbvY1QVRjdjiGFr/i+Bsb01UBjXFe1MwfUSes0+1OGOppBXD/PQpwAvn9S8r/TxerS4FKhSEJ7uXTT6fEmtjLPt93eSGiApE0N7fA4n2i8j18cbsWkMeMILZtu3PEW+HkSVsXpk9OXAdBfq8Xk+mamrJVdPwhcqvLZJrkdzsV27oRkevTeG0bbcW4d2KKcqeR/c3tPdraOhIUuFYsLHnEZHwyFzKpfGenTuubYXIrN310yp2wXg5KOO3s7AJBHW6znIBhMb48FwNx6t/bDAF+2eW8OMkun8GU5E6ddkRcS5YclXCyzdL9nyxEWB5fvny+xTbn4yW7cwJuNXfuPHbvWEzkK04s38SBsuKFI3ZrZ0ro+EddXf1GJUHAkd8PaWcuCOtml1k8Y+T/+6rAvRCDJp5pF9pix/xeaBULPT19yRImlhqF5DdJWEJ4T3jktoHUwWDqKc61fl+il2QUk3XGa6cusiKsUhUuYbuVA+IqSb0Gq/EIjrCD5Azd3b2mWpeQcbYuRZkCgY8xxdgE6j8dNmH9uwCh948fUw+uVe2DoddPrGKKcca13gqZA6wpMJb/VeSZ2gLHhVoOKp3OVDOlOISurp5EyCu/pwDByNSrMSvhHaq+jbAWP7fA3zCVeLfIh8G5zi4whg02BfyRUsuDDDYBlWNCKsCbs2H9RumeqT4YeF2PUeC9TBX+cq49TGpJBc4F0DRdO+47FsftFRAxjdHCepCpIECYPbthKr1IaI5rBV5Alu+nxwPtUhtd1r4ybHKiMQvCciMnjcA2RrFWEPwfosDHr0ATlddGryN+8wEDvYST5P8o/oXiZW1t7UkyVSRaW9uq3Mo8FhqhSlg5cb+aAtulXaJaj/Nk35tUKoNkiarm5lZU5Kulax4h8JlUKs2EFcKWqL6cUWm4NPPjie/3c7H1fFyej1ZpFpyoVx6TyUwuweS2hpZ8BlkOSQ0jsvJfMgRDWHbDXUZdcJOf0LkPFutz7UaxANd1spUKLsYcKyBiWnz00cuKtfHYTPZB8wEPGqWdUotuFYirnSyAdLoJCsQVAj/B1OCz9X3ZshUJpxyrubklGdHWwKebPOvZBaIXqqmvs8E2LA9AJSUNswQBp6EjJerHWAyXmRDWEVYLBrH34nO+xi2/snz5Sg7sc0BQZniLHe3LoUxWSmwwkbG2LcSJjzpqWcJiK96eKcd6y3uuSG7f/jYI5XaLaz9UwtZ5Zpk7Gx0qJnj+1a2tbZa+SE75UgDJp5gwMgwadlRz8ffXCxz3iNW9hKyVoIZPJW+uBDALFqROHAW3eTvKBnG/mgokqCbYfeaRUG1Hq3ofzuvvH0i6zK55Uk44tiCHrYJ9ccmgFDm1WjkX2h/+V8c4MDCYLMJVDWX8hk1t9sXI1WX33w2T75UzQyt2bxd3s3CtWE3qvsrxPWr9dVLpl1Id9B0CDmtBg9FBpNvTFnaGwnVGTGxYxZ7tJpd2uRxd/6/EGeOdd0hbjx9hJO91QFgTQq1yDpoDzFaK6v+Jvv8YfUJo7i3QP0j/LHSc5IyvNDSkwJl3V4jJGFdQ8i4p2Wj9Ew7m4f6enl4/zSd3ZrMt4RIZuSneUieNuqAaFPT2mMAXqP/wxrCiDhxe+9fkV7xCOddQfIjDqImuXPuvyt8flPeF7xH9hFQZpr9/MElF2jYzyorjt29ubk2gCxeNYytZVITcNjOVtnCGAw74GcVXGkQ4jqGk1Bkm7zL/nau6FNSObDhiqvkGQQBummdfSuaLe8a3m4mVvs+mCauvoYabG7VtaZrG8dBT5ixpEgEuX74CCsH54vjd1VKRRLQfMSFmQ/ohlT44dgkrp10/Cu/lZvle7GxfL0SwTS7GczBFAjjpwwc/36vyZaDxEP09rBT4SGhb2I/pfovp/z+rv1N/arOG3ur/WOkjgrNMVZJO/yNwQLZ9U+5nd2t/hY5/JELvx7BdlyKqrWo1y/uoncklzgNt7Otyu6bzP0/HnGCizsssmysR2aC3YRGf/6Pc41S4jJSt4wHlGvmmAnS+VBz2k1snKTJ/tvv8aGIl7nNIFN8NUuPsGCkj3WDb4QIwqFOr/P/7dO41JtvKWx0dnWqzo5s1DUwS1qNqhALZ4jYqlWiqZScx2obPF8SF0uKXK9dLuUmdj2rD9YLGWRt2lFKz3FdNFoJdWXBYJnVCC5LfLV16dEK5fr3WSvca7WUaZqEtMEQq3xmaW+oJQVTTZaERONHp2IcdcIMtXJoYQvUmyMDEzaCrqzsZYuqSUxwswGXt1tS6AMcrxPQ1UlawJf3KhAvCkNluYqDM6TW0VMISeAm4lNi6knLc9P2/BN7hYMw451QXtq5SoHWPRnInDEeMS220IROe7nQ71baXMUX2OlXZGtHE+3yTc+81ux699LcoYvUhNYKBfvu0M7mlYWNPT2/C5Hk/5DEOLBCOVfAlBWQfcV09xU4ja3Gsk0A+g8oDfVZTBEaog9b91MZ3X/oNHCsrrv9uaegUAv0W4n+YK+ogK2WzzeBMswT+P2yBsGqLv68y47R+liSKktiCsaBOa6GXNDcig73FoYV/V4ec8BGqg1Ur27FpGmGOtskaSXjSoEla3jB9/4zyncRqaqWL+7yHqhTe49D2VLT975FHzsdCuDYinOu+goNtaWmtLvFKwIs9zKlRVxBIwk1jJWXlH2pGWDqXMYkX+7EZYUnFwiVnyblwnZVS9jKcDDRXggEOe3FBpVKZaS7ueR62vd7eftnY/P9MOpeOagbUZ5TzB1ShH0S0aNFi6SFodDmXrzh9dqS+aeMKEx92QliHhbgCfKuJ7oI7gEOdRdbwaUJ+miqfGwbJ9vbOzRqgU9y5bl+SzQXWCVlNatc/dcFJch6ff/eQNfu/uPEZzgyBuHD9N4SQnvSJsGZ5GMs7ytb3kkI0T6iWefG5k8xgFpyiWtUulUgJT2PwCg7i3Lyk/G/pNfQlSKK6LIBQHS9jOl65zhkwmCrEBkH+TkQ6kCB+cWNjulpP4PAgRhg+z8PqgIjLv7KUAaVPnRhQDNhBHibU0DCf8YxqNwrRzjWRvwyPtiUjqDqifgv2Zom2HgbnexWVTwccYDjmM2c19O7xPnMDI+D52BhJwvJxcHgZfwghDHpWXXT9aiUpouaXV8X3bCAfuACI6u0I5CdGOmojKOjvH0hElbA2eDUpQH0POeY+F3WiEnhKiPNxjtctHPH6fg7Ij5Ca0FPBkYQR1Rgmufqz2ebQ5qWvD1zLc4TE+X7LLa5tHiXOFHoposS1oRTzIYTvKo87zxZ+v6C1fpZeDAu6u3sSEQxgHCv1vLhZbJhHhGuXWrOITDeqJUuWRoW4jCjNS2QWAxkfc6FaZ/0d/xtRD1wMG+wsuNA6i8nME5OJG4163zwKOQ5d5qJE1akRnZNd6J3mlPgzmeXUiZS3UgwK0ZX7TYkZhBg/DvFhdRzmRGipEwkRiM2bwuAcKIZpfkBZxQZd9x6e6QoFhOxQ8uh1stGl+LyVkjQGKbz4QAQECi63Jz6RiEop981U4+FXOPeII+o2Uv/pQ3lmGRgYGBgYGBgqHlB0R6/sTSmUu1Ba5QrqG/VbqhCwHq5OWRkK4qWK0lohzWRWvytV11HN8ybKET4RuSho9oayF/pYu7t7uQI5A0O5A+pGDwwMyf5oqDE4R+DvxhlPvbS4jUQ02Eia3zfIOFYqZID4lT3kM6JiBr9pBoYYgiz0TlV7/0LSzLDPCQGR8eyDmZERcp2aqdPW1sESGQND1ED6+eBkp4U7FoPQ7KCZ2Agx6t8JBj5dqL7c85GBoZRA7szhgNIdy4mB5SO9SP399jiTTzEDY2AIgUl9Q+klsZGZlDsJjJhXvl8cKtMyZTEw+MekLmTmFKj6mO/Bx5TGwODcHiVLJp3Dql5JVEdIrk8yJTIwWICslIn6IEryEDOpCNi9UMQR72bVqmNYbWSoXGhpaa0iJvVJJVWUmVR0mdeYbPiMVrFMwQyVoO7J+KiLmUnFnnmhldt2a9cez5IXQ1lJUrKvzsNskypLlIVx2lpa2ljyYogvCCL+KzOpipK8DOpgjPSnWl4BDJGGVCqN9pepCHdtZgw3VOKbvCoYIgfz5h2Jdg+ncawUo0UzzH/wKmGIitp3CjMpRpsVJ+7nFcMQOixevBQS1bsD6gvKWN6Ma73AL/EqYghTqlrPIQmMXttIeG7TzsBQhFE1y14uvOgYfcI/pNMZbv3B4DuzeoClKsagPIq8whj8ZFa8uBgDZVwUCjNTSFscOc/gmVmxVMUYil1LfHZnsy0cMc/AzIoxNkxrHtu1GJwyqxFmVowlVA/rZUUPBoZizOrZCm7iwBgBRDuz3t6+pPhkmxaDOdTXN9QIYrmEvYGMEUDQ4AivSgZT6OrqSQoCOYSj1xkjhGge+2VeneFLLtXpdKa2oSFVK/Tz2tbWaNYNEsTxX1YFGaOEtIHuPGfOXFYNQ2AAfyYDohRxc9ITQi8CDOKjOFZ8V1VChgpV8Hj2CjJGtEDg/5VqbTQ1ZZO0Pg9AF3GBbyrrd12sGVRjYyopHmYWPYyTha8eO7tEzPUtlq4Yo+o1xLrq6OhKhLgePmVRoNBsjGdDc4qjRHWfD7l2E40uGxoaZ4TAZKuUonuMjFFEhNicG+w6SGMdPKOUfDacMFTxmc5ksvEJwxDMJSh1ClLPyoAZ7cVEFLw4GCMpZSHMweeNWva//D8y7nvNicwxs9pclz8mm21OBsCwNrI6yBgDnCUw4ZHWIUntp6xZw0cp8CtifVZHXQ38T0iL3VD0+Ro/xt7a2pZIpdLTQmK4jIxeQxxa3dL6mjXHJcS62SXIfgNYR/X1DdN7e/sTUWVWQyVUpX4mxFpPhr7Ozm7EXh3B9ivGmNixXFUqra9vBJ0/GEJANK7/SmSlqxIudIOK+9/X3z/ompsL8RXi8QAvBsaYNLO42imNCw2iVpx3XYjZG2Cs10RRulpBk1hqpuW6I0l7ewcY1sISPwcjo12GdavLOMMwTR5yXT4fNYYVGQ8KXggzLEZmWJOYFNTAGUIdLKV9FlLd2cyszLn6sMBvO3mO5uaWKrLDscGdMQ4M61oHa/SGiJRIkp7IMZL0jiSGGqxhfu3a4+Fl2C0OuVdinAf29PQmbOxCYFgtvBgYY5Ki8yMbjOqMiGsMaijFdTLUIgip6pmYlF0xlKTR2qVLj04UypMSxxzIXkLGmHgJP1Fgff6YtIy4NeHI0Vo9EFknfjCqn8c1OljGbbW3dyaXLFma2DysoQsNUbekOCxGxqjHYXWpAaCZTBM23LeJUcXZrKEKGe9KpdLVbhjVXeWS1iAN84J57SuYU7WJ65cDRxnjQMd7t7V1yJSaM32OVI/KM0KSfMQOg6rGglYMfOX4wvF5vRA9q7Vnf549hYxRRirpsrVCsyeUM3Mu6Pmnh89VQD0oPNsbJs//y4Aj9g2W4CpCAgrs+nrys/juYxXgFb3SLFp9u0oiKp1zIy+xbrx4X1AS1rq68UKFzLDKm1mBfm4MiIHh2n/TGNYPKmFuTcIVjjukAkurnIKgUcVTuGcAtdxRsuZ2ZlQVxbRyxFwOU5KM/Xj/MLh/QGNYD1aAhHWNmYQ1q8IWFYjqX6lUOhlA+kKOdr6DeAFXvLT1K4GH+8i49lu8eJOnu9xtrvDcd3R0VhWqZ1VJBDViYsf6fd2maotuouyfous8RMTEklWFMy4wK8Wj55v9KqLZJn5LqgchvcjK6L4ghkFnnuxYArft6elLKHas49xG1mNyFSJiAzvjJO+e+GxQpCKnwdemTSjKmFmBDy1oaEgli4U1vFZXWVU3T2ttbcuHN7S0tCaWL1+ZcFjID3P1DtXDTnLwKWOR2KIj0aiBDPNONjXYr+bJrlLd3T0Jt5trTObpWLGW7EW8V1DlTex0dyP52WX1VJz/rwqcN0b3ixGSUiadzkCaP8uJBF9f37htV1dPQilx/HyZhoTM0WMkmWltko5eNil09kMbHlOc+4zC5N6s43rwjDbVQ4EzBwaG4Jk+zyadrjfRhsbKiFEZVFp52ooVqxJu8wfvrfPerisWBlGt3VfD7NkNRXcCKk0DovtonfeOI26DUA1tIWxUk7i1/40ytq1N6plnNQ9agnup5gP3e0tZZy8WOR72nPOUckhQB99dZoLDo54Tnnt6etEQdXsyKJejxyvP1Z1WZySiH+jp6Uv6nIOYUwz4I0TIz1OFDHgdL4PdAkG+cpyrV69JCAJGOlXVggWLEhbVKBItLa1V5FjYhQJYQ4nMDjGq/L/i2faU9c1gjzSbi/nzF2KxV4k5qVa9T5B4xPdrBF4i8B8055j7F8AwlPg8vzJBUJ1gFu6N92bjmh2yioEYa7X4/99l8O5kbu9ueniR507OtBNcqxiVRzapTfUTbefxO9yvygvG7vCGwFcEPkf4lPI3vn9LDh7nkmio7oYjJOnl/N4RrRgWEUTOYqJfpm47kK7qvFaRoPlIEzGG0jm3qakZNpSD6P5xk6LzMU409kPS6UwojTvluxH3rBf4mMfOMxAALlDo7ZNW9EZrrjaTaUpofRTiyrBkKZn2xsZ08PQumEqNuGGtmLSp2WxzDXYrgdi1kijV4vX6nZ3dia6u7qS4B65bAwlCYyYHCPwgcoyg29MLzSkLz3BiT8DuJYihSmn7hR3sBrN4LDp+FnlqwLCWYAwu1Ja/k2expK29UZqE5vRll/FnYTMqqN6v0NhL2mFY0F0Nzd1tLuyXeJb/qCWOLJjQJLNFR0cXTBanuoxpGpYSPAQDQXuqYIF3/w6VqcnJ+8pjoUWMnzMuUEihQgoWFir3xHeK1vApqRlMqVQYGBhMqI0bxaT0C7yDGNlwESY2RmrAVEUdhOH9XIsX/7bGPM+0Ebum3vuEiPeXfD6CzgPp6n5BqrgRnbu1Tgzhej6r+O7LJufj/8e0454q8I4krW8AcxGfvxAM41BFMoP5wJP6BU8lou3F+kq2tbUne3v7IVxUQdLNZluq2ts78yg2fggxYLBVq1atrlwG5YCA1BSGtcTARkzsRuu082pIgjMjiPf39fWr172miGQimdXdMZu7KKgcE0ZxWmzJmMzd7+yo2brDR9DnDIuA0VtM2uoZ2hxJO9tiXvllBuKFbyVe7OuSqIgA0tIWgoUBQ6BmeDfMssYVEbpQPtmhMWX4naX0KtJ7ORq7dJzmbeHCvBF9tp1odsGkaos4e6ACnyUkmSrqnzmf5iVHn8fxiq4sKUy27b7b5Lf/al6hnIN4NRkkeHAZMPhSSFW5OM8ZbLAIj7GRbrOLRnPfUyV20JeY/x3RYh7FNQV+i1ctg9gVF4MgDl65cjxojeKrDtdimB5VCAtS2CFFbGNXl8v8UD2vXEgMa30ZzduPCtg4MZ8Xase3kFQl7XY/rGgDNYN9yGbzTKtDYVo/0Yjr8kL2K3He7o2N6bIhtjA6B+t2nXjPVyM2tb0K1FibZGagZij7Kh7vK6ziyRgYiu2UENUvUf6fUSgWBqJ8W1t7oszmYFXAEf1YqB8tN9qxEVg8hOO6u3sTFLLzN15xDH4v3lcKqUhWAakxf+Y3AlYLTR0bZWIDNArZ7HhFMQS5cO8ptnDLiWEh7gmezhADS+vKiV4QoFlEwipLRs0QDWblJCN/u3J4ZsF8pwZQ677sFy/VrNrKZo00GV7THVZ6FkP5MqnVLgIpYetpLyOVJvSk5rjPGyK9UXTPgRqtxrxdi2u0t3ew0Z2hKIP6tg/VDCbVy4opo0pGqfRPTGnpNg+qtBq0/ASvTIYJyGSaEJR3rN9ldGbPbtg2howqoTHtUpeP+Xnc5nBwcE5CqNE7+hgKIrMm7uTVyiB3w2t97s0IIns6Ls+fTmfAtPf0IFnKqgA5q+h1t3NJCx9F66pjRE9/8ttRUY7eZwYXgAJiQrLYIwDj8pjslhJx6dJt7zxDYSgfpIX6PZNjLqPf1ihSh9v71Pf09EbWtoNGJqjb7nOdMVla50RerQxSFaqh+lYbfSa0yMXZoJYXMZDLtPQjNwxkBsqK0PUSVN5HP/59QjqopnlGLbWtZRKvm/sS/pauF6nkaDEnMwJwVEDyv4JXKcMkQFE2QRjLA2BaJRflZdUDMZavey17TQtyTktLW9JEFdrJ5Ng0EoJN5rrVw+I2lOqVP6BrlrqoXxAhICOSOTMwbAYtLa1QkZb7XIZWXudAoX6Gos6gWQExkFkoR+1Du3Rp+H3chv1mkv1J3HuWVc15Ov4ZF9KWVclplN7em+xyoamO4t47B+B4ALO6klclQ0FA/SFqehmE5+vFgI29pyvGXr87w5yEAodOGZb4nFaIUbe1dSCEYlEQHXSIEX4h4Dn/r8/zLKs1/IZXI4MtyGabsYjaAmJaUho43IWNBCWc0f3mayG1rDKofvfWra1tCZsL2LIUcCGYM2duoi64aqeT5ojm/5voJOQmuhzSckBjlbXUrgxLGmcoI4B6EULBujHaUcc0yWBE+T4XlwBOtwzL7PyQY75yyrsY0eZcf0dBMVXc85di3mp49TG4ZVo1FdpaHZ9beGVYKEttVzqj87co46avxfDzaOvFq47BD8NqpTGrT8yZMy/hhWHRnO2vNi61eY0lPgfyRr6FPbypLS2tSV5pDH5KW8MVsPO7rquO5qZmIRDptPM+ggVq5pfd5sAriyFIpvVZpfZ2uS6k85zOCyLQxXnvNbnWmQjMdTHPn6gAKettXlEMgUJXVzcW5nSbtY7iioNO54U8q1eZpCfdrDardcD8jgi4LHMppSp4Agd4NTGELW2dqcU9lcuiWulyPt7U5gFer6dcXqurDBkW5uM1XjkMpWZcvzIpxBZnvNPlPOT8qm0F936IpZmDdmDkOzTzSmGIDKCTLxJ7BWE+5jVfL26GYKQCUQkYKw/YIKpw2r1eKpWunj27IY5S60RsHT03uoPP5dXBEHWJK9nS0ppfoIJwDxb/f1Xg7WhK2tiYkl19VTvPMBmYR+n/MSW/rlRS232dnV223OziWZCD+ajFOPEs9zicvz+UIFjW0Op3yUDSUUL5fvLvDpsS3iUd96DAn6q2PzF3VbwSGGINQnJAEGpy1arVCZRlgfcMkpnNHL13CeyFB4+Y3XAIqsz3mpqy1TaZlqVENC5x1u+Etus2nvPjxCgCDdsgp8lvBB5F0mFBx4BgTlXpdKZWfOIdViMHkt5hLY17R6ZwhnKRuDbK3VmRrv4t8EaBPxZ4Ki2cdoGHIdgSFUBtXPeRAO08Utr4e19ff6LIOF4pIhHht3VFmDmSzu8NWqKUlTvBgCwY7w7iuD3EJ5hYg8A+gWspCv1S2PcEvoTrkOovpeIH7Gw8DAxxYViB2JHACAJUn9Rk7WVCwphqcv83bJaHyatYJudPhZ3H55I+loncSB5ftGiJKQNGx26lVLRT/FlHRyergQwVybCwuK8udl0hJUCdPCsEG5d+/XU+XGud5kUL+hkgBT1m04HihnmeKxi6LJR4DT67u3s51YYhWiCYxnRBoLeoddxRJ94jw8J1Dih270ymCWpUpoLyHL0gbH7fsbnB3ORC1f6BdLSIv39IRnowvdeFZFfNK4WhVNLSAsV2MUkyoK7PO+lNMN0sMBjoi41l/vyFCSENbFnmUfd+4XqBJ9TV1RdkHqhUSk1QnQat3pnNNlfT+z7J5PwRYprb8ypi8B26unpkmeH/IYYwXCSi3TBrxUSdVBy3tnIy1gpJFPYD+2V9eyuYO/fIhNh09nQotWLuX8H5zc0tSFF6TwFayVcUpU0v31Wpt7ePi/UxOANZUUAQ0UIlbMCJbQU76vtNJLLTXNivHncydqR7lKjIX2yQanPttnr1GjuhFTUOpdbNIvrFd8/bDM8Yra/P3+trOM9uGAlDBYISQ3OFEp3u2gPlo8H9j/YZbb4J6tUCjyc3/GfKMLfRLV6PUtdINBb4rEPbpJv39i8Y3hsb870u93Po+TSUxOh8DX2MQ6iZHCpRqaAYRSGyP+2Th6oYs3J8bZeliW8hqeC/yr1lgORoBTCxYZKiJlRq8d1xtBGtE/OwFboiFZvHgYFBqHQpF5uXLHf99/7+AWlO+I6HAF9jUzuz/Du8Gz0e5ThTqXRtW1s7eyHLBZqbxxt8ol+deNG/hsqmNPD0VdUQn/vpffoQXOixdVVO2kWKMKpLlGfC5y34XoxrImYK8UFoeqF4IMcCjiYPvMCgkjaDv883seslqeLDqMJMLDeCpqZ8eZxDPW5i8pxPSqeJ0u3az2DenBIfB3wSpgf5LILBVS9evJTtYhH33n2QetyNaB2NA43xoXs16I08fZRoJGFeol4fBCm+31VJEp5kR9EW9yP03VqFicEZ8LEiMVdh5TIaFqiPB8znXm2e569YsQrPMqgFuq5BHBSax2oOkxNNaGddgZgzNyEp9+O6mUwT0ng+HJJka/Wu3kEzVoGNbKhONyFwcTpikcSOMs2OyG0FaGuELH2x8KfBVS+uW0cvG9LRWxHe8eGuvtRkEYwERKhgQD9X7Cw70v1upM/PmlVLaG/vrIIHS+lOPEDH76ONezb9/pY4vlr5/n8txvKEwN9RxPtGi2BQzMWtSII28bbi81/aGP5Av13T3d2Tl1yXLj0aDPoAxf4oz222sBeCcfyTvv8U9ZtEZ+876Lugyl2Dqd6kbmAu7GFhBgFLGrmVNrCDBG4pvpuKpHbMP9KYoIIK2tmSymAjbONKcvYUolPEo+0cKlNCrA+94M8RsY+4MCTmNDRKXInA95QP8XL3Fi82STsrFsd5AdmNMP+XwCYjwxmwIOgdHWKiglxLv52vLFIsqvejnVQqlTfan0ML/DMW0us2yt+vykhuelZsWisl4xRjmaZIuF8Qf29B5w2Kv/cnNWkaGk1QPt4MqG9YEOo9kSZDVUyl8fpJk1COCSQmtpdJKy48W1YxBzxH43kniL6C1MexFp2Cenr6YHw/IIAW9nHEUZqHtkAY1eDgnISya42y16mo1LNRkxix2B4PaAe/Qdm5EU5xFL2rn9DnVFqg15mpp8Qotm1tbU9S2ZtRqUrB66hIBrWS+eiOBcFMwJS7VE+YVEmpVddS+vtqZZMDw7zQhCG+ooyvR9w3ofz2jGRC6hjIRphTN0ZxHpjvQVIlRANYKY1ScjLm6jb63/fNclPTjUwVmK2ggS04qNeShv0raIhYEHHBM2JchK5UquFVJovxBzaTgx3H/MB1ji7EmpqU9wyKdyg3nPu0NJNRGTZBY5v0jpuaxt3o4lpJLXgS530bElURO92VMhgS6UXavaV96Yj29g5cH2reDPU+lC2wh2ZfUp0Kw9IDqN1/VG4aSKZWDO1/Ua51Qn//IMaVCiLZWjDI7bX4uxFeP0W9qlcODAy593ai8Ji4yCk82a5eACSIU0zsc1U+qwXyvSDx+RdYrJpdx1AWzhAZpeswBjCzBQsWJXTpyESCec3E4H2jYkw+uViLMGpKMWayu95DqiFobZnGGCdVqhB/X6R1z8Ecf5d+e4G+O43+71i4cDHSlSQTHKOSNUJ9zkujnxZ4eV1dvd/v4hncv69vABLrlsq75vVjryHHja6YlXjRCaQuRMxIGCt3O6kA21nYgoaCspvAVkQleUdVQ6diu8F9j9jk+t7M1oXFfQGNc8BCjL9ReZanzWq4a8xmvcnzGsQ4t4GTxYRhTVTxRNAkOV/MSt4cQPc4l54F59wtjfRUZ389hX18OoiCh5LBY93QPXM+S9MVsW7o/XfDMeSUYYGAVlRS112fJB3M10XjxuIOO6kfF/jc29DYZHhu2FLep6enN6mVYr5bG8duym8bpXHdQjrAM/4c2QHic2sL28wkhlVA7VpPjAr0dqhZ3h6FaxykeFxzdNxqi/CRvKQDQ7fy2z4CdwpAujVUVVy53x0BV4ItZ3PKr9zYrpLk2tzAk2irE8pG1aZjF5DPhqz9gAyyUup5UWEaMsB1r3Q6k1RsW2OKm386HC3kit5o4ck9ESqPwI8USOxVJawXLQJ18xHhJoxNx+elCiqOmaVUPJgHTQBlW5BWpVz3D/BSKhKX30GbuObrNuMCnysjT3gYDOu3boIvYVPIsv5dVHz9slgUvqRF0ObgtxphKAZoGV7xNbHIa5T73qdIViCYjygMZJo2xjmUGrIt/f8nxUC+GSrnXW51nFAH1eP+LvBDis2vWq3/Tv0Oc4p0Nk+tugBVGNccHBzChrsmgLLR0j75RSfvFhIu6r/T+Dcy8yroNTwN4SBuF9G9ZdATzm+p5VWZ8hFAlP7fAwgdkdfaQ2FE+yJJWgaaquEM4nOGMp5h5blH6f+X8RvKC5O08xeqcY74ri+QEX6lGtwp/l9M3jzUrP8K1a+/SoYWaDFVw9ocrIazAoxpvI7VhNQPJtsOW5Ue/S/+PzsgzzauuaKpqdl1CWSKV9uTQ4Q2p1MZR+h1Ea2vYAOiodQA/0zwGQP5onG3B7DYDGXByfy72xHyUDfetVq2rvqZ9u7HTBj2yybVDMzG+gWNERkmu+ntk6tmmNqYPo+4Kv1a9E5maapk0OE389Sofx/ChsCE+2j8lczA5HMfi25EfjCt2yosvMEgRv2qjFgPK6MA6Q+kdgW5SUiP4h6KpzBn8t7fMWFY/9aOedrCPnVikTgtSEonq8bxzY3z+f9XyvSWVCoD58EuxLSuGhjIx1L9NCSamI92bAHnwb6Xnq2i4h7pvb9XbNj+zC95cXbSjKLlyuU3OrVR+A1insG0HgqDacmIdCxG5I1p8VMnm0XXy1xRpNGQbWzMhAj31HICx0wYJnosJjU7nqEHxsJOWDfeM/BS6RhASpLSZSdomlje2JgOpR4VqkXQM56hhJwYZWyzWhfYZGI3VNzP5TKREy3FBW4rSyKXGqiKwn8CnmdDkY7krg5Juk6TelQP464qkzFR+TZrTUYOnA1mlQy0UJpLNEZxgWyZpTSEMOrC6YYtr3uSnbr6QUB//6BkXpdaVK2IpYlFtosLUwJIwOhK+V25mBvR7yd7QiTrBpFnySjBvCxQ3jeM6xe0t3eoHrk/IckYnkRUQdAY4Df056Dic8Z4DmMKqT/5DsoUwT5belvF302wf6EGvnKvx0JWk+R9TkdieMTo4bEAQjXCimT/ZZQm8ukYGOfVHfmLYhHForhZiTy16nu8ijx855uI9Kcq4/wVugVptqtnlf9RzeF05f9nNUaEeK3PET5UYlr5YibTVB1hmkjEJE5SJsTvKDaqRNQmcU0MJvG9CxYsjF0Vxoir4PmaR4Iot6Oo+X+bjPVLQlqBHXR3eBoj7sQ5y6qFfURp44Sol12K5MQhXSOiraYm8uPiDCVSDysN39vT05uIKX18KoomGl/iqwJWX3IREUWH9SqWZcC0buWgw2CcD2LDPaxMaOSlKNGIWZ/OKE3WT0qcND2prnlnZ3fZdRQhFWA9My3/4oCibK9yCuRxPSIiFU6NyDIs6kzTWcp0HtlJF+kcU8oUUJNdLLJtuIqlLw6YdVPKGKBhlNheCG3r6chOEMrtlsiOlZMF3SoJ6sYbP2xgacsVvbSUO31Q0Pf+JZS2YJZpXrv2+ESUF9EfQ5KyZNzPv6ZUKLS3d6o197kKQHF6gbRxdSXSCrIUQo5l2yxfNHLQ0tKKLP5pIagrmJA3pjDkATWsxLxv6XPDznKTqJ5kSplUoyvo2lZXxmpilAJqfhdPW8dkZw5wybe1dSS5ltmkZ/8rU4Yp4/qzj5K5oRaOHBqam0CLtlhNCCXH7qHlqhluvX6w1zCZOSbKv1Uis6LN8hNC4q9iKii4RqslndCcjTpYp3m1j9YmGuguLpuJQcswmphjKXt/FAFl1BsvX7tbdnOhGkuYgOtloblstrmaycsdDAwMQuI6WDGClqvHD3/fiWeOU6R6VAANgIeGJvqQ1lMgKsr3XEv2r19TdY5VgkntrKztyplrZP5T1cgq9KhbvHhJgkkn8DlHm/F1irvbiCmTGqPd/dfjz1XPmxoDQ7lCX1+/rJDQAoM0qQQbtIRkQ7EdjpHKIJtAbKAA1hGb1RQMrdzyerrGsFL1dMyklEpO/k59BS9CTiLG3traluQ3ycDAYAsWLlyUmD9/QQKqRG9vf6KrqzvR0dGVENJyAh5jIP5Hfa+enr4EOi7PnTsvgUanTmuPzZkzj6VvBgYGBgYGBgYGBgYGBgYGBobNIJttLondCDYwnn0GBgZT0KuwwkBeX98wE3Xb6+pmdwg8ReCF1DfxeVnnSDapOOKIukmotG+y/A1eSfJMvk4dqNFs4Sy01ELCLsotNzamJnUB1htgMDAwVIbkNLHwm5tbUBboIFTbROK6DOAlhjNGoQdq2IFf6VaGSdjEiBLmkGdoFEj8AFpfoWGF2p1ahmYwMDCUGajR3xQ8+hk0i1US1TdEsJqpoXR1zrexp56GG6nlfbOiRnJ0OwNDnGFgYCiRTmdkgGijwIs1BpWLcSoOpLAcSWB3QpWUz43sCX77DAwxgd7ecVVJSCJboM+f0hB1pEzrZuXVVWJeyHk7FM8vmHMNUwMDQ3QlKsmoYJO6kaSp4Qop7jcheZExH3WfjsZ8NDVlmXExMEQF5s8f9/IJRnU4DNRKqZBKroU1pkiV78f8RK2TMwNDxQE6viAEQCzKBzVGxZVHlaJyAt8WuARztmbNcRznxcAQMqPKSwtQ/YhRjTGjKtp7EH//Z/bshh3b2trZq8jAEBaIhfdJTYJgRmWzEzgx+JswjxzLxcAQEKC6Y2NjajoV4ONOOd5sXDK+awFTFgNDMFLVj1iaCqS08jNMXQwMPoFQYWZoTIoZVjBS1yqmNgYGb1LV95hJhcq0nmeqY2BwJ1WxnaoEaiJ5E4eYChkYCsCiRUtkm6XTWaoquaSFeLYHmSoZGCygoaFxW6WcCzOsCLQSoxCIdrwfIXlxwClDZUNf34CspnAyLY4cM6pISlt/wntC/0ymWoZKNqojreY1kqxYqoou4xqhZPJBVX1nYCh7aGrKVhOzOqe+vnGjzUakjNGQtiAB39XR0ZVMp5s4vYehfCGdzkijepbsVCxVxZNxjZK0dSq9V2ZcDOUFsrSJIPJbyG3O4QrlUcIGTTTqmMIZys1W9TEyqo/wgi+vKhD0Xq+hjYmlLYbYSlVVxKz+yUGgFVMw8Ajx3qcy9TPETaKqRU8/pV0WM6oKKBZI7/t7vAIYYmVcF0T7fcVWxYu5sqQt4BO8EhjiIl3dzyog19uiz6my1RoDQxSZ1WsmRMtYocyLDPL7qN22GRiiwqzYVsW4GdMi00Bda2sbR8czlBYGBgZlMCirgIzFsJFXDEPJYGhormRWBictMxZDkrQO5pXDUGqbFauCjLYQNi2BO/LKYSgFs7pXaQXPC5LRNtPi1cMQNrM6X+A7zKwYXXbrGeVVxBAWsxpUUjEYGV3lIKJrN68mhsCgsTGVEDiVYmsYGT2XYBa4Yvbseo7RYghMutrA4QuMfkbFr1y5iuOzGAJhVl+h8jDMrBj9tGet49XF4CsIsX06LzDGAPFMWeSRgcEP6Yo9goyBNm/lVcbgF7M6mpOZGUPwGt7X1JRlAzyDZ4bFzIoxrNSdw1tb25hpMbhiVFUoxMeLiTFEKetZXnkMLF0xxknKmtfQ0FjNq4/BNmSzzdWCcH7Gi4gx7LrwAl/gFcjgRrriAFHGUhX862Ypi8EWCIKpEQTzRVYHGUuESNl5kFcigxPp6g1mVoylLEEjNs7dstkW9hgyWENjYxqewXYSyxkZS4Wos3YRr0iGIgwrlaDCfFw+hrGktqyGhkaOfmcoDlQ+htVBxigkRi9k4zuDVSgDjO0fY2M7Y0RwVODtvDIZChnbH2R1kDEq2NiYYrWQwRpgN2DpijFiVUl7s9mWKl6dIcHs2Q3JTKapRuwWteKzluKcIuWuFeOq5qoMjBFEFIy8irlIONJKktSsgwX+SODdAm8VeI7Ag/BbKpWJjEFRjOlqIhBeKIyRkbKioha2tLRWmayZ8nAIkMTShsJ3SkxTjlAmeULc/auQwGamUulkBBjWiBwfI2PEUnX2XLhwcUlqv/f09EnB4wyBz2FMSiOWb3d2dsVfXRUP8ktNvTL04vtqtUXx+aLAmd3dPaEzrsWLlybEC9ia7FeMjFFDND5ZKtZGqAxr/vyFiEmcKfDfJuEW6tp9n5C+quPMrK5WJBXDhmFR/bw17PE2NWUhDR7F9ivGCIc3XBuyOWcrcc+XNCZlFSu2Mc7M6kyaYK81gQ4JedwXUDoELxDGio56F/e7w8XGfVJDQyo+TTTa2tqTMKT7kINnKLvKuSG+pIc5/ooxqgwLNiOB0wJeA4tp/Totq4R182gcpSs/VSqDjOD/5PgrRsa85rH3wMBQIgBhA7aqp71oGLHLexSDXlW3qSuy34Fzo0GNu6urGwb3LZhhMcbA8N4laDXh87qtr69vdCNVmWlFJyHeMk4R4rHr29bX1w9Vto7LyTDGIID0Sz4zq9McOMfsqIV3xkW6WkjipBEk0wrCG4FMePIQcvwVY9SrkP7ZxzV7jc9rNj7lcEIKB5BM6xU/x97YmELBvk+RyM0LgzHKeYUbfFqv95FTy2fzTV5L6RNqa3WUmdWuJJ0YIb6468BofHyG/8chDYyVULlBXOe2ALUJrKFLoi5dXVSicIDFfhU2E9f6vdfYMUbGoNGLyiWknlrK4Q08/CLSDEvJKQq1EqOfRnhxvQc4BosxDo0pGhpStc7NHmmELeyoOJaCtDXjsyeSSdEUvl+K3n2yrfc9ra1tVT4wrOeYYTHGIA4LDGtLlzT+eEimG2gqd0RVHXx/KRc6SXc7eE0KFdd4m72EjHFgWOJzWw+akBHOumzEWGcdeeSCRNQY1lMlDLaUQaX3+PAco8ywGKOP9dikZzqh7fb2TsQZHqGk3ISxLhEzdkPkJKwoBFvSznFwZ2dX0gPD2sgMizEmdqztndA2yr6I864vkSZ0WGtrezQqCzc2praIQCqLtGW97kMcGTMsxrJjWGGrg6pjjO5bExV18MoI5d6B2XyrzmWdeGZYjOXKsOrGS5KXys4sC/xNiwLDilSyME1Myk1AKTMsxhgxrO3s0LRQxZDBsSICGpD8+9yGhsba0BlVR0cnYjq+G9WaQRjjsceuTThkWBuYYTHGxEs4s/ga7UqKY7ePUMlvQ1lffxZj26YU0lUUc60wKW+4eJ7XmGExxoFhFVvs2WxzUnGIGXXRK5mUo7Fd1NLShtJOyaCZ1fMRrhtlUD7TXxw+0384cJQxDgxLLHDLwNG2to6kZuIwIrpG8+VyyCh/WCCMityjn4pJVvs7Ai9zwLAeYobFGIfUHMG0pprbrNpUySpXF/1ilGrXnXP8lqqQOHlozEpxrBf4fZvPdzsnPzPGgWF1dXVvpkJlMk1JBJSSxBIHZrWZtOVbOk86nUFb+e0irBMXK3fxDRsM67d13PGZMabVGsRvrYqBPa5lvuH4esRrJHstjHwxEjOtkjF/YKNEDtfDYoy0NGLGsMT3Z4ZQhSFMpuWuzHJjY2qqOHknpaV8nCcD4/9lAYb1v8ywGKPOsPRaU+K7u8rQuw1N5yynzAqS1eExl6zMouFvNtH/4Uz4SB2XSGaMPv2+pDGsclmbZvFm+6DXqV0j+wkxtVnZeen/NGlCsYzjsBhjoCXcEYN4SF+8h/jbLrP6QxnpxEUnQkhYSGHo4gXBGANb7EUVwLDUeMpeUybV09OHdJtpdZMboZZlU1GKFt5KyblCvaB3l6DUMyOjU4/3JyuEYU0IGMVKUOTqyrv7sXy2JR0dnXn9eGhoDtIDtg4474o7SleIYTzAdw1hYqiCGJYULmaYqYFBN0KNGl6QSqWrNUdD0ARsMOOqCEYV1HuGSnjYsmUrEpXCsMCTWlpaDzRjWPdUkNEZxPSIkKpqTKqnGgER8S95UVcE/jVIiVrQ6Ls6O7srimGdddZZg1GoSFhqhvWiCdN+xsd8QpVZDfBCrii8mNLCfBUAsEZhuqgklRAMa2Bg8GBmWIKgTBjWjT7lE07U/kGxNbZhVSSeJPBpP5mWRZR7Wa/T8bZmjduaMKzGimJYehPWoaG58JJ+z4do9wlmFcWqrIzhJSmLzwMEPuaT1G7aUbnSIvvVB3+hkgInqUwHmmgkKBarhqLdx3xkVq9UgNeVsUDZFKKDR32Q3EGXD2trdr8KCOM43Yph/aKugupBkYG9t79/IEm92xA82uOhbZmh7Kzb10WzhDRjuEwLTOpZWl+v0v9uNy/k1/1IW7PzKyCkYVZTUzZhxrDmVGDy75nZbHM1hTSgBvYuXmx5dO5sgXtFoV8jYySYFhjNl3yoAooYrOO1Nfu5Ssqb1MvI7FRh9hZMyB/T6UytD7FYcjf9DBHSm6wKMqrGcrG+dvW4kUH7ychgZ6Kzq8uc0bcXrPceoQ4bYTGsh00kzRGHtjw5uf+g87/MhnZGk83saaKPT3lQj/ZYtGhJXj1qbm6Bk+jFSnGKWdmxLq+rnDLBYEovmMzBA05teaono8LCQxidMa5eorGnHUrg+cJ9QhuoNmlNV65JzytaWtqspasjj5wPjv3uClJl8IwbTBjWpXX2SyXLeTqBih3+gs5lhsVYUGpwKIUbMFWY0OpYxUpXFSghbDYx6Eorvv+sA5UwJ71AK1asTFSYSs3oTnIYamrKgs6+74BpgTE9VgExWAY964qOjs4qu7Wwjq+bXGKmrGOxNGaNQn5Ddg2jxNyPSKXyTTq+WWHJ44wuQ1+UtWY3zAFS+08rgGFBAHjFTS33SopGPqi5uTVJDAutknayKWViJ/iX5rBgZsVoB/cTa6zaQVgCBIgTlyxZmqD1CfNNfZmux/dks81VjhgWJqcSYrJIklqki5/EsA0b5zajqSXFsPFCZLRbIuYqZa3ZKUWD3zsEXVaRhxAFJ88o53lx0zjVS5BbnPBUwXRqtGcvlmmPOXldLSldF42ehoYJVmxqTFTnQyYxt7S0QVL6nc2NdW/xSVkZHcjKuLcc05hcQV/fADj4IUrJ4HIm/PNhbNcY1iMFPDByLr6VyWRr7EpkYTAlitWRBD7p77rNS96UM5PSnr2+0FyUYk5AW3sqdtOC9AMG19TUnNRodF0ZvEtiVnk+k0qnM1WumZZ4ueDip5ks1HJCEM5VgmimyuceHJyTIIlptFgG+cDAYJ6x+1z4T11EOQ3zi442EozvZQSsCvyGwAUCd7WQlocE3qoxYaOMGJX6950Cj8xkmhImNL0L5d99g+YN8zdKifCq4VfFIJga3t0XbRrPC4U0lMs7/JbAWl/a1IsL/aqMmRZe+o3obq0871RyOReSsF4l0RwMay2pkH4wqTFFEnhN4H8EPi/wcYF31403e81q76emra29qqkpi1zIhIUTBeOsoeN/UCaNcSeqY9DzXCznQzCrpDkt1yfwW1tbR5WJGSAj8GxieI/TvD+H96C8kzGfmJduUriwwDXHzHLqAqiOW6r3d9cUvwFZ4kpDVacqS84mlkI8BzHcJETRGoUQEKLwgSK7+eWS4B0GmlrNVY7E4jvqLNoa1dc31iJRu6WlNenlXYI5C5ym5DvG3VC7TjDk6WJeqr3Mi5jbpGD61bp5QFkDnQJv0xq1uKXVSXWeqLqHUeAZ/6R0t8LmsyrGAoShSLKPTwkCBIFDz+4R+Da9sDE1506qKdC1gRBhFQb3NpXWeJF2rGfp8zkSyddJj6Q8XxPRRwmDkAhwzT9L74vSo7DFKhZLGkA7OjoTHsoqy+cYpfm8QJa4UccSFCxfvlKO/fcxlJ7Vcd6K50il0smg52xgYCjZ2tpWRfP2fUUtdzV3VEmzlq6dKHAdrI3vK+EzNdp7i6tkdV+gLwzdkRXR+esCL0LZDJJGBgUeJl7iTJ8kuh0FNpG6dR55Uh6llyyZxrAPIjrO/7t671WrVqPl1w4WPQo365PmIjNgwisiPm+mBVc7pUSAZNwYNc01lE3j7FLNmdhUamnurveomm2lvIdXLK6DGKxPCAmySjn2Pz69q0JakJ8eVmWDzscrfie0l5VON1UJKQTqSQ1eHDg+JDDsQCtXHpPwaRElSdLBbjJV69KM7/oEngsurUhzwy5UHBz/lIPKFZNsD8RsHKceEJObPyUCgCA9xKIpC8+IAbNaMSUigBg8ohWnIUBQC2co1/kfC0kd361qbNzUko5spoZTZgGUmz7WjbL5S03obbr2mAzkxDGgcRw/fk6KtKBG2RRjM+/0Jqyf0L7Ik36L+H83WTSzIqCrqzuBQE9pRKYXOJsM0lJl3eAgIG+9w5zKH4M5u8wKkAbiGXodrlICbHiKGhxFpqVWc+32a2P0ieFXUw6qU6aFjWs7xewys8CGOyDV0fFjbUn1UnIaIRq9k7Shw8V9p3l5ZnH+luI6qJ+3BxVMqCONqENgl8D+uvFOUfg/I55toq8ggl6nVDqISalauvToBL343ZHyoBhHx4qV7SgQOGtGFEdIb9z8+QvsJjwbah6ZYLqRe2kkubZE0KalSlY9Yr6rojZ3AwOD0iY47IDhwwa8hyKpV5upl/Rdk6DnqmOPXQtb1wE21NAxRZ08VmWufX39yZ6ePtcMH2lBaNiCsYiNLtnZ2QUnQJUYf5VgRlVQXWGLhVCB/2GTxTFTGMxhxYpVCc1V/Zjikjb11oDJwfWvMaycSYzPRkVlTIhztrSwdVlG8uKFR3XuEB4hxjo3oilUq9auPT4Rdfoj6ceuh7O5mFRPz34EvIMUZPrhQmofHX+f+DxMxgoyV4gJDA6Oq26IKhZ4f4Fo7+PEbqAXR3tLE9Hz9ifFa4TdbmcbBCrvtW0ddeiJMkBaEOP8dMSY1nkxkvZn2qz2AYZ1jHbujfrGSkxsX8SPwWZcN14WWaffMbrnTTJ4GAyOOUBMYfHipQmFceW0uCkQzmVqLBYd+5wJw5oo+Ld69ZqEIJL9bdoRToihmn1riVVDOXd3x3DultkoNQTG9HntvJP0mD4K89l6aGgOvNfYTB5WpH9Jn7cJWtwB15g798gEr/gyAaFfS8a1yqpMjEI895mokbdI+xVlzDfaSJI2YmwbLCWzAr4V47l7rQht4LfLJquT9QfoVVLgodOu+7ISevCUDCWyynJgKBNAaIYMftUL+VF6zpUmBHeaPKa1tS1J8WfrC1dPrN89rnOE0JUSB4fGUq1BIKtgIAfZeMbHNIa1kwlTe8tkE4GtaidexRUIYExkJziwu7s3SYQD4+YyE1tEm3bupwvUDfNWMiM683NMiRqTnO41DSkCc/dyISlLpw/x3XSN5rCh/lY7ZiGvWmZaaFF/lmBck2KjdK9NY2N6C53ZFVjMILZlZTI/YcZm5Wufx33OZs9ugMd1SaE8U7MNjSLBVbV4rbhWDa9SBn1RNph8N6kdk8nvr1rsoAZF+G5bJnOzV0iJ0pIp7hP3OWttbUPYy/RicXp6XJkSiGxaVoaBIQ/SIC8BhATxWxXR9XMKRLlbBqTGmGm9E4KUlbfPlNm8GQWYPehkmmbHUpvzXscrk8Epwb1q0u0E7uXtC8TbgEAfKrN56Amhzn+u3Gw0FBs1WoBBH60d/4Z0BKVSmalmhQgZGCwBkpa0ZcnvEBODkq4FFjAI9IflNA+COc+wEdXvR1R7TZkxrPMKOWb0AnYoHEgb4XFRyjdliA/BJSlK/TXt+58U2DlBoKeU21wE3f6tHLyqKiA/UDzXyXVFWsprdIUwmZVNTc3VvPoYXMGSJUclTCSvQlHgw1EqgeIHIEM/DAmrpaWtbBaqUOeqqabbSBEngywMmCDaYq8gg6/q0e5FSolgRz2qXJ532bIVCYrCzoVgw9qjzCSslTYq0v6IVxVDkGri3UUW7wbdmFoGz3xGCL0XDVkuuowkrGOLBN6ahswwMPilGk2zsfCgEn6wzBhWaInQZTRnSG36YDEbFuEpUjVkYPCTCF+xsXAhiXyljJ55+5AYVllJG1ClkUFRhGFRRHs9S1kM/kFbWzu8hd+1WQYXKsDVZcSwvhJyPuHlZTR3F9tUpUFTL/BKY/DBFpHFTvlNh8bj58vh2VHlMwzvYLlKWWTvdMLs/80rjsEVIB+MiO4ZpypRuaTmkA2mFF2iz+nq6kmWwfyNufCuYq4PQpFIXoUMdgltP4FPuLTdGNTaaGrc58FmuV+WsizAZbCtpDe03VrMq5GhEKOa6aKTsxXR7RrzubixxFVH7xKSaiylLIxbMPt9/GD4dI0jeXUyTADaKAmieI9ir/G6UEfiHIuFdlKlbvdFCzWbTmdi5+6XDWp9TBgfLifPM4M/i9TPBRrLBgoBzYVn1RBdimI4h5f7GGwr+zPu2tXVw7atSoZjjjkWqSc7F+j27Ar1WvExWmhvR6SRKtXFn5x4HiO10G+mDylrJa/YCge47mFv8pth0bW2iRmzesjlHMiSvqMFYtPclFqWxeweicscoq2cGO+7bHRodsOwjuEVy5AH8uj4SWCQDr4YI2Z1u8sE5zyjIoZ/jYUtSjb7GHF5/RG9dlTE5/Ikmyk5Tvs0Hnj00ctZJWSYqA7pZ4Jv5DvnNDdP9Gr8m4dqDNj5H1fm0bCaA7S28hA1j/vcj+ugE3Kl2QDLrew2gzd7AzLru3wW4w1asJFsRiEkyhpaXC97ZCLXj6tCSyTzGzOr057NNsvff+dBkoPU8hKu09LSGrnaWQsWLII6uHsADAvzfD6vVAZ9Z3ytzt+6TyDae6P2nCiUR8GxXtQ0VMe8wmQOR7Tj3jA55jIPTEte/93I8YwgDV3hd+4l1Gmx8W0/d+48VgcZNkkcVHDNbykrMqI8uhLTovoq2ZRyLg3hYFa3WyzYDVp4x0sFbGajLu9v0Pi/i2s1NWWT0WBW9VsEkHvJHXQYQpWygH84+uhlJd0dUVAOvRLFWF5UmIQbZgEm82KB+VuvMaxnChz7ogemNcEQhfSxY3NzS1UEaOcCl89TTLraQXwmeXUyTAJBFJCyVqA+UblIWdnseEMD2I5o9/eSzDxhRBfXTZos2AT1MFQZ1r+LLHLDQ3dpQ7bFwqZA1ytJTXR0/Akg9xLS1TW8MhmK7ZT/9VHKkovxpZAZlWxu8A1NKjHcp8vkGUOTUJ+rzW1jrQky4qsM658FpD6ksOzvcaEbKjOVNdLFZ3XINPOiB8Zr6RkkqZilKwZLWxYM0osCCPwDfiXorihi3NJO9WONSRk+RJ1fVujeTU352mFP6E1le3r6EgXmG0zr5z7ZDtXzf4Xrr117XCIEZnWy38yKpKureEUy2CXCV1wapQuFOODvvv7+gWRAY94DKpiJdOdH0OLbxe6fTjeBYf1LY1gPCqaUtDH29X6r4YRPCtw7QDo5IojUJErt2XrlymPYM8hQ1JaFXX8gAJuEZFoLfFwwMwT+osCC9atyQkOxRgmCMYFh3acxrPtaW9uKGsTFPXYJIen6Kj/j4sT12gIYswzduJJXIoMbKcsIaOe/0U3EtmAKW4hz5wp8QFFbjYAWu5SuHujvH0zYGJtrhkXz/Y8QEqrlHD0ocKEY83Q3BnYKgA1kjJCuUqlMUmYiMDAUhSOPXIDFVxdg1U1p1IcKdbzAvQTOEriDwJ1QSkR8zhZ4osBfK9KZV09fYOlFXhkWMa2wKkFIu9xGZV5/Q3mA9Zh/gTvR+5gl/t6TOjk/RMfn6oKrUHGFdJowMNgG1B6y2drLK+MaJTXA0OKdRuhzLACjrt1FfYcMjXDLsNra2p0wrBtKVN5GMgt13g1NTRsNuAO2EdeyRAzRUQu3j0BtqBLVo3KWvJ1OZ8CwHtGN7k7c8itWrEpU6HxLvECohLW88hhcAdJZBBE9XHnMKo/PdHfb715DYQ1P6mENQ0NzEw43iX9FpIhg2PNt8Ipj8EvSqsTd/lAnc0SBo/+1GzhaYK73KFF7sZIh2cXWCqZfzauNwQ+GdZ6PcVlx2PHHXMyRTM1Rc/0edzPfFIdUSdLVq7zKGHyFEvXpKxXeL9ThhAumpSc/P+tyg7jap5ZrccHteYUx+M2wDqNiapUgZc1zyWhslZexcZ1GH9tkRVm6wucNdj2xDAxOF9Jfyty+4qm6hEkBv3Uur7N9haiDHMbAECyUuX3FK8PSSySPuLlOR0dnMoBieFGbZ0igh/CKYghaymryu1BbGTEsw69GHGW8MUhDO9e6YgiNaf2/MrVneWVYm+XFub0WtV4rU6xnVZAhdKb1ehmGOvjKsKjE71Y9Pb0JZlgTLec3ukm6ZmDwwqzyC1DpGG1UOsMS5+1oERCZGRwcclyZosxUQpU+6ngFMYQOS5cenUAJ2zJjWq4Y1pw58xA0Os/imh9wE8FdRkZ3NYl6Ka8chpJBV1d3Ej3jlLZZFcmwOju7kHN5rsX1LkynM44SeoV0tXWZBOqqG9lKXjEMJQexuJKKTWtjmUha+zuZg46OziqqzKBfB2EOd6IrspPrCWa1l98NSUskVclNTEA917hiiJxt68tapHdcmdf3XTohDJN6X/9xca3TY8iwVCYl24/diudxUsSQgSE0SKebamjBfUrgU+OG47xqMxqjCHlXAZ8WsWmuYrFiMleGEgA6Ot74NO8oeAN19vEcqVSaU24Yog+pVKZGWXzHoKkAKhdg8VK/ObU074hS0VIytlwJJTRXdiyL1miyrfyudrsXw95VQtVaZUJjWhXSYani4ZnwHsmTiZ6ENwn8NEoq4xmy2eYaXgUMMZW6MrWCsKu1xX2gIO4jBZ5CpWvQm+86gXdRATs0JB3DgkA8kmRy6m4egmpzaUtLa1FVpqenFwb3Y4swmVMF2jK8i+O+FEKlBsmURuQmgnlWYr9ep5Zp9wr8I+ZC4PcEniZwOboINTamp6njFtJV7bHHruXGEQzxBrEg3iXVA3Q77u3tS/T09CXRtFX8X0MSRUHpQzCrrcUx7xH4PoH3KNKZEaSkYfP5qsngbjUWMNg7HUpqQeMoqW6fFdiMhhM2GCneUy0qK6ABbF9ff7K5uaVaGfcWTO0M5WCIv1jgm5TO06YxohrU8Bbf13R2dlWhJ2JnZ3cyk8km1QakCxYsTKABK46nax4a8MKWzOcSgVNd2q8cN1cQx34nhJg2XPs0YjLYMKrWrNnUIbq1tR0ttpIoD43fIB2Ld4HWXlNRMlt9d6TuXwfJbNmyFSxdMZQFw/o4qTgT6gepHPeQbevLJDkNUR2og6it1D4FpBDB5OrfE3BwZd5gLu6x/fz5C00XY1tbO9TBriLMUzKf5eLZawrM09QQ1EDYob5hNYaOjk4EwO6LuRd4MKQvgYsEflTg+dTV558yT1JKa16SvBkYosawlmnRzqpRd1TNMZs9uyFvqyJGdKmNa/8lQJuWHKdRZAxP2wiaxbM+V+Q6gTsZIAnZsDlOvIPxd1Kvt2QbM3mfzLAYyoZh9bhYiDh+fhG7Vg0xw6DtPVio/8U929s7EspzTcP9Haqmx4jjp5rM0fMheAVH7ZR0QdyYw6wFZlgMZcWwMi7SdrAICmb0Q31BQCKpJkYI6hQki12V58oqoQyGXRVTfHYq19hea1wRJKJ881GwSxV5Xz92KLVu5qBwk+zNwBA6HHXUsoTJAjjMTZ6hHgpRwJ4VVsySZDhvwYngkFlNHKtc460Qxz5RKQHVTIswrBUO68nnVWecO3fukbCBvauQnYyBISqS1FaI3fGBYTmKDqdegLkQgyp1dFu5wKgLscoF2QVnLV681NKbd/TRy8BwDnEYBzbBsBCyIv7eie61buXKY9hzyBA5RjVPMgwzRgPVySlDcciwHq2wlliuEKpzKpWuqa9vtGQi2WwzGM7ODu1yEyqhUDcTqDSheW8/xKuEoaQwHlYw+/tE2DnFxvOEBUMzHC6AfztgWPcwwyo+p3Y8hDSftUqNM8dGd8WuqHpI1wlmyYGlDOFAZ2eXrDC6gyC+27TSIQW9UOK7DzpkWLjuTxwwrJtjXoolFIYlGIZtqdVheebNVHg63zCpifUx/N7c3MKqIoP/IHPDBKHtSQGDhcrGwFB7uglD+a5DhoUd+UQ74xMqDOpQ/ZYZVnGmYjfant7Zeidq/OYMK20loY3Q8Xvy6mLwDWSqhiCu/aDm2axvBYbVgTxBjfj/6pBhgfk02hmnUD0QHf4zZli2pNa3HDCsu52o2WQaqJdeYqKZsSIVSH+OY9kwz+AaBANQJaq/ESGOOXD577Fo0eKERvxuAhy3s2dLa4At7WxmSLak1n86YFg/1bpY28HTmpqyVXT+lyjuq2DNMbJ1rSQ1kYv8MThiVlUUvX0VGV1HnVREsDLquqmqIO6/jU2VEJUSVlORQEZrBPO51gHD+qKLWKz7WlpaqwcGBpFfmbLx3qW0NUrBsw24t5pgzcBgxqhkBYQv0o437ILJYAe/y8SbuIU7F3xqSztjRwUHlJ3Rct7YY7iJGYwpgarnOmBY/1NEQjK737oChveiKiuN8y/iczecv3z5SlYVGUyJs1eK6C5rTMlzF6FGkryukJIQ0/NLlzFD0x0+w91UWWCIcuGMCmdW0mB+HCQXkphW2S1ZLI49wSnDIql8hnKNWxzYFuX7kmri9bJ6aVNTM6uKzKTGq1+isJyLFBMzicg3dZBUwhl2n6W9vWOCSTY1ZWUHn+FKZlhUxmeq8h5qHNLHmW7Sc0BPSKkCir+PdlGBQmdcqECbIk2gtlhaEUP5MqoLNDuV1xpLn1YLuCHBVnx3kQcD8al2n0ksTtjd2pRaW9sJTMvOLcSQR8tY6prYbKgJBCSj26VaRu/5XId0Muwm3YnuNVPaoRzGc5kxrlGUHIK6if6OSBtS7Ze8ossQ+voGkgohXqZJVIYfu7kF0bvu/EJjTMMRUIRZwUvYqdV7P5Tu/1fx+7Zo9Cr+vpEWYTmrigcQ8/6wwAWCWUzXUmR+aJNZXe+Swctsh5taWtqkt/BBn2yKausw4AMoKqhuxLI/JkMM4Zhjjk3IEh9UMfIpraW8Xwt3VPaek9DW1g7b1Z4eShgbCtP6AMommz1ja2tbQuy+07Tnwi4/3WIhPqkwtdEwE48DKN08om4I46pxZ5XCyGssVPIlUm22mKMHPM5JXuKWzhxEtvscI6cWgJQS3eu0IaWU52e7V9Rh7drj1eJyS2iBGlq+n98LFMR4g8awoA5+3mOTCHWstxVYYM8pC3eiagD9dis9+7P0fz3Nx/7o7Czw7Tg2e6VFulDgjgIfE/hrej7p4HhNmYOPk4oomTk2ghktLa0TtIIKC1jgFN3ueS6glpPTpUpcd1eHeYmuq2coG+QrUIGFhDlNbt5q4UWGCIB4WQdRK6b1Fos+yIDEBzUmgp31aj9tM8QYdxTqrR6Ueo1ia4HU0SgINUHpOpNSUiD1ib9nLly4WGXso5qtxihSUias8jWFVOWDtDlo1aSpnBpioNiR8tJlOt2kz+HHfaQX6S3cX0jASS+OF680o9gu0TfxY6jVxZwiZOju7oUatAOJ2g+ZGEaNUnikTBjWVQGpQpebSFmny2Po/ya9YJ52fB+KzKVS6anUXOGnmsRmNY9GEeZi2GBCVv8XWng7iU943boF3q+M9VQTj6zKnK6HdCE+v0JS1n3q8eQYedtnujFIittPYVh/iVhsHDb1rwvcu6LSgtCPThD9NMQMoXQGup50dXW7NvwJ0RytrWrJWAoinS/wa2hmGVKvOtcqgBjvtvPnL0iM25byKuFZATBQQy6IpqZmMMVzkAJCiyIlPUgmTRJUFUmmjLxE/78LKqy28N+kc09XvttK8ZypTOYdsp88qGweZkzsRZL6XjEp5IfPAYWuDihQW2xfyp+8mO73pvLbReq9SdJ5D/32Y/p8TeBeAk8OqtqpVAkBCENwmeYTNsIL+UMqhTRTzN0WaG0GOzAa5WYyTdgwtoATR3zOlevS+nr5uQVNLEcNstCZEwqTETHNgs3Aqr2UjLhWOr+8Qw0GHiV7A/AZIhyr7iQbLdq1R9XWkqMWVnk3s3jB2NX3C4jJGnJBUO3x9XSffdHUU3z+wmSuvtXc3IrfBiQzU+PG+vsHEiQVTid3ORbZGnHMxOYjcywVeyDe18GkciWlY4BK3ajM6m18jzw5lFQB8SuMQ0pQe4iFkVClaARgIhaqqSlbQ/fdVhkLxneHQiN/ou+30JgpfnuR7neW8j4OV6TSIFSyUTlWahTygxgwLENZb2P6etbW5Zi2cRk2AnjRWWmn0BgWqjDSzjxmNxlYw5zGgEItjxtCN5Y/mcxZLpgdPLVRMTKP0HtZJgNhzQrLIehQKSq3WakVuXnA/oX/zfLZIP2C6dEGs4OMGkdfQjTakAZsUoEmNWagqhfLtXu+jDAThRFZeTdlEnoGnkAKyrxVkSTx2WUiXebk84vPfyl0O1vgKQE26rjj6KOXq3bCuyq8moa61u8CE4eqHiSzOrEEzQJihXriM7L2YTMJSgWl9/IL2ZxV4L5aHJE8/lb67jGtMmq+RyCCXcXff1Z6JHbo719KwartCOqC+E5KbTJY82X1HKhddPxpdG2omlcoDBAqxrvpmCeIEU505clksgkkgUsvm1QRhbRfS120J9EjXecQxZEwrHhtv6VEroNhfSKId0NBnml0jZZF+jwEj5Zl1Qx6n4cFxay+UEKDdpx2ECz4ITX+hYI6A2FYZEuA4XSDwsDOVmw2P5cLXPzdrrr2SSq7gqSaLRX1Hs/wPe39X6zEbV2ip7goTVTlHCyh779BnzNVlQKLV6icNaidLqUQ2JTUDVFhaElq4KFmFHyUGNZCk5Squ5Qo9f/S399G6hLyCcFM6ByEdHwjIJXqVW1+fk3zzWtn885Jx6jhJZ6AdO+OKBu7I1hv6V/qHC5dehSkl7/7zezlLo5obvruM/S+LqD39VFaLMsVaUcf6wfF99O0qO6cWuK5o6OzSut6/JL8DXE9kLK02uUb9Yai4v8ztKRy/P0hWfsJAZ60qNVrdCD4VmCSejqObfLIbpL0LOKbtpO2EtS6J+lzR/r/bTBMocomyNaW81e6ys9VS1dXjzRSH07vitE6MHoONjC/vIAby8jOFEpAo8AdVQOyMo9+G/k/TYvwoyQpVSsLH0zhO8jyp9irSdVSSfXazWTR45hfKMzmYyqzUL1f4jxIOZ8z8/gVseONqaEJ1MfvKc3O8TqYChn/67Xr5xR71esmgZPfVJ5rmD73Ezt5FTGzZk0y9NNG85C4X7K/fzChrR9eHwUkrSOPXOBNykKJFIpdGeYJd4SYr3NM1Open5OPsdCep0WxDVq/U+zV75TFk68JjzgbCoF4k9TCnBKv9VFtQwIzOdOC0U4wrKambKJQfJFYtNuNG+D7EyZS0Gbda8j4buhxbUL1S5L6pkuHf6PzbpGOHJL05irXNJQgzgPBXKUKXEA687TwtGd6lNePPY8qHEV+qIS8O7i0L61atdqs+/PFARDwX4npbNAZllhA29F9t1fG8DsKM7mE/n9cYzggnj76bRtduiamsL3SmMPKC4oQDzCrGSbSpZSEDkylMjLEYZ1J6MqF1G5rhk6LFPe2NdQvOW7x3TZSaqRr/grfSwmLMg/Q7ehUkkBz/qrp9QfKDAK61wZeP47iGGfopcVtAXm3utjI7qnUzGoLB8a/fJa0RpXgzWMoLksSgYyLGqTvMvT/yRQxPsPE/pST8U4w2uvjJFVyFiLEoa6Z2a8Ivwy1WHzuYvE7FvPRQu2TY3zDJNj0tU3G97SZJHsUnftb+vyWqrLSM27AmBEuQV7SYZvNRJw6W47p7OySzPfbXPHVlZT1LcF7qt16Br9X4QXgvKY9XFtgbl/3UnamAOO6UuB7pdqk3O8DMvRBfP4G36H0LtmnRnRVDLFWJmkuqndyOxhJIYkVsNH8glq+72mxeHHfC5UxrtMZlhZG8YxqSyOG84Ty+4u6wR/2KnqejUpogd9ZByNaNsD/Mv27dlg96SWU4d+8S7j2eqy2mtdMpimhJcP6lr+mhDbg/x7NS6e+y/cLVQwMZ1eFeWxmVDeTsPE7lUyZRiEUVsGQ165evQYMax+LCG+M5xnlXv+1SOf5CipwiM/zFHVa2qWOUuxfYxYeSvSRfFm8l318NoBLqeCHyr0WWaQmMfrYldsUSNTnSXcQf0Pq0s7F5hZeMcq/DEKsRkDk3mSDlCrK56VER17MWWAmykK7UGEi19F3nylGVHWFm7deDzsX0oUsGJZ+redN6C0nd10yUUh1+3l0pqENoJpsg5t5KBEWAdVVvJPpFLox4uf7liV7NAaZ0muTMdrfcOF5RlqbY4aFlt48iY7UMUfiLJq0kufQ112fYo6m0uL5HH1+Si90hwR1GImlWiY+d6NFKF3+79QV6ZxsYrBX8fIVK1aixtReFkzNQCljJLkLpgOb6RNmZW2k5w2dh4gm3ytVSHySFNekB53iOKUT0oogwleKaCj/rOPGtg7nNM+wZsmN1hGYGDkZrUutnOdB9b7C553fLIduOS2eibpdSFQWf9cpAaVZOjap2a/0a27YNPaCKtb5CxYsBDPZ3eoYYjL7UeWFu8zKzdAxvZ2dXQkhVSWlUwHMy6SsjMqwvqwYxP3O0sB1jrDxbhdbVKVgtLCPwgOtSv8OVMIUT7ANaQYLvbe3P+lT+EgQ891CTEPu9ui1V0N1oNJaYPCbYDK02Jqpntd6rZLlEyZF8czwtK6uHjCsneoKNzZtbmrKIgD1OyZeQJQqXo0dFwxCDY9QGRaqiCAdpk6ptio+H/Y7il1Ru3/ncFN6NcRikrHPxZXJ9053/qfZ6F6weN0742VZBj1F6FJJl2UBjvlm5DPK8j0KkwTDmq0yARwjk3VJDZuqHJ8v9QJPpFQhsanJ0iM6knQBRrKNWjpIOwYM5QRKv1lMeYpHKPefroy1TX0HKsOCI0NRC1+0SEXyTQoQC6raxXv+glqWh9HcROBlIX2Dwxos1S3vUbmbz/eTAYQ6qBJHRiyY3aXK19raBmP0wcrC3ixSW9Y0o3SffngVkf4DiYYSr/spz282Mb/9KYzhXWjVrlxnV5LyUJTvUKpFlaU4qYPIyQOv497IMUTuJd03n0S8aNES3G8nVRJVvZkAJFHjXHrWhgDsR9Lgf8K8ec7LDCNfEhkJdZuX7+a1tcnh86irxUMVEjlp06TKJzxuQqrytZVST08fDOAHBSAVyAXxgMYcv0yfuyv3HFVzCDW70JiSkzcXVWaVWD1EdKPK59eohMz74N5X61vVjTcTPYnyDr9DNbxuALNDcjUK9JFEP6pFoL+h1eKaVBBOFvUD41QYwzZBFU20auXmYnO6lKUtU/PA+fD6epnYdTyp4wuECOxQ6XkKqIzPXXXBNDuV9YduI9fxhKdQCV+B9NAu7QdKjJZuJF+IGlh0zGUkMUhGM0LXGVGe6QDKYRxWjpHSTyOYNYoAUhS6Hoe1wWJ+xpRwh8UKwd+jSowB0MIiWVHWC6CQIhweimTBHsLx93YocpijaluJE+fPF6WTqRfBNdaonxmQ7cVQDMZSUtxLjbcj9W9brTqoGcM6CgxG7IQ1JGGNmEl1ynUONjMtyJLOKHWczeYrSjxuwrAmGB/VyP+QwvSuVPIFpbQS1OLP6dKeV+jvH5De2Ju5Isrkuvxed/0XArCtxGkif69GqAcJkHgoOTeM+T5ZiaUarVNaYtH3syyYzJFQCYlhnWKlhtI1ElRpYdgiSHBLBHdSHfpHC0lYVON9K2KwG5R4rCdC0gLmtba2VQckWS+lTWS0AteZfN5PI9Hdo22lFwto56A8LlGeQHrmT4Xd6MOktXpQga63KFHw+K5rwYJFiQItsyaK01GgZ7WSS1hIwtrbzACuefnA/O41YVhvmCzuW4jZzQyp3hSY4SsBN3eRKvYDWqHDijC3wKzg22RSFcvPVlqKDYrGlaJtGlXK+FtdsN2Y9ZzBIeqUU1OAYU2okmjzTvl9O5jVutIY1m4WKTdvyWNIwrrM5F08p9l+5MJOQT1HjFbADMtQbFeBtqmS6SiIkyMpMlfmTEsNDN5HdlzyU2y9vcwNhAapGmOZTLZGlmYpBYiXNz2EhQip5/OI0ZKdaqh6Q9Yq+VkPJbDIOdUZ1nYWEt4NGpP+pMkY71TSa/5PsbtNUwIycwFLV6+HvGGhhthMMHQtBKJca7oPIuQjKC/Wk2XMtMCs/kELomTMijrFJBUjdGC7LBEMGnyer0SKn6e875e0tJKcRYCx3uZercJQayKFYa4/1tzcmp/nOXPmQVo72MT4vFQ6OpQel38jNfbhkGwr7w27CahikP92mcZsSS1mdibTlAx0Mimpc6zMDH5YcBePJ31nItG2W7zQ7QNu/mFohexyeqxR3XgnabXv3/0mnuQrNBsVjv2OSfyUntJUJxuqmkh0hqznNTQ0B97TdylzMabmSgY8P2+Vmg5QlZWevVwSqWGjewm22vb2zmRYk/iLMojPUnXotVMiCIrUE+acjKl9AWkMo1J8RxNTYkJJUuU6NfUVdHGAbiivs2hkISWo7u68g0dtdPoB1HOn839SF27XZPksH0dXoFLSwMqVq6Rt689aAcO4rruVpVpMnTFO6DSUUiwHTYkokIetJIxcGwfin44hr1yS7FIPKr+PqHSg1+WuG++JOKwEqF6sSlXasWh2mm+wibr4JZyD4QjSQ3dcY7Zo3DuWdALT6bx7+8m6+LWcl9LVtCkRh7rwu64YhdQhJEcrx7YKCWQaGeuldPVzHNfe3lFVt3kX6Lx0NTAwmKDiftfT8/3B4tmPKOGmCDtZTURp4tUYSlq7R2kCMzGTrkanxASQHFxi4kT54a9QYN8Dem4lxjgwkG82sRolk5Vx/5Ki52dCrRH/T6XQhVkUKtNvYqND1PonlAqipXjuCftZxOniCzHRcKDG3hrFCVxQF+123PLF/v/2rgPMsbJqk2lLXzpI74LU2ZlJJtN7297ZvktTUMEf6aIiSBORKk1FAVFRigqIFLsgCoigIE2ULkhvu9My/znJObNnvr3JJDNJ5iZ5z/OcJ1OSm3vv993zvd8p71m9Xo7JBOfkRDzUJv295p4vGaLJ5j3vmBQI9cfES0b2+o6JuGbmqi/x+7yg+7mJmRt+fe44Itzl1xvoV5ga8SqmzTGU5cdEwmHmBPYFcjt4Q0ccMf/nhWwfTjTlxEiDrCI+nCORHJwfH/k40ZS3/OVLly4L+PHGPejDlIdIrsB8n/myUr2/feUjO/Ak+3+/6UnhcG1RjhotP9b8cvJrcNmyFb40WOf4jPQvkk4eowm+tzsWcBH6hERHc3CO+LGkh7eE03x3s7hFt3ATrfbTBBRfycZjah3kvwn5PPjJMpp31ZOrc4O7cNP5b+hDooJeTYnxldTXN/ANC/lpSyiDty9T7K6XB0LXMjnD2e+FrGtyfX7U1tbxMxj02Rxhg/Up390sSfLb02c3a956eSZCmteLrWHaGWW3yqM5cr5sxSI+MVhH+NC610cbE/gEkvYpb3k+SoHxk2U854r0F3m4sD3nkzQjNpwLfHujTKOAiZqA7EO7M1+NVTAYYtgfLkePu7S5DfJtjmhvSZ+U8bDBCi5YcIg/3TJZYIAcrQ3TM+sVgAhLwhoYrXFzgk3Jx/khpIgH+wSN78msG359kP40AVQYCu2j9W+NjU2BAjFa6CY8PrLGqwtgjnx9AtNhlKV2Yz/foLOznIsVsTk0WePYmWBpb4/2MtxCqgugqWfnv7VegYiQHU5Eg4uIr7fc0q6pK4sIK2JaVG3iEsLlu7S0tLE/ayZSHVLPzeP7xx17Csho9U1AUmmfZbD1nSxfvpJTG3byoMTNNAHfPpyDsl6BilTuT3TBcC51Q9pmxoxZBWOsuCwmFKouzbITXplld1myZJm/73UWiqAtiX1bXV19wRorY7RugNFKar4cXIiLm/CP7Zklo6UBjb/lysPz7QwmN9rJtyLt7YFy22j9Ik+bFqRrvjQ1N7cU7Hxhymm6Bw1Z6Mikzvat582b7290NXXqtGgCaQadwTr5PsusljBT6xit2xA99DRWzZnuLZgLIiV0DRlCWvZYKzs6Ooty6aacleZCXeuzOpK7D8M8rSsNDU1F0roLKGttO6lKMlZlmB0xWbny0ICwf6ST3cEavy/l6mp/f5r8KhZmdnZ0dBVh2sUXbkxJ9+nLudqwIF3GSqLHW02ZUlmKWTFSOju7lP31+XEi8ojptqRdskty9sYwT7cYmrG0KIpY0jc6zrYtLa0wVkkIt6din43c+8ECMVq21dib6rfBbBj1GT3WuXejPaeWTVZR7L1yv0tz/cHh3Kwp3F1HLqzPZN5GEllsfq/4wn7Lx+K8I0yv5KW6uqaYuwjT/Xs3B5g+07kl+TlGP3lR3x6zrZK+ZPzPfRLtU+1T5Co1wy+SXqDPed7cEI3k0YXuyl2BuQ07XzDfGG1Brsp/F8P2T2nVvR2m1NhFC2EZ6ebxFjEaRpcHbSFGfawLXDhquLq6eniRO0R6RP6U0RPpHaTfIz2ZtM4Akvz1DXK+VDAYKjGGjFs/sRHbX5oUbG/fz++l9wBVpQ/6h00FfT445a3x/TNfYzhcU4KRHp80NjYH+D5yOzbneeRysLLa2rrCDHi1t3cEOImPty3cqpzbn9NNCmDKZAz6l4jhOk/QSG+OGq7hLkiCGntkQcTcgUDyUehB34ge9B8bw5ULW0V19PbKeR/J11Jf34AUFwgkn4W7Ncu2fFN68L9qyqn6PPLn1FCo47VXtpWq/UlGIoeDKeazvfK7BmMGPRq3Dhg0xe2sZvK5F1I9IAQCWS/qNA0Y1LUnGYMzOFLEgY+DDy63zTyeFNLAC0iPYb58zpjmJpmkB3CzD/r83vS6Byv9vAsr/byb/L5H7P8Vn6DfDyKt4Jw67qhCegrpFeLcfZWNJ383qxjSP0mD1m35PFtb22CoIBCgru6UDEEoVB2YN29BYPr0mQFGbOyTbGpqiSr7k1iZwqWpqTnQ3NwS/T8zT86cOTvgW8pcCAQCgUAgEAgEAoFAIBAIBAKBQCAQyJgkGAwh/gOBQCAQCCS7MmVKRTQpZebM5NJ0q6vDRaRl5eVTNqLPTq6oqNyC236Qfox+Z9pAztDbbcaMGfscc8yxVaeeemrdmWee2Xruued1XHTRRTMvvviSOaSzL7lkXf3a177Wc9ZZZ7effvrpzSeccGL45JNPrj3zzK+2nXPOOR0XXnjhjEsuuXS2+9mLL7549qWXXjrnggsumHr22dHPNn3+88dXH374EeUNDY17HnjgQXw+O9N57cBUC0zsTL9vTrpJZWXVBm5FZSLhexQO1wCwQSAQCARSyNLe3snZvUXKQeQKgY0NCWhsy+12pKRhBunxpJeT3ikcUB9xOYKq8kRxHZXTMNPWZfXG0b5RtDfNn9XasH63Hk3PX6+Hr425r+Sa/kv6IBfjkp5LejizZZLuxwCS3r85vXrShjDbA/2viLOuMQMhEAgEAslRYe8TgYLimpp1ezEy/xz3aeRictKvkN6ujKNKpGlAUq9TrK6gZLAA+mFGPKihBzzIAPoVnOk9lM/9lfQa0qNIG0n3Zu+eOx7BYKg4HK4B/x8EAoFAID7zSBW5nhNeyLnLGely0quYdEOZyA1jtuvJiaC1ZdqIcF1GJe2nowCM//YrbnJFOpV0Lzt+zB3A7VeZYwAzHAKBQCCQDAt7Ourq6l0wxV0RlpJezT2qNGxnPFC9pl8VAJQ/AJjSYkY9YKYfEevvBXh1ci6bjjN7I+l9JSCTh0AgEAhknEKLbHFt7VpAJQnjK0lvIH3deKT6HSAFEJW74UgFXsP5bfTzw9xBhrStqal5OJwYDFaXtrW1A3BBIBAIBJJI6uoairSpaQxgVTAH/lmkD2nitWkYAjCV/4DLgq5ezfOinz+UPguHc+UjzxX2bNXU1JbiKYJAIBAIJOalKjM/f5z0Qq7UM4BKE6sBogC6bOe9PvVyyc/3MOBaufLQQMy7FSpF204IBAKBFIxMmVJRFAqFo6CqsbGJE9Q/K+X/1kOFnCnoWHK6dA69RXoTaVDnHQExeLcgEAgEknegqpgWvhLxUu1Oej3p24YOAYAKms6wYpRKQ8AW6xPcsl3nIxdKIFkeAoFAIDkpbW0dRVxuL6CqhvSPWjFmFsGhPOeSgvqDMmJQubro9U3SS6qqghvy3AyFqhFGhEAgEIi/ZcaMta1laBHrFtbzQcM9BS8V1A/5Wwq2OFn+h6Rb8Zw95JDF8GpBIBAIxH9CC9V00ufjACmAKqifvFtmPlZoovyt3CYJTzIEAoFA/ACq2gVUYfGG5kNIUX//sXq2IBAIBALJuHR2dhVJk9/n4nipsGBD84V/S3++lnRrPP0QCAQCSavU1tYV0wITIv275K4MAkxBCyhva8D8/dKKisot9dmYOXM28rYgEAgEMrpUVlZFW5HU1dUXScPk+6TcfRCVf1CArSl9ZpNxJukw2AoGQ0WwIBAIBAKxoGq4VF1A1T2G9LMfoAoK9QRbawRsce/EL9icrebmFoAtCAQCKUShxaDE/FxLeqchZuwDqIJCUwJbq+X5+YD0NAJe2+nzRX8H1xYEAoHkq8ycOStQVRW0oKqT9F4DqnqRrA6FpqVtj4It5tk6m7sX6HOH/ogQCASSB9LV1VOknireRdPPK0gfckAVPFVQaGY8Wwy21pgcxu+QVuvzGQ7XlsBKQSAQSI5IQ0NjcUdHZ7SyacqUim3IoJ9O+q/Kyio18gj/QaETE0bs5Zwtydu6k3S+PrfBYKi0sbEJFYkQCATiJ+Ek9bq6eu37d5A0U35PQFW/KTMHmzoU6pNqRP5ZntHHSU8k4FUmz3MZrBoEAoFMkEybNj1ABrlEQNX+pD9loy3hiH5DqQBQBYXmAM+WPLvcFeGLHN7nZ7uqKgiwBYFAINkQMsKl8rq5eKo+EsM8gCR1KDSnE+RdsPUs6ZH8vLe3dxSFQtVIkIdAIJB0SjhcE6iuDqu36ljSV0yiOljVodD8BFtRL7TkbP2Ww/9iAybBKkIgEMi4gFVtsRjU7Zn8Uwwt+v9BoYUHtiLy/H9EegLbhfnzFwamT5+BxHgIBAJJVoLBkHqrZpK+6AArVABCoYWbrxUxXq0bp0ypjLLHNzQ0gjkeAoFA4klTU3ORAKvjmaww3k4WCw4UCq8WhxAFaD3IhS5sO5YtWwGPFgQCgbDU1tYNG0Qykl+JY0yhUCg0ng4I0OKk+CCsKgQCKWhhmgUDrE51E1sBrqBQaIohRG3M/jTpwbCyEAikoKS1tc0CqyNMuxoAKygUmg6g1ScerT/R666wuhAIpGCEDF+DSV7vA7CCQqEZAFraB/Fa0o1geSEQSN4JGblo8joBqi3J0N0h7TFWA1hBodAsJMSvmTIlCrSOhDWGQCB5IU4C+3HisVqNJHYoFDpBFA8vku4N6wyBQHJWKiurAuK12oMM2lMCrvrhtYJCoRMItAYkbPgNtk8NDU3gz4JAILknzLgsxgzhQCgU6idvFr++Rhs/eLMgEEjuCBmtTcl4PSxeqwGAKygU6keQJTbqi2y3qqpiHSQgEAjEr16rRgFV/cizgkKh/vdkRUHW/fX1DUVVVcFSWHEIBOJHcPUV2RGC0woKheYM0BK79aoSlC5ZsgwtdyAQiG/A1b1ipCIAV1AoNMdA1qCpcj4sFjIMImQIgUAmRpqamgNkjNYnfc7DYEGhUGguJr+zni8bxzJYeggEklVhGgYyPtuRvgFgBYVC84mgVLxZ17Gtq66uQV4WBALJvIRC1QHZ2e1J+g7AFRQKzUOQNSgUMz+JgawwwoUQCCRzMmvWHAVXn2DPlZNzBYVCofkEsgakrddNbPfq6xuLsQpAIJC0y+LFSxVcfZz0vwBXUCi0AHoZ9gvIupbtX11dPUAWBAJJn0ybNl3b3nDO1X/EdT4IIwyFQgsIZF3CdjAcrkG4EAKBpEfIsBQHg6FSen3UgCuQiEKh0EIBWdrD8DTZbCLxHQKBjE/UkJBhuQvgCgqFFmrSu3qzSFeyTaytrYMnCwKBjNlzVSav3/TY0cHwQqHQgkp6l59fIG1i20ibToAsCASSmpDhUM/V4Q4dA8AVFAotVO0TT/5dU6ZU7Mg2cuXKQ9FWBwKBJCe1tfVFAq72IX1cDMoAjCsUCoUna0pvVVWQfz4XqwUEAklJaGdWIgDrJqmeGYDnCgqFQtcmvcvvs9lWNjY2g74BAoEklurqsIYGP83ucIQGoVAodB2Q1S9cgPdxVwuxmUVYQSAQiKfU1cVCg2Q4diVj8YCEBvthUKFQKHQdXSOhwhOwekDyTpifqbKyKiU+kvr6hpKamtqSUKgau41176dWDZ4rocF+eK6gUCg0LnUD//w6aSXbzubmVqwrIrNmzQ7QOltMG/cSXluCwVAZbdr5tbS1tQ33yachrBIDCOaT/ob0FdIPebKz18WquHH5QXiX9CXSh0m/QVqrx1m6dHmgsbGpoGPo/CDIPQ2RPiH3DblXUCgUGl97ZTN6vm5QC1HoHhTRGjKCsoLWkD2YM4z0MtK7Sf8meiNpN78HNBc+kBUrVkXLYA85ZHGABuYM0vcYAJh+eJb80uYLuX/T9w2Zz/cJ8LpIy27ZM9bZ2VVQpbeGUPR8cXv3AlxBoVDoqF4s1o9IqyRKkvfeGfZOzZw5K7pGdnR0FtG1LyL9Hembmp8m66vXvbL/u8KuP5Cs5gQ1KF3A9qR3SE5QPBCVahWI17GGDJHcEQZ85DXYot2Heq8qSB+D9woKhUJT9mKdzeGvPM7R1Z60W9K1nkn6X481IjLKmmzXXm0/9AjptnzsZctWgFMs0zJjxiwdyA3pxn/PIx8o3VVtkQRM5atJv0S6QR6HB9V7dYrc6z6AKygUCk1KNRfrZdJ98w0oVFUFOYdqGel/yssrEoGpVNZlfZ+CrAdJt+HvW7XqMICsDOZYqddqgfGiDPrkAWJG86X5dL/p4dH7vUP52n6DqByEQqHQFCoKKyujqRWH5knKyHbl67ZIyxjlhWzsf8bf3dQETrG0S0NDUxS1dnV1czz3G3LD12R4cFP1cEVZfAWE/JKT+PLAe6WkonO0UMAHgBYKhUJzSZUX63bSrWOb11BOeWLovJme5zqTIjKQBR5E99gny7mUARWlSRYvXhqQm8qo+W4Z4H6fgKt4k0HP723Sqbl679vaOtSDdbYkt6+BsYRCodDUPTHy8wFsUxctWhLIAVC1Lel5ptq+fwLIpaP5WHIOj2uxQDAYgidrvLJw4SGab7WLJLvlSoJ1xHh7dPdyWI4ltyu42pn0HoQHoVAodMzrgSa7H+lHe9/V1RMwwGoxV/zJurVmAkCV1/3rk03+NXyONTW1AFjjkZ6eqQquthd+qlysXot4tE84Ihfuv05gOt92IctDeBAKhULHFya8gXSyX+y86dDBEaKrZCPda2x9xCfrqJ7P+6SHyDmDvmGMydVRcEWDvRndzDvzgBog4kwUnsAzYq7O6mKfAizNvzpSdl7gvoJCodDxFUP9i6MCYmMnLExYW1unG+gDSO8XYNWXBJXCRGqfrEW/0Fw2JgIHYhpbpcIkzv0xA59P7mKdvP/k5EG+3tmz5/hyooBcFAqFQtMaJtzfDctlsXBJgdU+pI/mmPMiGgkSTHCiAEWwvY9xYZ9aUZGXvEvWm6WstefErrnCF9URs2fP1cKCrUhvMuMAQwmFQqHjA1hzJ8Kud3f3FFVWBsvo+28xnU5yLeVGE97/TdrI11Vf34B8rBTB1ceEV2ogBydByozxMmGe4nwziYtPqDerpqZWEtwrPk7n9SenchMKhUKhYwhxqfeFNGuggOy3pnsskEjEkM9yrFJVBao3aj5bc3MLQoXJSHV1DSPsywqkJctwtaFcL3NNzZeHYcJcn8w3JufAzZ2fM2MBIwmFQqHjS3S/jABCVrp/aHse+s4L40VRctQ5oSDri3x92pMYMjra/oTxmEQKxHXsUjt8QeLlE1IloRwjdB4t5bEGnagghEKh0PQArB+RbpqFCkH1XJ1c7h9i7nSCLPUIHirUQggVJhK6QWVSxqoLeqElVUcMHcVpEq7LOsgyFSY98mBGALCgUCh0XKr5Q3eSbp6FVJviurqGANMcCRAZyLO1Mgqy5J7O02sGkoo/IXYpkNBgMiCL9QwFntkch8bGJgVYswzYBcCCQqHQcQAsef09rXNbZtZ71aDeq2PL17Y5y7d85uFwoQDII4Ci4uZehYvpBl1bwN6rdYjVZNJ8x/JSZRlgzTaGAQALCoVCxw+w/kC2fcvMgat6td8dpK+YVjf57JDQcOGtpFvw9StZOSQ2GablUYw43ZwffyDdPha+izHvAmBBoVAoAJaVcLhGPVcLy9e2uxnM87U14kHjcFxTUzMAlkyGnctHdufGw7guA/Bq0pXZqDAEwIJCodDcAlia5E3H/1qO8lylNQIk9+Buet2zkKsGuQfSB3FykKDGBSplqbfTwxlNkGxoaMyINwtJ7lAoFJobSe50TLXXB5P+Q6Ie/QW+nrrt6fTvN5E20T3buBDA1b7imcHDl1wyX8Q8OMfpfezo6EyrKzQcrrEx/PdB0wCFQqFpA1g/JRA07obP2qiZ7HUpHfN606gZjor46+egrqFyv35H2lxVFdxQ72tnZ1fuhhZNL6QVBRAbzhQq7zftAmr5fmqD7HQIHUvHqIn0dce9DYVCodCx82BdX1lZNWYPio1c0LHO9uCNxHqafKX+gEmQf5f0aPp5M72/7e0dgVzyWClD+G0e6BIDn/oEWS1hw7s0CX7mzNnjnhCE4HWcgqTPgskdCoVC0wawLiFNmcm9vr7BAqvTPPJjsY6OD2wNGsoHdiwspvEqzUbe83iT2MvktctwcmBSpMftyT9/JA2Zv0cTIurqnD9/QWDsO6QmBVgHkD6CXoRQKBQ6blVPyem6cCeZE1skVEZMxH2h2OM+rKEZXVOjHsEpU4apH3YQ76F/iEw5NiwL9Q6kD5WXV7gcV5gY6Z0Ua+QB/qb2E5w7d37KQIuOoQBrV9JfOUmTUCgUCh07wDpqNBtcU1MbWLXqsIDY4T1IfyafXYP1M+tJ8urVeoz0IJvqNKHAqqKiajM6oZ8I4obXKosTQu45Aa2eKFiaOnVa0kBr+vSZ+mBvQfpjCUP24R5DoVDomO2zNiieGc/2dnR02jAg5yn/2wArpNRMbAhRHRj/IP0Ej1EwGMpe6DAUCpcJsJpMJ/B9A6zAcTUxQEtj/t/VMO3KlYcGkgjpBrRKhX6+tLIyaKtToFAoFJq6XV5TVRW1pVMkpyrgkafMUYMbzNrZD2DlW4/WrQSYN7FUGRkRmjSTtJcgc3wAWPluQgzIhPg5vW4tjPDFyVSqcDKlGIU1GEcoFAodsz3uF92bbWtbW3vA2dieK7m0qAj0/7o6YKJyM2wRX1qE83Tq6xstX9K/DHssQoH+BFra3/Bh0pCMXVEcjhVtuXC4CRFiPKFQKDR11TXxadKdJJXGBVgn4D7l3Lq6RtbHb9Daun46qBZKhZZ/Eh30YhOGGgDqzolE+OirjNnFllg0Trsc7hH5gWMkoFAoFJo6RcNttBBvESc141O4TzkJsrR44RbtskL4KPnisu7unoCZBLNIn/dA5ogR5xDYkof9KSkDLvF42BVgVZE+CS4sKBQKHXcF4dfjeTrof5/Efcp5kHUdrZWbphoO3IST1h1QBW9VDk8KAUxvkB7sReegoUOh2LhTJg8qCaFQKHTsFYSrEhQXHYd7ldMgS8f46FRCgh+jD7wIb1V+xo9JT4oXJjQP/uWS6N6bg9eJjQAUmj8pDkM5+EzbCsIg29RFi5YEPOzsFzHWOT1H1fH0arkQk45Wrr8B6VVg8s5PgCXjeq/EjEs9+kYqUeznc6SS0MvwstftJWwMoNCc3gyyfkT6Wpzn3c/PtTom/ku6V4xrcIYXwLoA453z2svs78cee2zdqADr4IPLt6MPvOeEBKH5FSbkfLrNW1raAm7D6KqqkFYSzvF5orsXsHqO9HMSBs3FXS8UCl33ueXXO0jPy6GUFU1wv4NetxaCSi+A9SOMdz4ArIqhk046uWlUgLV06dJ9JPemFwtT3gKsdxhASTFDkRMe1kT3ctJHfZjo7mVUf066LyfwA1hBoXkLtIYEZDXGNlG+bcMmxJTR3JwzaRNbmiBi9EeMc16ECF87+ODyHUcFWMuXr9jXACzcxPw1WJd6VRPOmjU7IECLixx+7CM+rIiHN+1K5mZzdoEAVVBoftqtAdnwvU/aUx7r1/esTymDNP9quhBzB+IArFcxvrldKSpr5HFeOXZeIcId1MWJxSo/EbcA6L9Kg9HSeLxnsvuaaG+mJ7Ay9CH98FpBoQVZHv9wMBgqo9d9SJ/xEdAaFOVUmwPZVmkTZyvccqUcnU9yeS7q2D3MhYGJgLRF1Nzs9y8+zr2BjhNgiSF6oby84uNevQrD4RrNw1okSaYTMRe8+isybUgZA0B6/bOT7Ipkdii0cEDWoHEEnCL2qoGr38VW9E1gMrzaq3t04W1tbfPKvwpjjc3pCtc+GedqIeoOJMN/VUIfOI2z4uHFymsDxburwyyDu0ce1kGkj8husX8CzlE7mTOY2lXOaSEn38vERnsmKLSw7ZjmOv2K9GNiIw7TxGMPD3dW8q8kbPQVOoeSBM6MI2C7chZcabucw8fSGmcvU+6OCZC/JdDXxKgZwqUjW+Y0B8QAMNj+QRbzsNymmh+SzjUG6XvwWkGh0Dj24i3SqWIrNuLcTLMRy1bY0PJfdUmea1EcgHUlxjA3qwZlTTyX5teklAEWfXBD0svMDgCLWH7piDwszbka6cmsKpO58AWZTJmeB67X6iekG8s5bEv6gONJw5yEQqEjQjZiI443a1kz6f+cauhM2g79jn+T7i9RoSInSqQb2IcwdrmX1C4e0xtoHDfjcWxqak6+B2Fzc6sO/p7iQRgoBydWvuZhsRHYj8e7ujrsGgHNw+JqnVeckFwmcyo452uZMZAVfJ4AV1AoNJkNmmwILyWdpDmm9PPtQuuQac+3grzvk82MNgGur2/0SnBfn96zGvYs18BVdGzvpLHdlsdxxYpVgfXGKnSgpZWVw2zeuMF5ZIwMH9YK8WKVOIzuRfL37ek9vzEAJ5IBo9gvx3+ES6/N/GNw93oWd59QKDQP8rIEZHFRzGZK8Fke6/u3JsNVxxoe/OQoa2tbOfq85iK4ulcLF1ynRMpCk3RjOuC3TNNfLG75l4d1iVQOrhMmpAlU6vQlTOccMOAqagx/4lBEzBEAiGpWKBQ6ViqHm0m3MsCminO1ZNOWbpCl9Ay8Ea2T7xtRQLRw4SIFe2fCruXOXBLAzt0EthFW/vGBqzlz5ulEYF6s+0x8GSArTzg8ZNL8TjxWZR4VpaWmKmd1GsFOxAlVXiXft4F8Xxfpaz5kkYdCobkHsq4jW7KZKeLamv72kgOy0knP8BvSXfi7lixZNiKE1NTUXCQ27j6MU055Q39QVRWMrk8LFiwMrJcO0eQ8mjR70xc8AZCVX3lYYnz+rju8OXPmBpzxV7qGg0kfk/cPpAlcaZjyMpljG5icq8fRbBwKhaZxgTyXXieJt76osjK4QZpBlqVnODueh4MTojlsWR5jo0fKg8+LJmQ8L14vU8KTURY+7vX2D+TD5E8loYzli6QNEhIudkLEASUhpffcYqoJ0wWuviXgan1TLXiboYXAOEGh0PHaGwU+S9S2zZw5OyDtwN5I43fp98yOJbc3jLCn8+cvDBgCZ7Si8+98sUUQn5cIT0nGQBZNGgVZO5P+FhVdebXDe7dcyNKqq8MlHmOvdA1fMbu9yDgmr3rObhcvWVlVVVDn15cl12tNOTiuoFBo+hZNXa/2YVuzdOly7bm6W5qKuNTp8Cx7/G04cG1ocjgicAPGxbfr4cDaTidTWm1FfUYlFAoHZMFl8slvepBPYjHMzQnFr+fES3Tn8RajMJ30v2Oka3DB1WOkZUzAp6COfu8wbvPBAhyDZDSZXVcEz2Te76zHMh/izY9CmSO6cN5KOtnho5odpwAolfHRfK8bSbfg4/b0TAvE6ZDxvwzkf0HHb4MHlIYhGIzlJHd1dQfWy6YEgyFdEOcZ5D9QgA9sXhhtmVDXC4gu8xhv9S4xXcOfTR5WquOsIcnXSeuVKV4Mz2Quqc4iY3ymKzO9FrRBFzjy/VA1wHKNAM235F69Svo8h+dJH2APsiTR8utDsmN+hY12eaz9Ub/HMSN4PnPO2A/aOSIemPckpPWKjDuP/+/NfPiTzJPnZd68LvPofSlSGYwz79wquHwF7BrC6/CgTbhs/PQMIX490au/q/HS87r5ETZAvtm02A09PyOfiudsyJpo40o6mUmkV8iia08Uhjw3tF8Mzt3irZoUh7NFw4Q3CS9aKnxYroG+NNY+or6kujpcbDhhhrxAiE88BoMWVNoFaqRWDvGzwOosiq/Joseeu1s4CZZ0GWmQdJNRnrWol4+VvYnMV6bKm52amlp+LfYYM2539Q353kicliF4Rn0GqgzoeVEW/f09WpkV87jTol3C4YvYfKiMzg+eJ7RRKnHpATwKmDaSgpKlQhnAnRMeLY+RD//XgvW1c7oy7tx3gOGgT4GZOgK4CfNk556WmXysVJ8Na7dmCrlocRzHxO3j9JZB0/vMDQl++XkoVF3qZUsnTJqbW3SB5LLXHxmgNYAwRW64zQVg/ToRaidjrnQNXx6DcbBJ7c/S95W2tbUXzZo1OwrS6+rqi6XCZ0gSPyMTuJOJyNwd1IVF/v6KLD7MqXM6J8uStpNWkzZxkQBpOX1mx6am5uI4nt8AXzsrL4a8SNJnijL1bM6YMSugNBsydnye95ux6Mcz6ovdc78BKOyRmqpjVltbV7Jo0ZKMhSiYhZrnIQM0nis0R0tp4xOIV+xE79tBKop5vjeS1nCeCuli0i/yBoz0b1ydpwuXAfYDPgD3tjJsP49NyewxpkBo+PHvmn9Fa+Pws62hQikUe32cuazQNKVkiH3/J+kUi2d8Jw0NMbQ+d+58LkE9jXfszi7eq92OV/hEH0TVfqN9zrHWuYHxPQuJNcGuxH5vv/n+gTju9FxbrEZwYZERLYlT5FBiyD9fS8EI2fvCbZeO4ON0dnazsS4yLZn+nGVahogzzgNmvv6H9Iek8+096OrqKeKEf/p7Ke9OeWFqamop6uzsKuro6CzifLL58xcE1vOp8GJtFxLSZ8zcR4g/u/Nu0HirnmMvkgkllfh1DrF9p81WUXt7B835rqKWltai7u6eIq6WY4+0PB/FDmiZyRxCpP8ym5aBCdqERwygPbWhoanIAZHs+fv1GJ4F7U93E13flnysWbPmBMw9UPv5dVTgT3jqhuYBP6NJ7PTMla2XK6KElewSpQtYRfpT0qc1/s1VYqrGQ8Cxzzdl5/OMhFI43+R3pL+UY/yY9FrSy2WinkF6MunnSI8qj5FhsmdhoSwg0412SxhqmvP3BaSHkB5K+knSY+WYZ0p45WoxDpwYeRfpH0j/SvoU6cualK3Xxa9moR7eMTngMJlE1awBLBmDv9DrhkzLQMYzsC53S4uCoX04xyMFPizrvfqbdZUzKJFj1kneUabDgxEnVKAP2rsyr6ptSJTDLOvlqdB1T5LrZD6eK3Rz4lBjYAFIv7eqz/zt+7QoT5ZxKM3XudbY2MSbkTKHSf0atvdxIh4Zp6eR19vJ3m3g4cWqSJHgOFK+tj3O2V73QNuQ8dom14yNTHa9Vf0mFHg36QE2MpOrRjwaEuEckvEei3N1+GbwwsB5X7RIl3F5P4e02K3N7m02UrwD4RwEm5vAr7yDYC+b/q6vzG3B76cdGP8teiw+Jh9bviP6XeqhS4LOgs9vNwENDNxOlDyKWwQwcl7FMBgzQKxXjO9AlvPYFGQ8qS5z69pWqatrCDCHC983Br3i9RrNKLreqwU22TMYrNbw8nQxTqszcL1uIqMCSs4vOUcbdtL3l7q9GAtBdGctP6/kDQPChxmZe71yX3nefdbNyykkoWetmHNdZI3YTNIO/pehXqeJANbTNCabxrHhN3kUiCTkv7L9B+vq6ofHtb19eCM5g/TtLIUH3WIJGwXqNdoXJ7qUbM7ZgHPcNaK9HtrnaL+HDiTQwQSRrgGPc7HODi4EWW7n4HqQ3JOOjs4APVxF4XBtMQM3BmtqTDwWN+7zeJBUlZwm3CiPKQAzuzudnIMZ8HxpmIIr0BbacGACr8ethnA0kqTH6HEbSlaiPzne8gwALNdbpfeTQ397y3WWclgPszbqdQ6Ytkjs6X3J7OIBtMYOrNbIvOMcvh4TrsW8i4bRomSfOu94Y/od4+EZzNC802Oz53rzOLa53OF6TAaw9SnBqN24mOu7JgPeYTd3dI3adLOGvClRl19wtTjpJaRnkZ4i0Z+jJfqzQgoeFsuaNF90nkSFloouk4jPERI5+izp/4kz4RTJUeXjn0d6EVM6SSToOokGMXi9TSJT90pU6E+Sf/ioVME+I1WyL4i+LGuU6htSJfuipHQ8JZ/9k0S7zufroPuwk44DO1HwxBWQcBIy5y9wNZBX7pMYHA5tnioPR9QNbUI5vR5VYeMBIhcIkCqLk6StlYRXJLELG7F7Jz2SP+uWLsvxjjfkounOrdKfj1POm5qaOjxoib3FuiCE2bgBaI3NYyWLG6c8NPL9bGlp41y9AGaYt3A+l7EJnzYbuMEMgJJ+GZ+t4njZNpTFP5lcUw0lMghoim1YwsXGbhZz2gWDAPnOwXSCKU1Lkc351wQQ7RPvPre2tgc4bBtLg6guFe99KXvdOE+T1yOO7FhlZwH/j5Xfx9Ei/gxvUjnqw8dhZwKHguX/0SrWefPmT8h85xxBvg7OF8STBYkXbuSk6hKu9HEAyV7yEH2L9APxJilAGctCqFQNv9JwrNf5mErCM5PYidnF5g1OjtWWSy5o492GqSBMI2lnFBgMh2OmTp2GxS0F4aRlGe9mDm140LAAVK079/oEkDL31DQFDuwhxIwaUwj7MOMdSpf33gCsiv0TfPeCJMOWWkH4OOdv8We5iEe8V5oG0eOQi0bGkEMUDTOLrWSvzldJW+gcN3ciDSUugzwEAklSmPiTd8Nrd35tvDv6uCTpP2IAV28SuyXLvfNv3W0TGCr2+F4FWCc5ybqjGYdoM+dVqw4LGHettqnYPJbsWzne3oMuqPwO0z9gtoxfuFpMxn0pEuATVgXqM3echl2VigQybqB1vtiINWmaf+rBmprgO7eRcNRo+Ulalfig5rEqwDFh94tG2fhG4gEqOU8Ooy3ntj6Op624ra0DcwwCySzoqnZ6XlXsKIDrRacs2msHFTFVZOeI92ydMKE2u5QY/FsJqBrc8GCde6w5c+Zp/hX3tvz9OCka7CL3vhcxIyQ9smzZioB4TgsdaHnxOd3c1tYendfNza3wIKQfZO0vuWyDY0jKjud1OkZTB1zhBvRMipyEbdIWOZzGsT1/VlMhOPwm5/6QCQ9G4qQz9BlAxaz8sxjkuVENzAQIZIKls7NrBAeLkAP+zIAtN9SjYcI/0Gu0smbBgoXx+mgFldMmCYD1snjE4rWNOEBJCVMoi473XXfbcnBI+oVpPGQu7Cw5J4WYlxVxCkReptd9+b7U1NTCa5oBIcCq845zo77neLwj4wBY30xUyclkwqOkL9gKwsvtZ7nYSY7BhUzPO/Yy4hTfcP7UPPp5C3sM9fRDIJAcEXrQd+XdtlOOrw8+e4BWimFYp/rRtLb5o6FqSJRo/m2vc9AQJ/ck5PYb4+g/qIbyQg6VYnSz7lU43mlaGykQr5UulhfJfQCwyu68O1nsz1gLY9Te8YZy/QS2ckfJpxtMsJnsF5LRo2UTUiq2Uj3+xwhNjbWXnNN4HB1/M4wmBJK/hqpaSlxtI9Sb1ctEBmAEaAmHhxPdz4njRXIXosWjfP/KcVQQKri6CPlWEzqHGLC/k2dNgUfzlr6jZIVcwIFZMDEgy7EdkfLUqRpWk83bOMF3ME/Xz+IQj0aMDXqCCVTFbkZtkam6vlG8VDcrRQwEAikg4V0c9wMUQ8CJnXNjgGokfYSG9sio7J6g7Dhidmu7J9gdsrv/kjEmuKthu220ZsmQzAuNIc+fO52FKJKH3ivWv/I1Z7JHICS+1NbWabiQm1VfNY4KZLUhwXjfxXmn3GMxjo2y4cELLLiCQCCQuDtDJj3VCig3D2DKlErb+LkvQdLvu17Hnz59RsB4Ph4aQ/6V5i98xEnyGDF/CHPhsGfTIWiM5Bm4+oHMXYCrCRST38SJ7497cLWlEiY8ZRR7OCdOI3qtROTm1gfJewGwIBBIfOno6Bp18TBklHc63C7WAD3o9VmmmZDP1oiB6k3RMGrVzgmNjU2oqvGRVFdHm+WekoYkZD8CrCsxwv6R1tZ2tSPHmFBhZAzj+oBthL7WDnbqRvAgj+MrOONN3hLxqJViVCAQSLo8FprE+Zs4BHq3xPssGyP6/1fGALAixjuyFx+ru7sH3gQfCY0Lh24uTQO3mZ9yru7AyPpLmK1b5htXNT+TYoNmt1XYHu7xlV+K86ZMnztbEMR/O0I2jQBXEAgkvaL9nZgI0DSujsSrIJwxY6Yard2E2DTV1hFK6vcLet0SI+AvUbArlapPj4N+w08A6yMCi5Mxuv4SpaLhhs1MVixhvL4xeifPd4/f2Niktmp36ec3aJj6uQdeLf+/qiqI1lsQCCSzwhwuZHR+bjqYX5bAy3HEGJNTNTz4VXBe+d6TdXyaWiBNlCrw/5rm/ED8Jdo0mxPRx1iNPEyITPZksrN5FIBVsQsTnIrd+VDbb2lFNQQCgWRcqqpCtlkrd2E/1P6fm4zKjpNJKv/ruNuTVaWSOBx33PcA6zN5ArDOAhWDP4UbC8tcO1IAVu8Y87DWIQo183g7TmdQioVQKAxgBYFAJk6Y3sGL1ZoWXKZmuMwhOU1l0Vsji/Z83GX/iTY1pl3/x2iMfj3OFkh+SW5/CQnMvp1vCrCWJ9mYeTSQVe31PdxTsKOjE15MCATia6/G4jHmSrgAawHupq/Hud0wbUfyIMl9EUbV1wBr2Tg2bXacXycwten06TPhsYRAIDm16E4VI9jnUXGYaohwOe6oP4XGeBtpVjsWbiK/erGep8UcHgyfiRIh0/gcZjZu4wFYQ1KRWMY9XHGHIRBILoCrlU64aKyLria5n9zV1YMFz59j/akcz72KFz46C6PrL2lsbNLeqMcHg6Hx9CZ0WzxxleA2dEwQh0IgED8av+bAvHnzA2So7vHoJD/WBU9pGr5NQGtj3GXfgauKNHgp/dzkuRmj7Mt5d9EYk9wTgSyew0fx8UOhalQsQyAQXxg73VWe7WG0xrvgKqcSt9j5GH9PZWUV8iV8IASstuf2SCYsmC+9CO21fEC6C0Z74mXZshXKU7UD8+Klidh2RMsv2Sw8q8nvBOIAtCAQSHals7NLm0BvTcbo9gwAK2sAlexvH/7Onp5pAFgTD642Z66gPANWLsDS6+Jm6FtpKxXIhM053cjVkr6QZlLbEXZL7A2TjX6Ov7OrqyfQ2tqGFAUIBJJxj9Us8Sj1J0gcTadqovthuPu+WOiYYPb1PAVXHiAruti+Qbo9Rn9C550muB86xl6EKXu0zN/fJv2WV4sdCAQCGSuYKie9OU4yabYW2AHZUd5eUVG5GUZlQufDvqY0Pl/B1TrzXObfO6RNfB/C4Rp4M7Iozc0tGh7chPTacVK/jKfwwSonxh+PtkoQCCSZxVPbUBzAHirJcRjIQNhvLAauV85nX4zUhM2PTxUIoEq0yDK4PNN6VCBZmXsaHgyLNzHVnqaZLITQBtJfJZ2E0YJAIMOyaNESuzu81RBGDvnEUxEx1YQXVlUFYcSyKMFgaBLd978UMLiyC6oupn8l3ZTvT319A7xZ2QNaXxhjD8Js5Outlk3gQowUBAJxjdelpvR5yGchoIjJ+doVo5VZUdBA93pVEqGSQgNZ+sqL/Cl8n5qamgGyMiR6b+leH8gEsGlObk830FJPe4jPuadnKgojIJAC9k5oNeCu3EvO9Pfy4+KmuVhXVVZWoXw6A2ISiT/BPfkArBKHC2U+vqhl/Q0NjSCqzICsXHko8+ud7nNC24gpyDkaowaBFLjU1tZFd1ihUHUpGYVrKiuDfmfk7hcQOAWjlz7h5rYCrHYy4cBIlvLvIianJgqiY4tURaIQtf1M9P2G3HYwC+Fte2ztNsCVtbvJfUR+Vnrsk3qvwjo/Jjj3arQ5ob1Tm2QDCw8WBFLIYvp7zSH90CxckXL/EkA+RYvaBhi9cXswFVjtQfonA1IyDazsWGpY5SPSH5B2yjndNJpHUxazu+X9HbxJYHJQQ0KZjesYcq6DAerHxSNY3NjYhEV2DNLe3qm5oduR/nIczZ2znSd6G/MDysYFYw+BFLpUV4e1SudMp4mqH0GW7mAvq69vhAFLUbgia/Hipbp4NTNztSwMA1kEJDZf5QH2UBjQVybn9sUE3gp7fpfJ+zeqq6vXkPdB9Pv95roGswi01sh1/Yu0W6+L5irChykKjyfdw5PEs77Gx54r9a4x8/9BAq6QlweBQIYXXnXHf8fnIMtWcy3FyCUndL8myeuGdN++wguW6SM4lEVgpQDkZmaE53Oqra0rXruoNij4W5ggH1CPx16vz/P7a2pqh8NymqNHr5vS/38cJ3yYac+c3l8OuV9QVRXcQK6Lw/HYGCRnk2bIXOn18YYvYp6hDj7vRYsWY3whEMhaYXd2d3dPgBYF3jXe6JD5RXyYZKzagNHzlnC4ptQsVszA//cpUyqHDKdTNnOVtIz9LtItXWDlsbhWJ8gHVPLPt0gP4fd7JZjT/9QbNpmJarPsqYuYircBufYnSJcY0FuKWRp3/IOmCbOfwVWvzKvZ8FxBIJC4wkmZs2fPCdBuu8hwYvX7FGRZ8sdqjN7wGFpQ1Ub6B9Nfra88e8Sxbo7VP0kPFmAxariMmywnCAupB/NV0pbRjslFHHLMvUifNPk82boPwwnx/N3y/RwanbXWc1ePxPi1Y3+geBv9Dq60T+rCGMhvAriCQCCJpaurW8OFPzcgy6+GTs+vs0AXoyIFEPL7StJHDKjqT9BjLdNVgQrqjtHz07YnSVwXhzJXjwKw/sOdB/j9NTW1oy5uBD6H+9lxQYcJHWZrAxHxSIpmfYyZ8vU86Zkr1ZA9PFe+BVcK0BeLtxg5dhAIJDmpq2vQxPc7nLY5EZ+BK3s+JybrIclVCYXCAdumha55d9Lvkr5mvCMDWQZV7pgodcG92j8yUTjQlYaGRs3DWh0H/AzK8TlBfxd+7/LlK5MCbgReosCFqSno87+R+xWZgLltx2fAAGJupP0j0v30nKuqQiUEovM+r4eueVGWvYtjBVdaaRsFV01NzQBXEAgkNTHEk7+QBW3QzyBLjPO9fM719Q15EXJhsEGgoNgsQsxVdYkQgQ4aL8hg+cT2jRxBvUD6OTuHUpHa2noFWK/F82DJfORwXzSfq7s7NdZsM7dXGnqSibp/EbdK1ozrK6Tf5vDmWsAVLFYQmkfg6pYJ8CiOpVpQAXG0wKa6OozQLgQCGasnq14Xol/6FGR5LfDvky4Tj0VOGUDXU0HXMZVBI+l7zsIbmSAvVTxwMGByrfaRxWdMO3v6nAKsf40CsP5Buj7nDI6F1LGlpTUg3qzNDF3FRM/tiNecNuPOc/t3nL/F163XUlNTm5OAi66j1el96mdwpd61FeLlB7iCQCDj9mRpkvBdPlmERvMCREwbk0Y+d+V+8vE93lSoCe4R+oFEANJ3i48Anp8JqB1XyISAgwKsR0cBWI8xyBhvSNjkHN7kw96LkVHmQERCqb/lCkW6F5vlCLDa37RjGvIxsLJetTUKrqZMqUQFKAQCSTvIutPxovi5Z9wwRQDpqROZx9LY2FwseT+7SBPlW9krZe7lkM8Xm9Hy384XD9y4F54UANaj/L76+oZx58DMmTNPv/N4H3tSUp0nTHx5O+mRPO+YH4zDixP1DDANDJ3HUU5unZ83DhZcva8UG6DXgEAgaZfa2joNF96Sg0BgQPrbsYv/Oq5WokV6E9L1xwkGSukYXPE2mQzvNvRaxRVhpFcz75QT3rGEl34J8Y0XXLG37Si+F3Qf0hIymQiA5XhXpnt4jnKxIbVNyh5mxTfz8XFpL3S08I7x/N2M7v+GDJRpUzDmDQl9fhIdi72ylaRXmKrJwRwAsBGnWvVt0nl8XZbQFgKBQNIquoiSwbk2xxYgN5G4XxcbXqyZjkIW7TXCr/QfIYZ8lvQF0jd1Ydf3sjrgaUCOO2BatERydJFOeA/lunlXP1/mQ9pATqoASyte0wyyan2eFzRez27EafPSb5nz9blwno0BeQ5elueC8+2ek+dltX2veS76J7CqNR3gigstpornCuAKAoFkVjTnhQzPRTm8y09mxz/o4XHKl4V2vPfqQ93VNzQ0ppWzKZUcrJi3JJyRsBcdv8ap0IwU8HhHknw+ctkWDBdsSMeDF7RPJs03UDFAIJDsyNy583URPC5PQBY0NWLXIzMBrliqq2t0bj03WhUh91isrg4XVVYGM5Jfxw2bDbcY5nj+z22thn2axn1PmQNgaIdAIBMjZIBm5lCCNnR8BQPsrbiUx727uycjC09tbZ0CrFczxYOVrITDNdw26mj5vn7MhbwGVxoW/GtlZdXGY6UZgUAgkHSDrIOEYHIQICtvwRXrQzzeLS2tGdvVNzY2KcD6cBSAxdxVu/J7V6xYlbEKUS6EkKpPN0kbml85afz73TL3ymDVIRCIn0DW1sI9NYh8pbzc4fcSoNktG3OJQM1GSfYiPFC8XhkN49D37SjnM4B5nXe5Zfq3K3isq6vDoGGAQCD+E6ZyYNZ3h0MGC1LuL0SsX88iWN/FMHzHA1jcRqZZAFBGwzncw5C+61jxnPVhTucVuOLXlWK/EBaEQCC+92Z9QRajXoCsvEn+3TKL86fazJ11zkkAFlMGLOT3NzQ0ZnxhpO/cgb7vLZdXCprT4Opdbe0UDOZ/Q20IBJI/IKtBDFkvQoY57726LRtzRnvqMQVEgqRySxURbSodDtdknKMoGAxtQN/3TQF3SHjP/XzCP4RC1SXz5y8AsIJAILkjtOBpI13Oy/qtsygBaOUewDo+G/Nm1qzZCrBOSuAlsuf1DX5/Olr0JLlpWMxkmgm8a9DcqBT8DKw0BALJF2/W0YYpHSAr9wDWrGzME851kvny7SQbTN8qAKssS/O4pqoqOJQgPwzqX88VA/b/EsDaCRYZAoHkhcycOeyV2JP0YXizchJgNWdjrjQ3tyjAun+UcxuoqIh6kv7M7w8GQxkNEU6fPlPn8AEAWLlHjCtg/DRYYwgEku/erFWGHTsXGx4XIsCano250d7eqQDrnSQ9WE8qdYR6vzI8d6sBsHJmzmqI+UnSHWF5IRBIXktjY3NAPA6TyOhdbprIAmj5e7HKeM4KzQX1EpUnIBkd8mjGO5M/l41KQk6+Rw5WTgCriHjJ22B1IRBIQQm3IJFFlZPgbxagFXESmwG0/LNoXZ8FgKXeq88I11RSScukZ/LnMp3oXlUVLKPvOttwYWGO+It2wdqO5bCyEAikoKW1tb1IFq9oCXyCkmqArYkta38703MhGAwVC8D6aZLnNiDepLvl8xlNdKfv2Yb0ESf8BPVHGJD1ddIeGStQL0AgEIgKLZalYhy7SR9koylhIBtGRChxgsrbSZdkcvy7unrUg/WGjHskyTysJ0g/zp+tr2/IWB4WfUcTwoMTCvLVS0W2oEJtw/uk3yLdQjzjJbCkEAgEEkdqa+uLjTdjL/Fs8SLax5VjBnT1C/AajNNbDJpeb8HTPCZ0/9PuHaisDCq4mkv6UZJjaQlHPyvnlpEwIR1/U9JfO2Af8yMzIMoAqagOMZAWMP0/5tUjPXLZshWas1fW2toOjxUEAoGkIitWrArQolnmLHaNpGeQ3kH6Dw5fMeiiRTpqhA0Ai0iuTJ8BYwOm1UnEw7hjwYu/+PG9+zKPwaJFS9K6oCnNAh3/5ymEhaOJzOJV+gV/nsY/UwBrKXKvkp4rEQcoWbDUL9qn4ImfV763PI4ylvy5l5iCg/T7pJ+k9+yiYxEO1xRnCkhDIBBIQYsY2DIyyiUeC+EO0qJnOemXSK8ivYn0XtKH2AvDZINapcaGncvuWRmgqZHXHbMCNgPabO5Hv4SLeh0g15+HlZF6/nyt1TGvU1VaQFZHR6d6IvbmPJokwoMjwoTy/hdIO2Ie0PQ27BUvaj55rjxCbiOAT6/REdesz4KCIguMWNc+S8OeZj7m2zI+jwu/GW+MbmAWftLjSOeQHky6sXvv6fhl9fUNJQTAi2D5IBAIZAKEDDGHFUurq8MlZNhL6urqS8jIl3HlV01NbdLGmd9Pn9+ceXM4r0coA2pJ25nNnFulkB5O+n9MXEh6LullpNcyq7iEkR6RHXh0sTGcX/05CriGPRJyLdzweEf6OS2LHgEi9V5dM4aiBpvsfoN4w9Lm3aBr3FrCUoM5DJQjjkd3GAzJRoM3HQ+Q/pL0RmHRv4irM0lPJv00c9dxY23SaUw6Sxpi0lXS3Um3pedvYxrHpAE39wCkZ7WMNkulslmaxM8eLBkEAoH4RLq7pwYE5FzNYRwbSjCLZCkbb17ICXgV19U1FKnXxBXO5Vi0aHGAFoAiZhWnzxbTQlDc2NhUTItSCSfR0veU8iLOuR+8OIzGvyRAjakHnjRhplwLSw6fr4As9gLuxddXX98wZk8WHUNzr4IMZFLwXnl5sV7Tlj403uNOdqZjbssJ9zkMrmyBggL9HzFIonm4WaIxoU1JdIPCAIiLT+iZKQmFhjcvxXR/izs7u4r4WeL3c7cG7T+qEgxWB+h9RZxPySFgPpZXpafkt3WQns8Aj75jC1g2CAQC8YHITntQQ37izWCP0bOSEPt9ec8KrgRj5m8y/JOydX4M0HTBp+9nj8jdArR6cxxkfagkn7wgj+XesCdD7suDBlyN5X5oLtavtaJsxoxZ4wF+YQHCgzmanxexHivSY818LOHcxiw9m9sLeJ4nDbx5I3Qn6d9J39XQYmzso+P/jPVqQiAQCGRiAdaRSeSWRLwSap1ckfclHPQy6b8ldPKEJNI/JqG/v5FeN2PGzDEtUBUVw1QUJzis05EcDDfpvfuueHxSAq0aEop5VSqGxhE+jTgJ79fwccPh2pRysTisLOfzTceTlovgakB+flYpLDiMPoZna4Ecg2lTHpVngXOpniL9F+mL4jl8R9sH2ecrlsNY6Vb+utW/cn+j7/mDgkBYNggEApl4gDV9DHk7EY/Kp0FHBxzVHKoTxunRUpD1DQEE/bkcfjJ8REv5uoLB0PpJjNn68nqD47mKjNdjoyCrra2jaPnylaMCYQ6FybnMkoTsXCe3VeDyvhYkdHf3pJQvZwoP9pXxWe3xPLjPS2SMlbn2PT8RsA6ABYFAID4AWLVZYtcelAqqvcdzvm1t7Zp3tC/pwx79GHMxeVrDhu8qJ9XSpcuZYqN0yZJlgWnTpgfmzJnLvyuwOlAaNafTi6ef75fjPs/hKQF9k7gVz9Sp0wJyXiVabUjvOYK9MOMMUfpJ10gC+5fG+2zRPdlGwuxDxiuWSa61q2PexIZi5xkHzxUEAoFMAMA6MAsASxeBJ6uqxl+lZrwmV8ti2J/DC3s8OooXhGV7JntSpALtGkkc9ww5ZuhcGPRdZ85jplR+/juBV3Mox71XHK5rEnA5ZtqKpqbmYq6W9SjOyFQy/jfEy1tsnu/NuFqRf25oaCwC2IJAIJDsAawDsgCw9Ngc1hs3PQGBKg0THm2S3XO9v12CVkYVQ1kGM6meR74Qzar37j563V3A/Jjm69Sp0zVMWCObgDVZAFhf5+8MhcLF06bN0O/nRPm7BOT9hvQgeYaKYf0gEAgkOaC0H+nFkmjez8SfHP7j/9XW1hUl+FxlFgDKgCxcXem4VvYMyLkzv9aLJlQGRnDoeFRz0JiXbROeY83NrWPy+HR1dSvA2V0S2jM1Ry0YvpS/s6amtrihoUm/fwvO1bNeNHlemDx4X1hOCAQCEWltbQsI4zpX0v3Hg/tIk2bf4/CfGNlEAKslC94QzZHaNB33gDmEDKj8u8nDAkiApiP/6qw0bnwmM2DLYKsg+9xey9/JvHNrvb2h9Zn41KPRdsRsfJgkdR9YVwgEktfiNgMmw7wJGb96p8/coEeT5ojjLfoLaZQ4lJOkEywAizMMsHTX/hutfkvDolUk94p5se4HwIKmC2AFgyF+/b+Y96qlKE3z9VMeACcTAOvOGKgaSRRLfz9FPNpr4oR4o62r5Dm6S8OIEAgEktMyd+68gGMMdxBSz0fFKA8Z0sbRyvGjpfZiKK8gALJxEsb/SxkGWAr4ziJNS94HtxVh9msuh2fi0Ryma4D6KwdOPVgreJ5pE+2xSk1NnXpawzJHM5GHZatQn5Hvi+Yozps3X8OEy6uqQkoXMVr+36CxIffx5s4mzVdX1yBJHgKB+NZDVeT8vgcZsWM4T8MAql6HBTsyhjDHktHOpb29IyA9AIcymICrO+MZ6byPNTW1muh+s6kkBFCAjsfTqs9ctGVQQ0PTuDYE3DZKnvGPC+1FJjytFmC9Ss/aNuL5DuiGhisiDVFpJJnjmXNVsPUkM8qTjdo0ni2DQCCQrMrMmbMCHR1dRcZjxEmvR7HBSgCoxhuOY3bog2UXHtcIch9AYZHOJMBSA71zOu9rKFStVA2Xy/EH4cGCjsfTKq/cJ7KB5xY9n+MCWM3NLepB2o7Dd6brQabChJx3OZ+/s6mppch4sHaIfX/lWDy9Fmz1yrP2vjSy3t1seFCVCIFAMi82tCB5QstJf2day6xxdrKRNIMZBh0b6U42QXiwO8Nl9srw/ibp5mm+x+rBOt4kDwNgQcdL0fDn8vKKfWyILw1e6w3puJdkKdH9h/yd2rqoq6tbw5SHmDywSBq8fb3aOkuaYLdxc3exOcXcCQArAQQCGbfMmjU7EApVlxrgUi8kkf0mP6gvAalkujiUdHfcJIY94a5SqocyHXYZkj6Em6TznmulFFM/kL4ki6PbiiRT9xuaH1xjdq70yrN6Pb1uEguhd6Yt34ibNWcw0d02EX+ZXnfi7+QcRc5VlO/flvSnaSI9dfnPotck1/cc6RdsxwbeDC1cuAi5WxAIJOldaXFNTW10l1hVFdxAwn4Pxxq0Vow3j2os2iu5SF9PptmrcEhlmiRSr/9XdG4bpvP+q8Gme808Pw9w9Zfc9/9Ic+k3jcdwAACr4IGVzseBioqqIQmXPSdz5T1+bmmTxH87zgL4NAKsTxrC0Uy3zPmB9fKazchUEyJMZ0jdHqdfPeny7P2a9NOkW5pwYmkoFIaHCwKBrBUGLuz+FmPFeRVf58RS2blFPLxU2Vo8tFLvIdLozjEeuSgZtyJOhKX3vZWlxGFlxt443eNBC5aGP6ro+LvFWdhqDdEjtLABFgPt79jF3pkrTLq7g8yttHpc6LjHmkrCTHvnPuLvs6FCcx7nZQHoWRsYrYCWax8UwMUcfjuazWopd2dYtGgJvFwQSKEIt5PQvncm9Mf5Bu8a7qWBCQ5DKbji3XiVnrfX9SxYcAg36t1dcqKyAQI1DMO72a0zNU50/A3llfPdvswJvWLI5xIo1lytGx3g1ydexv486aMHAGUq38zYDsrzwRuKuTIXdiK9kPT3Mi9m2nBWuuYlHct6WW/IYA6WZ9NuDkuKPSitr29Q7jgm533QJNxHshyWjX6n8S4/zR430kNdG1FX11BCfy/jYhxt/QOBQHJQenqmcR5VSW1tXYlZuIOSS/UvNgYm3DTok9webe1xN+dY8DknIkeUaqI3swgmIiYc8b5WZyWqbExxAZsk18WNkJ+TBUwXjtVyb6bwe+hnLlt/XsZwtTQwZg/kHQIAbX4MgFZu5VRFTL7j8/LMXsCFJTIn+rVPnxD3Xizv/VCT22X8r6fXrdIRIlRPt4Cr+zNYQZgIZK3RkCeDLE1pEDAzUZW38fLgognzMl7vCS0Eb5LOZ4oXOt8RRTLhcE0Jg2Fuxt3U1AzwBYH4RZi/paKiqsQSX0pT1BNiVURT3jBGd8gjYdoXZeVyfv/SnoP19Y2eiwIDR7nGh01rnUgWQdaQ8SS8SNoxnkWMjKuGaffRvDePMVLDvZUZ44W2tNyZEzvT/27y8DJEstRgGZp8E+yIRxh65apVhwXMHIn+3NTUwlQknZadnPMlPcJk0Tw9Gf/T6XVMmwBa7DVszWH4306g/dDnjQFnjWMHSnmDIezuvT7zQtpNmXq/h2I5XZW6OXpZCmeuJF1gn3EJixbztZJ9KXI7Y0AgkDTJ0qXL2StVbKuBamvrA2Jwvy3g5D3jwRhyGNP9vKAqJcOd9Lqd7JrXWRRaWtqGy7TFizQ0gbtWS4rIeSKXt7V1BMT4J7WgaQI/ffY0Z8xGhEfk3hxLRnaEgeU+hvxZ9m6QXsUs2wKwtNrqOFl8PzIg+wPz8yDAVlZB1bB3Q8BAn/FUDghdwI4GPPH4fkrCxD/jYg4Z3+IlS5bqGO/K4UEnTBZx6BpeID0g5hVuTTg32Ttqvn++8NANTbAdiW4yxFP3Q7kHk+je6fPTLhWHuVQEYsHXoNpt82yuEQ/9U6TfZ0Z++vvH7FitXHlogL1esU12JcAXBDKKKz7gtUvhRsfikWI38/+0TYTjmYqU524Jv4KIP5Duydfc0NBUlACQfC8LVYOp7lJ1LF7hsAWfJyfhx1/IhpPavyMgqNdjAVPP3nfpPeubRXBj7s/ojL0u3L8182ZnuadXxQmzzuXzNQvTOgASAGzMXin79z7DsbSDh8dxO/HOHGfGZi/3u0zo90sxIB+eZML/r1jvldubTz7bPNoGgN73Cen9GYlDYzBhXm65hw8qwzvnYnFOk9yDyzyeo1zNvfOaQ0NOascHpK/LmnAqb67I3gQSAWYIpOCEeWro4WgRNmFugvyqhHX6k/Gg5Ak3knpt3iDtEUNf4mH8Ncn7Fy648JlhHDIhxAV8zl1d3YEEc6CM+y26bXlMLs1GZuH9cpzvHpQF6HF5H1eJltCxJ3l9p4agOPGWjbTxpHC44kTSz5De65Gjl8ycS2VuRtII7MZzrFSvy6u9C8/fSxlgk14tnQU0VHdEzOtclwB0V61vxrktzrnpOD9L33mAeX+j8TbZ3EpehKcmskFcrStJ8pE43+mLNAK57n9wOF1CpkVqJxwOucECAvHxmPx7xQN2p6wt9elqUA+BZNvzVMQ5OLxYhcM1vGDtyLtFce9fRHqPxNrHsmgXiq6RJq5f5XvqVT1o8i6uyYF7FXFIE3nxPYqvgZNa5To6dPGrqalTwLOIFwoJh5wTDIbKxHvH4eC/jQIIBjQBmr9DvaFc7EB/P9cQKP7QcnkJ/cMN7L2wIUbz/z1J/x3nu1+R8fiCgL8fy6KeEICmsCkYDfCkOg8SnY8tLGBOqUtIT+E5Kc/wmjjHuZrv09Sp0wM2d0bu3RfZBnDZfmdnd8CMu3oOGRTVu3OdPl8krW687oEd7y+YcZrCAETG+FYNKdErhxFn2co2zmUi/WsK99ovAOsv9LqVpk3MmRNrMF9REfXq3mbIkOFdTU55jt1OegbpbM7rJNswiSuWlTk/E+slbwBDoTDnz02iebkZvX5CHA0LhYfxBLEnZ3Meofx+JFfJcg4iHWNTtmtagAFZL1optT5XUNANqpabeInkFjxA+gTvyoRc8XFJ0L5dqmi+Qnq05AQwcDmIdBcuZZfKli1kkDbjBp588+PoZH4Ptzrhz9Dv/LmtxQAdIAvNdNKlnPMik+5ybsJL+kfu8G7zWZwQndtSZTDOThpM3IkT3XkeVMgiMOLhaW1t17DaYicHK5IDO0+tDLtNQROHNUwPx3+LgRum0pg7d7j/Gs/110xSf7xcsKe5gtR6/+hvnzXJ7oPmPh8uXpPSJAyinsf/mT5xnfy3FStWjQBj06fPtDk8CzScHac/JdMNXKYeCQfUfUwM7GsJvCru2N/Pz6/L+s+9HunvcxJ4aTQ8+gB9dttYiLpxxHWpB5K9gpyQLOPG+TF7JJPbJNekHtjfyuctS/+rTDvivH+6x5jb61bQcb2EpEuctIK7jDeVi0L2kf+d7dGSKeJzD86IHCxemD3u61USJuyDPR2zp3fQKyxp1rlXhaOQK5avlTX8LFkrz5CNHHvjb5VQ86txjuO1Xo62Zq6Tt2bmN//+C057oGdis7wHU1xKK5VRfMM/cJI5+53WDoMJbuKgeW+/0T4TShvwSOhO1E9u0BzPHsfqwCjniLyUjHixogbynAQgXb0/j09AFeE4aSii1/Yj8SpsxF4jWTSU1PVDuf7zDW0DE0a+7xH6WMdDZkNG9DN7nf7uAIiIocM4Ru5nqQUU0jT7K1L2/xPekOgxmb+Hft+Xf+bG34me/46OziIBJJvEqrxixJRyrj+m3ydr2JeTdL1tSCgKlNrbO3jH+7M4YIPB3mECpCYlmDdFuigLC7gmRffKa4++1y0mcIWZ97ldElfryjUo8G+WBeUxpfHg1lNiDwPcD7C9vZPP435mYHcSshX4nuXs9E93xt6d630yZ26Xc1hl8nT6zedeIi03QPnDHLJhWkXI19AmYLJY72tbW7tuAH5knifY08xWRbpr88Aoa2Y2io4GtdBD8AZ75z5Fc2dLY5dyLyfN8hVJLsDjpty8z0eJklB/P8SDph9Yjw21qLCHRuZZKMcWCQVYN8r58wL9QwdgaWgjHAsL1pTKAs60G78xmxQXZHykCcxy7HlSBr7Go72KhlAO0bCrKR6YRfq2qUjj83qLvnfLtZWL3rlkHFYUz+L1XPFE17WhyS2aJF7gt0n3l5BnqRP2jQIJvkcCPrgystLx6HxCrlUX3Kfo2BspgS577iR37C2+rxJy/pd6RHVR1lwnDt/J/Z+uIEz+zhvDc8R7vV88u8f0CQrG+JoF6Kw2vGV3sOdcKn4twLvTeLC8Fq+n6VomC4Dga7rKoxBh0Izpl8w4MD/cXY7XUj0P6hk+LkeeHXdxvkTuSZndyOv9N/N9EPYUgHAt/hj2mvHGcWsF5r4HVrRzKIq5z3uKJE9heDEBoIKO8cHQ5G5eYHeVh2GEh0PbUEgyca54EzVE+DOt9nEqCLVB7yV0/crmvrv1IIk36FbHzc6fbRHPC3ufLjQ0AC4Y6xfg9ZACHQM2jjfhvIjTtuikxYvjt/7gY4knqc8cg8HU/Bgo6yriykdtPKxiyCJv9wAQakPuo+vZwKm4i+bi1Nc3FmmI0ySFr3GOo2zoSxWwiO1SZvKtSNdn75Ic5yYDQhXw3uy1+9UekvT/3SS8aPN/tDL2L9ryib9H3n9yHCLYiAOgqjWMyyBLQZPSbXBfPDnuplJ1qKHnTxqvl57P00rVIAtNXw7kMEYMmL5dnoFSA9xLzcbgLQ+eLijWE/tzn8l7TNpjPSFiqjc+aR7WfoAqaDpDhfHY3Ds6unRxOyJHwLwuuH9UglAGLgKqPpL3PK4hOPn/OeLN4b9PM89eseQmcjL5gbLwTJZjx8t3inoG5b5eoDmR8j3HeoAre5wb6TvL4oCrKQboublBj3CoUrw9xU5el4KBi0epUuRz+LO5dq4c4/zJDebMmatzoMZQGHixaytJZZ0k/RevzetrC9TXNxTH8ezY4zwQq1xrHp6PWhGoYVzHs2TH/H7aRe9hroGB81PGy59oYThGPlMmwIiBxCz5Xs4b/T43B+f8EzqerTa9RuaWpmfcQLqd/O8Gnz8zbm7hL9x8QVNEcHQcegooNFETb50zyzW30hfAqqGhUY3KliZsgbYc0HQbV/XoLOP51t3dk8iD0uokPvpxHupOnEGR9pHjYotr5Bn6Hf1/Fwf4XG/L7sX7xOGiPS3hLH9OPEir4+SkWW/U85rHIt8xJ8at5tluRO/nTzlR3OO+72ryF+PlJp4k3qrStcBkeHHkarrnE7Q6sb9/bm2YsiuwcOEh6oHa1gDLeCSTOpe+Wy69HhsamgIeSdJeeX32mu6Q8Gax8jAZHqpeN/m2fGQLKK6u3EJDEzFy4IqhUbxY+vOPnPvONBpvyLz5wAD3nfR6qqtrGISfZXp7HqA5b1xpmADc+SXXR/92pQD0UgFZxfKMbCC5fF6hcCg0qcIj83zsKxuoiatKbGxsLja71qdMbyxMbmgmHgKdW01iXBP1JtxSwiB+rozShOQfyK5pksd17Md5NPLzHc6Cr0ml3/L4HIOsH5nwYZ9zL/W7L3NIJR8xzb7jVXZeHgqFSxwP1IZSVRsvkVW/7/tKFbE2NFin3u+bTFl9ZBRj+FKccW+T3LY1o/Cs6fWp9yd6DosXDzOi7yeVfInoJPo1CZ0BjM5H8SS95BQUeHlkv0xANWC8WM95AJ2IISb9n3qwtEEwPwuO11O9hX+lY368ubmFc+F2dfvd0T1S0H6aT8OD7jPLgHW2s+7o/Z5mqogHsP5Ax5mnpfPtMzY/NMtcT1U6yQ/mKhkHXEGhmUp6H5SwyP62YisB0DrVp15VN6/pbs4ncs79AqFrqHIIVSNO+KnB69pnzZpjubSekoV4tdmpPWaOzZ6MnySourLneqRbISghykSeJ805u1MT3rnyUHeI4r16MYlGvZZKodZJU9hActYSgTS3evI6zQVraWkLcIWiUiKYBH9PsCf/e1cBvybNl8caj98TpwnysEdW5uVsM95n25wtQyJ6vc73WBVlp/W27SghY70nIwCWvIepb5gwdktnfn3Nh+DKC8j+gcdWGee5RZic/7aSkwevFTRThRQnWo9pVmTGjFm66+KQxi1iqHoxONAsgSx14+5i+aES5AduLUZ6yGcLyojFJNb0NeZxUi+SvHbIgnKzB2P9E0pVYRZODlExa/hJ3KPN3AfmiLvQcMUcbz7zBeO5isdQrp4Ul59pWhKM2Zp/xE2Ct5WFssjkXl0+ivfK6559Xjwaykm1lXDoxfMceXULeF8BKpMUci83OZ/lEmYdSuRN0+pFBqgKsJhRnPOjjF2MJJjHDCr3M/fyIfFuMQfgIodDjHm9rrKpGd3d0YKik02V4IBJpt9ewsX389/s/DJ8a4M+fR4GZTPQrhx4pqqTKym/Z55n0ORAM7XOvKUV1nV1DSXZDg1+2jEimODQbBhg5VZ5TvOUuEQ+CWLH+vKR7UP8tLB4kf1prtAZxsMx6ITrFnhc52L1vMhiy16wE+geFRkm9904EV7ez4zJ/xmlOa5+759INzZ8UhsImBuN5LXf5JZtJ7lXJaY1y18cgJdMcuqVjqduR8lpiySZT6ShulP0eggcqW1bWZ64gbh7rd9xqjDbPADAOiFiueYrmaZD8+f0/nBlE3toDCEjH+deBViGeHYvCR9az9xdStHh0BX4kbtvRJ9GudbPKd2HFrDI9ZzrsQhi3YFmstL7V/Scbp1MxCQttPam3cKvTGgQkxya8SREAyzOI90q2XlL77VGeq7krAz4PRFeOYskR6eqfCSD+211dfUlIxnGezjn5vMOWBowXjFmxp+pfQc1wVoqzz4qX7fJs0uXcZRzX69MsgJNjdUvuY2J5DaUmcrPZDmL7Hf8xKHp2LV8LaFmJInj6DX9nu2ZzQ0rj7HoJwoRehUrNBtv4Y4S9nXtY8TJK1JG8gbjbf2lAVVuuPRxS9xqQbUc50MZ57O0QlBy0np9vmlSsHmOV99R+vuZDtcXgBU0W14sfv1ksp0uxiWm4meq2Z2ByA2ayXDBGjG+3C4p5FIzpEiCa4HWyTmQv6ELz/c4X4nznzQvJxSqHn7YtUUNc9Gxx8sBWJY/6DldzC09geRRcd7Rsx6klBGT+7aduX8V5ck3TlaAdZOGthQccuVkCi1N7Pf80l47/b5HEl6jeCCrxSGq5N58rycBsGzD5fvEq6cEoofKda1xNgk6FlzFuKcHVcVDCaoXX9JwptvCh0MZco9/Kr9/ytkA+zGJXQH9r90cMQNWORXl82Z+9CXhMYVC06FKZXOVECtn1oOl1TaM6GTXuxqTHJoBb9WAWZBODIdr01ouu2TJsoAh77zfSUj2W8KvgoDb6GEfJtnkhs/qUS4XEk/uz8i7fQ+iTgU4dyiQMKzjnLu0jeUUktCSNiDWljan6fMvn7svhevQKsKrpYptAxMefCAFT7j9/89iTX6XWYLPVD3qGiY80VnUtzdJ95Ek5yyHFI8292dvA5a0BQ8Tl35cKSVsdZ+2AorDQzYCYHEboPJYD9bdLF2B+e7/M0A54tPnXIFSRwrrD1cHn+FRDQqwBc3EPNWQ+8+1p6F6zDMipoz5RI/dGRQ6XnZdTdK9x+7uMy2cEO6xIPkt8Vf/9iDnPzInGHtx5H9/M9fyGceDpR6TNzmUpD0ctQmyLNRaCczN1Q9z7s0S5krSMJoJs8YLJyYCIV8QgLWhSd5+J8nwoHv86/gY8+cvVJu0s4CcgRTGTtnsf66NnYPBavUkPZME+ec6ZKrMW2baDR0jIGs3+b1KOKrWyAZ1uiVeVU4twwfmAodHTMucz4nx/wf/zB4spuYw4zLo8w3DnfG8Vkk+s1xFeHWSvGlQ6HgIoXk92t620MqIGJbjo4wHCwMBHQ+o0mqst3Rxt8SPmRZd3MpjzXn/63M+nXjnM6B97jiZ3/EI6eJ/m7KAO1QrzGP3mIfXa0iqtbY3OV7qMXssydCgBXhvqKeNAIICrDNNeDCS4vV/LdaPcqpWNX+sPNZrMBXSTH0fJ4kfLMfREN+tHtcyGn3Eh+oNI/BTQte2vnik3nDev1rs5wxLPUDzXu/v4XGoRb5r2uHc6IyZ34GFLdz4VJo3SAyu3bZR6HkLTZcH6xYt7pk5c3YggwCrUY3yDIebCAMCTbVSTv/HC9nWEp4qWm8CpLq6Rha2aHLyvcab5XfjbO/pSfJsThagETE7sCd0B7Z06fKAgJxi09rlHx55W9bbcCWTiY6yyHFIbBXnK5A+KhxRH8Y4n6JG6knST/B7V606NEAAg9u93OhRiTyaKjA6MgaQtZdjlIbiXidMmIyuFpDX7ST/n+okpH8gQOweSbrupHuzSYI0irkeXv7h7xSANT+WG9haZCozi50+iEMG9DePMd/MDwSO2guxITYHDkvrQtXR0WWJXn/vUJpEEEqEjmVDIM/wxWJrMkvV4FQR/hoEo9BUuJ4MB9OLHHpyG7ZOfOun4bykawzpZiRHFjFeyLU9CrOyvy1/58Vm87q6Bu6zZ5OidSEvZ0AUxxuiHof2OKDqdNKvS6jv4xK2mezVSkcbdWuzbnrfPsKLNSDhy7clXPiW/P6meH7+J/qaKFfsvcJ8XyPZyavWFyoLBnYvm/fq5980x9bvelv+F+UF06bPCTjVNubNQHmMKZ8bSnM/wCtoDm8j5xCora0vMmzwf/egv7AAa7oNDZpr0WNcJuP6kfJ+TZlSydd5d3l8Yle/zUsF6U/R6z5C9VOUuc1SOMDeQ+OV/hvAFnQcVdz87C2XCF7mubC0Az196QrJX+jHZIUmAFaDJp/kh2T8NrY7fb9J+dpedF8fhXzTT55Bm2h9oL0eWsgDGoKS53cSjcdkc73Mo3Sfx2ZJwRYzhe+ox3Lu1atiiPoUjPJY87EMmSXnCF3EVBO26s8cYxNp2Mxhr43p5w0ZRHAiPs8R3dSNRdraOthTVsy9D+lYDEw2pOPxd2xaUVHFnr6t3AbipnHwaZIv9T5fiyXqlPukIbw3FCgpE7y5tvONF8uLtLXdNOzmxtVb2kbWChQcgHdvDoErvc5f6RxaufLQrIX/W1pai2hjoeO5mL2oZgwHAbagSVDL3Mv0KVnhwfJYjC4E2Si0PAE7eXmsJ+ACWaBL18sBMSXzX46TbOzXe65/45DgVG4ELfkp7C3iljmPyvP6ec2pKo81mf6547Gz3qvj4jz7m5Z7M6ZHPEDay8q/xTxHy5evVE8hh/XuERAypPxPyjyuyuehKu/9mp5HKBTWY+0TDteMeD+HJu1x9PiGZ4pzSBttJV5VVUg3kE+O0ronYna4n7U5qlr1ymFECS3a4+grM8WHzf3cX7xu/P8viWdxF9EQ51/lSL9Xd/78mAH0WKlV0iUEsm0FLOfF/Uvup9/BKnTiOLD6lAMrq2uXhhq4bJxO4AdOuxxM1AImAzUhkWt5x62L6no5JpWVQQVZp5TnRjsOF9j0mpBsRLwoa+RZvdnJN/qmAJdexz3+Mn1+D+0d6ACsXcuTaEljEtwXSUJ3iVJKyHGuS5IHy17fOR6A78AU2nYpYS0D0QPEprm97p4TD/1oie38fV/SxHbbWYB+5zyzbzn3Vp+RP9tKWcn5WmPCvXJvhylE+pJItvcbuLpWc/dc7+cEe6nLtO2b5NO9LGALDPFYyyytzXW2ECrbu/yAGCR2v38fIKugvVUaCuBwUrSB7YIFCwOHHLI4sF4Oi1bccX5OjiS9DyUJeJ63/ENcvWmub9AAsZUJFqlUANar1oMldkPv7Vkp9iFk/bLJV9Iqwj09wnGjEbgO0zPMm7cgIMa0xKFpiIziwVoHYDmUC42SczgMfOV6L+D5ZTjZHja0EJEctgd6fd/JhY0VjVOprGccMj6f8/SMpxBgq/DWMwVXvy+XFladnd0Tt46Z9hLneVQiYWLmr7fKehy+RWO/mcsQng/C+Tsyv48r9zfre6qkn9/SsmMeO06cFsPynrxeTgvNRvE9fFUbJbEADZqihg5hHy+2CaPC5/V+EvQK9juO9wB8yVbW2eqgcz0qSnW8n0wSYHGl5Gdi+VsNxSPzVYfDjUcpaauc33Bo0gDcd8VblYt2c9gmyNz5rle+nZ9l5cpVAbVdEpa9vDzaG7HSpsAAbOU5uJJnnnuuRkmAu7t7Jn4Om1BDV/naHl79mJB56a1aLUb0KdJ5xqOZV8DKSRQvNZ6s1TmcGGtDIO8oTYBc206kPxUAcKJunGSXX6KeIue5f360UJwYrH8qz1RXV3eRU8XIZfV/S6LZs/37kjhcSO8l4QGy/DaLXc+T9hvjKmmn+mwoDn/bm5qs3tS0NmGewwpclRgKhW0+FhO5vsQViJI/xoSvGznXnxdhFUs9kWuic1N+Ppj0BjMX1iAxPq+LsX5sPdm+kUWLFmteFrMM/8gjQRSTMYdzq8wEvI5et9NyclowA+sVgNA1l3rkyuSqkdWdGhOGHiQ8UpOcFIBJ9fWNCoaWaCWNsxB9e5T5owDrPs3HmzZtemAtCBlOBr8xiTwse5+rPVIWthH+rdE8YZp/xbxcFbFqw/aitccZLvG/dBQPXUS8G/8hY1zKx5g7d76G+5iuol0bWtO5ra/30tw7bRd0ixMajOQwuPqxVkXmy3OvVaUyVvWkt5vxQl/E3Ce77jd5og2a9uTj5ODhHSBXMP0zDg8MBjk3Jt9qMSbMJ7TKhIWL1ytAMQ2KT3fyDXNxTg8YBv1DnCKWIqk65HYmAwJ+lnsArKrRvGXanFp2hWVxPIOfcXLAEs1LPp9JHgB4YymsSMTNZ9nEr1AONpuArRxN5bF2QO+Nwp/E53qZbiyVKFcqAN+Qc2HQdyr9vI1z7/YyHE35AK7u8KKqyCexdCcSrfmLyT1GX8TcIrvuk2fvv+pRVpLfnJCmphbdnVbwLg9AK2eA1aDDX7OXWRCL1itwMXk1X8vhHeyIxtpKjaBeSqY3MM+rLhyParm9AxS+F8eAqceTqQfmelWTVleHlbiYGfT/MkqYUP/2qzlz5gXihHYOHaXJsaVKmKPAyD1OQ0OTqSSs8OIb0/DgC8yvVVNTV+SQuJ5qEu6j90+pIvS+eIQfc3H+DAhL/6+Z5oLH00/VgpmS+vrG4UbrbW0dvBnhPpD/lvFd43g+sc75JwzYr88iV04rN1tNTW3urmtOM9b7PIAW1D9hQF2ETlcDQga04EFVggX4ohzfuXp5ZryaN6sb/TyXD4a5n+jvP3N4ryzA+oHN02RpaWkLcIm8U6l5Wpzzcn9f5Y6HMrAzpYQknQ94eMJs7tX12g9RgdHUqWtDl7qR4Bw14bnyAkJv2z6NBLz1M+1Osn2y9zgHwVV0obqfyXm59U1tbV2g0GzBtGkzAiZ6w7Qcn+T8RpkDSI73SZsmmavft9Qoy5atyJ/52tgYa0PC+QicROtBSQ+0P0GcSabSq1XHa/HipQFAqfiiSf10z67OcyMacebJNy0YMV6bak56d4g8L5WQslIzqPdvpZJzcgK96b/3K4eywQUj/9ZmzCZsM3wuwth+pocXK2LO/3mt4NMcKUlAX2UZ7rWpKwMmBZjG6/Q5xxOn753qAa7yci7IPX6ErneDlpbWQHNzS8Hbi66uHuvF5JD1V836NhDH/kIz26KJKwL3K8gJKcmg18ZxlwNwZZj1W+77b3gcAJlSl3BYm0RPubaQ5k2MUiCWEOolyi0U55n/iglJnibJ7gq8tuNQpFNRZ8HRAU7eFbOfT9NQjRzjY6R/dDzltq/YIvFSrS/v7+HKPgl1/VZzpdTDZvIOCQhWFzs5eeo5Yzt2v9PPMZKn3m71BjyhgLSjoxObsQRC92kr8Z54ASyscZnZCN6oVAuQmHuVEf855d69DTEJ09S+xvx8JWZdWjcLP8zz+eoV1mLgwg2bu7q7e4oS3JtK0rucfCYN1/1QF2ptZ8Iklc53P2vDcXpMc7zzY96scIksaNxh4iIBAr3y+sfy8lg/RPreSXKMUzzys4aETmFVTU1dSYJFc0/J41hdnrhtUV6FW6RyktvMRPPxWlvbAa5SsxN7CInlUIKQOHRsc1Sf9R7MtMST8ABhfx6t5Bqa2sLICZgn2Nw4SFrn7Q0JQrH5PK/GEpq2oKZXOwAkeZ+DHoDmm/K/uJVAmnPBjac5dODR4BqbufjjrIn9XLC0OYdFCyGhPcP2gln+nxllMwxNTrUw6+R8rmRNQ9ilVvMZtuYy8VHKrqHJhXQ4NHIo39dcb1+TA0bzujz3ZmTErS+vb1nyWg+vEduEe709K8MViy3z5s2PV2W4H3sPTI4WFrPUwBVXTW62aNES2JD0242vlq/bCxRzM/l5qu29psj9BMiKJ6aKp1wm2wA8WWMCVr3axsMmYEIyJ9JA9krDbwSQlWIptUkof14IQSMCirx69bm8VNEEbFO48aQhVh0AX1Hq4Ep+53u5iXJ9QdIrjY3N6liYL5Ww+ZzPl3GAxVWtmFVxRCuDyChuzmXezo4Tmlye1dmYSRMjra1tzI1znuSrwEiOo31FHECVbJ7YoEc3CYxD6uHf58gmT7KM95CMe7QONbYDG7UkAJZwz7Xw/aOfAbCSnGifNqR9mGCjU/7/RBmHvfrHQbIjDQ2NDLJO9AhHYd5Cc8muPDZr1pzAggWHwJZkSfh+82t7ewd7wy8xaTJIO4iv6sGajxmUhGiiGt2wZrlxAFjeRnCNLOIPao/AQw5ZBGPonw3CMq1mg3GE5liKwV14gidyDezUNXB75hyDHUmo2gLrUMycJMTkYR1I+goqCtcxgraXUh3fKyU8hPgOZLWYnDiEqaA+p2KI2pVv4Mn1nR1Z7oS+AbTWBVifxUxJQrQFAfPfGA6dfhjAEQ/XMXq/4vVng0ysaGiFxmofD+oRGEeoHzdti/Hk+ktqa+u02wHnJd9j+h7CjowEWCswW1KQUCjM7S/OM13LIwVo/Nxw4PfpfpTaBw/iXzH8S5Np7G6Hqx/qQ/vSJ3Qu++OJ9a9wAY0AraUGYGHDtjbJvROzJElpaWnVyTRXbt7qAptEeq2rZVH+Cy3Su/I94Sa7mCE56+r/vIznahhGqE96tt1Dr5vg6fS/qO2XDdud0uapkL1ZERPdim4Q0Es3CeFKLFmQKkwe1kCB5llNjXn0qlEqncPS0TGcuFoprNg29A2gBZ2IjdsReDJzcX1s0rAh52a9X8DeLO0/+Fst9KqtrQPASmIx0vyVLblnmSl5j+S54Rs0r1/S+7Fy5aGYNHkgS5cuDxhv1sXIp4BOkNfqz6Q78zwMh2tgW3JQaByVkmd9Gss7CpQWRikaPokZkaIoczCXXwaDoSGnuWo+lkcrGr9ZG+iq1wOSd6FCdfVzpexj4MyCZoGVXefXMjyBeWVLtFH6TNL/yRqS7yTHEXON/6Br3o3vATjbUpDW1nYbJnw+z8KENoF9QBbYv9JE+Rhfc1NTM4BVAYg23mZS3Tj9yAASoOPdvGmV1ZXs7eD51tnZjYUoj6SxsSmg5NI0ztck4DfLp7WzV9bNLr5utMgZc7y5sZjDKaaaMG/agchu4yXSIF9rdXUYwKrAxPaKpHlwhcyJSAptYqBQzw4PsgDdT7o3zy8kAOd92LBIXreWDbtXG6l8ao9zFEY9DaEUeg1xXyzH/ZmzPQPlOt4inc3X19zcAmBV4MLtMfiVDAfnVNxqmhwDaEHHsnF7hrSG5xTNJVQeF5CoN0eiPy/E2bTl6vzuE2fL4eKAwaZhnKhcY8zznWauubDgeAEr7pj+Kb4mcFlBXJk3b4E2PJ9siHYBtKDJ2pf/kLbxHAqHa0rwRBWu0PqiaTZNXJGeg0Ar4lEx+BppPV9XMBjC+pkOoRupIGsa6QdOPlbEx3Fiu6P8QOn8m5paMDEgCWXu3HmB+vrGAAGtDbnwwQFaaP6KxPXhfL0pU6Lezn+S1oqdLMMTBFEhoK1A62DSJz02bX4DXSOAVWyOR8/5pNj62QyvVbqlsrJKJ8k2pD+VEIrbmyniQ1f9/7QFBV0DgBUkVQ9uwFQKXWx2coMAWAWbXxW1eWIDf0W6J4AVZDTRtmoEuMporlzPDP4etmSi1lF3fqtHlrsM/B+fd319Q6CnZyrAVYYXnDIxJlzi/nuTq9I/QZNkREWgQduPkJbzuba1tSPHCpKOnWipzP3DSF80mwx4tPLfW2U3bfzzJaFQdYksPNi4QVJxVgRo7mh+8wGkv+TUlSyupREPyoXoxlHO4V3SG0ij9AvV1WFsHLItNEFKY6/hEhqIk0mf5cGRARqQSZIJZB5xNDoZpW3B69w/saamFjxWkIwJGRz1aO1M+nNbOeZTlz90HJ5w4616jNuH8dhXVQWx6EDS4bAobm/vtNWHXyV9mG0JJ5MbD1efrKuDSaQpuGvkoFmT+9Q7ZY7/vNixZTSvNVJVRnMe66cfxLrGOQ+B9ELSP7F7kcs5zUAqoWOvvPbJoMdTfW+v9U7x8aRMlFm4f0d6Ik2GjWWSlqAcGpINqa9vKDLzfgkvwFJhM+jkKAJs5V5Hh36zmz+b7MoG1osJgWTAs1Vk5xfnbjHPlICunwrAf4fnJa9/uray8t/0Z10fWWXdfV+qWn9Leq04RNpJNzLfVVxXV4+iDL9LOFxbTINa6qB0zttqJF3FLWhIL+MWPKS/kEF/gPQh5g6Rn/9IejfpLULc9jVu1Eu6kLSaJtNWzvFL6e9A25CJNI5R4xQMVhfLXH1WwFY/PFs5A6qUPJHH6wrSvXhMm5qai7u6QA4Kya7U1NRykU0JvcYF9fT/jWj924JJsiU/enP6ef0EHrMSTvPhOT1z5izM6XwQdjUSOi4WIFTW0dGVEhiqra3jMGQZh2ZIi8EaC/HzXNf8CuHUOsp4tiLidY0AcPmiwrjf8Pq8Q3o+2ai9dSw7O7uxaYP4Vmi+BmbOnB1Ytmx5IBgMFTHRKUdvLHkyBAKB5KVwPoOCLTGI7Jb/Hi/0pjNCLwBX1vKpGFCt0TQD8ZQvJ93M7PCRsA6BQCAQSC6JJbalhXxz4ZX7LoenZMHXvMK+DFcnRuLoYBI64KGjfcb9nkxe0wgwpb1GJfT3R0lT2F3HgSuMkcwLgUAgEEieSE/PtEAotLb3ZTAY4vD5XqQLBHS9psmrpkCkV0BDL/0tqvZvhpMu+hktu46XAOtRgNIrnQ7eFP64l4WZXPU50iccfVqqkPQ9L0g17xuk78m5Deq5jPzukUm6qnruHmDJ67rX2Eo/AaoM+u4kPZrJHen9k/U+19XVB5RhGwKBQCAQSAHIIYcsXid3gtutEEjYgnSngw46eO/DDz+i9owzzpx17rnnHcJ6xhlnzF6xYmX1AQccuBcBjF3pfdtzEQi3+iFgsREBmUm50NKiubmVK6aYgHFDOu9N6XVL0u3o550OPrh8j46OzoNOPfXUrvPOi133OeecO/9zn/tcS0ND4370vl25kIaudYN17+ki5KNAIBAIBALxFgJMgba29rhgobu7hyuO8g5MEGgKNDQ0BQKBIs9r22mnnQPV1WGAKAgEAoFAIBAIBALJpPw/xSiSWMXHqOMAAAAASUVORK5CYII=;opacity=10;" vertex="1" parent="1">
          <mxGeometry x="330" y="221.77" width="179.5" height="156.47" as="geometry" />
        </mxCell>
        <mxCell id="MM5ZZuNbigQMfyVgYU0d-11" value="High Risk and Active" style="rounded=0;whiteSpace=wrap;html=1;fillColor=#FFFF99;strokeColor=#d6b656;fontSize=16;opacity=30;" parent="1" vertex="1">
          <mxGeometry x="520" y="200" width="200" height="200" as="geometry" />
        </mxCell>
        <mxCell id="MM5ZZuNbigQMfyVgYU0d-12" value="Low Risk and Active" style="rounded=0;whiteSpace=wrap;html=1;fillColor=#66FF66;strokeColor=#82B366;fontSize=16;opacity=30;" parent="1" vertex="1">
          <mxGeometry x="520" y="400" width="200" height="200" as="geometry" />
        </mxCell>
        <mxCell id="MM5ZZuNbigQMfyVgYU0d-14" value="Low Risk and Passive" style="rounded=0;whiteSpace=wrap;html=1;fillColor=#FFFF99;strokeColor=#D6B656;fontSize=16;opacity=30;" parent="1" vertex="1">
          <mxGeometry x="320" y="400" width="200" height="200" as="geometry" />
        </mxCell>
        <mxCell id="MM5ZZuNbigQMfyVgYU0d-13" value="High Risk and Passive" style="rounded=0;whiteSpace=wrap;html=1;fillColor=#FF6666;strokeColor=#b85450;fontSize=16;opacity=30;" parent="1" vertex="1">
          <mxGeometry x="320" y="200.01000000000002" width="200" height="200" as="geometry" />
        </mxCell>
        <mxCell id="MM5ZZuNbigQMfyVgYU0d-3" value="" style="endArrow=classic;startArrow=classic;html=1;rounded=0;strokeWidth=3;" parent="1" edge="1">
          <mxGeometry width="50" height="50" relative="1" as="geometry">
            <mxPoint x="520" y="600" as="sourcePoint" />
            <mxPoint x="520" y="200" as="targetPoint" />
          </mxGeometry>
        </mxCell>
        <mxCell id="MM5ZZuNbigQMfyVgYU0d-4" value="" style="endArrow=classic;startArrow=classic;html=1;rounded=0;strokeWidth=3;" parent="1" edge="1">
          <mxGeometry width="50" height="50" relative="1" as="geometry">
            <mxPoint x="720" y="400" as="sourcePoint" />
            <mxPoint x="320" y="400" as="targetPoint" />
          </mxGeometry>
        </mxCell>
        <mxCell id="MM5ZZuNbigQMfyVgYU0d-5" value="Active" style="text;html=1;strokeColor=none;fillColor=none;align=right;verticalAlign=middle;whiteSpace=wrap;rounded=0;fontStyle=1;fontSize=16;" parent="1" vertex="1">
          <mxGeometry x="680" y="400" width="60" height="30" as="geometry" />
        </mxCell>
        <mxCell id="MM5ZZuNbigQMfyVgYU0d-6" value="Passive" style="text;html=1;strokeColor=none;fillColor=none;align=center;verticalAlign=middle;whiteSpace=wrap;rounded=0;fontStyle=1;fontSize=16;" parent="1" vertex="1">
          <mxGeometry x="300" y="400" width="60" height="30" as="geometry" />
        </mxCell>
        <mxCell id="MM5ZZuNbigQMfyVgYU0d-7" value="Risk" style="text;html=1;strokeColor=none;fillColor=none;align=left;verticalAlign=middle;whiteSpace=wrap;rounded=0;rotation=-90;fontSize=16;fontStyle=1" parent="1" vertex="1">
          <mxGeometry x="509.5" y="351.5" width="42" height="30" as="geometry" />
        </mxCell>
        <mxCell id="MM5ZZuNbigQMfyVgYU0d-8" value="Management" style="text;html=1;strokeColor=none;fillColor=none;align=right;verticalAlign=middle;whiteSpace=wrap;rounded=0;fontSize=16;fontStyle=1" parent="1" vertex="1">
          <mxGeometry x="420" y="400" width="90" height="30" as="geometry" />
        </mxCell>
        <mxCell id="MM5ZZuNbigQMfyVgYU0d-9" value="High" style="text;html=1;strokeColor=none;fillColor=none;align=right;verticalAlign=middle;whiteSpace=wrap;rounded=0;rotation=-90;fontStyle=1;fontSize=16;" parent="1" vertex="1">
          <mxGeometry x="500" y="200" width="70" height="40" as="geometry" />
        </mxCell>
        <mxCell id="MM5ZZuNbigQMfyVgYU0d-10" value="Low" style="text;html=1;strokeColor=none;fillColor=none;align=left;verticalAlign=middle;whiteSpace=wrap;rounded=0;rotation=-90;fontStyle=1;fontSize=16;" parent="1" vertex="1">
          <mxGeometry x="500" y="570" width="70" height="40" as="geometry" />
        </mxCell>
        <mxCell id="Ovqw94P8crnnViNfrfdU-5" value="" style="shape=image;aspect=fixed;image=data:image/png,iVBORw0KGgoAAAANSUhEUgAAAlgAAAILCAYAAAA0fOKFAAAAw3pUWHRSYXcgcHJvZmlsZSB0eXBlIGV4aWYAAHjabVBbDgMhCPznFD0CL108jtvdJr1Bj18UNqltJ3FARkcEztfzAbcBJgUtm9VWKzq0aePuiWGgTybUyRPFkLO61AH3FNhL4lFCsBqRrnpeuCJ1z8qHkd1T2FehaUS2L6N4FmV0NPIjjVoaCYdAadDjW1ibbZ9f2E9cYbFgkNra9s9+8+kdxd8R5lNI0FmkRgMyloJ0T8pk9oMkGrlzmUcpBvJvThfgDTJrWUppTrUVAAABg2lDQ1BJQ0MgcHJvZmlsZQAAeJx9kT1Iw0AcxV9Ti6IVBzuIOGSoThZERTpqFYpQIdQKrTqYXPoFTRqSFBdHwbXg4Mdi1cHFWVcHV0EQ/ABxdnBSdJES/5cUWsR4cNyPd/ced+8AoVFhmtU1AWi6baaTCTGbWxW7XxGCgCDi6JOZZcxJUgq+4+seAb7exXiW/7k/R7+atxgQEIlnmWHaxBvEM5u2wXmfOMJKskp8Tjxu0gWJH7muePzGueiywDMjZiY9TxwhFosdrHQwK5ka8TRxVNV0yheyHquctzhrlRpr3ZO/MJzXV5a5TnMESSxiCRJEKKihjApsxGjVSbGQpv2Ej3/Y9UvkUshVBiPHAqrQILt+8D/43a1VmJr0ksIJIPTiOB+jQPcu0Kw7zvex4zRPgOAzcKW3/dUGEP8kvd7WokfAwDZwcd3WlD3gcgcYejJkU3alIE2hUADez+ibcsDgLdC75vXW2sfpA5ChrlI3wMEhMFak7HWfd/d09vbvmVZ/PzSEco6OKj2zAAANeGlUWHRYTUw6Y29tLmFkb2JlLnhtcAAAAAAAPD94cGFja2V0IGJlZ2luPSLvu78iIGlkPSJXNU0wTXBDZWhpSHpyZVN6TlRjemtjOWQiPz4KPHg6eG1wbWV0YSB4bWxuczp4PSJhZG9iZTpuczptZXRhLyIgeDp4bXB0az0iWE1QIENvcmUgNC40LjAtRXhpdjIiPgogPHJkZjpSREYgeG1sbnM6cmRmPSJodHRwOi8vd3d3LnczLm9yZy8xOTk5LzAyLzIyLXJkZi1zeW50YXgtbnMjIj4KICA8cmRmOkRlc2NyaXB0aW9uIHJkZjphYm91dD0iIgogICAgeG1sbnM6eG1wTU09Imh0dHA6Ly9ucy5hZG9iZS5jb20veGFwLzEuMC9tbS8iCiAgICB4bWxuczpzdEV2dD0iaHR0cDovL25zLmFkb2JlLmNvbS94YXAvMS4wL3NUeXBlL1Jlc291cmNlRXZlbnQjIgogICAgeG1sbnM6ZGM9Imh0dHA6Ly9wdXJsLm9yZy9kYy9lbGVtZW50cy8xLjEvIgogICAgeG1sbnM6R0lNUD0iaHR0cDovL3d3dy5naW1wLm9yZy94bXAvIgogICAgeG1sbnM6dGlmZj0iaHR0cDovL25zLmFkb2JlLmNvbS90aWZmLzEuMC8iCiAgICB4bWxuczp4bXA9Imh0dHA6Ly9ucy5hZG9iZS5jb20veGFwLzEuMC8iCiAgIHhtcE1NOkRvY3VtZW50SUQ9ImdpbXA6ZG9jaWQ6Z2ltcDpkZWVmNGM3OC04NTFmLTQ2M2UtOTJmMS02Y2NkYjZjYzgzODgiCiAgIHhtcE1NOkluc3RhbmNlSUQ9InhtcC5paWQ6M2YxMWMyMWEtODIwNS00OTUzLTg0N2ItMjhlYWZlZjBhNjYzIgogICB4bXBNTTpPcmlnaW5hbERvY3VtZW50SUQ9InhtcC5kaWQ6MDMwYjMwYWItYWZhNS00OTc1LWI2MTctZTQ1MjBjMmQxOWY4IgogICBkYzpGb3JtYXQ9ImltYWdlL3BuZyIKICAgR0lNUDpBUEk9IjIuMCIKICAgR0lNUDpQbGF0Zm9ybT0iTGludXgiCiAgIEdJTVA6VGltZVN0YW1wPSIxNzE0NjIyNTgwNzY2ODI5IgogICBHSU1QOlZlcnNpb249IjIuMTAuMzYiCiAgIHRpZmY6T3JpZW50YXRpb249IjEiCiAgIHhtcDpDcmVhdG9yVG9vbD0iR0lNUCAyLjEwIgogICB4bXA6TWV0YWRhdGFEYXRlPSIyMDI0OjA1OjAyVDE0OjAyOjU2KzEwOjAwIgogICB4bXA6TW9kaWZ5RGF0ZT0iMjAyNDowNTowMlQxNDowMjo1NisxMDowMCI+CiAgIDx4bXBNTTpIaXN0b3J5PgogICAgPHJkZjpTZXE+CiAgICAgPHJkZjpsaQogICAgICBzdEV2dDphY3Rpb249InNhdmVkIgogICAgICBzdEV2dDpjaGFuZ2VkPSIvIgogICAgICBzdEV2dDppbnN0YW5jZUlEPSJ4bXAuaWlkOmQxY2NjMGJhLTRlZDAtNDMwZC1hYzE4LWZjM2MyMDMxODRiYyIKICAgICAgc3RFdnQ6c29mdHdhcmVBZ2VudD0iR2ltcCAyLjEwIChMaW51eCkiCiAgICAgIHN0RXZ0OndoZW49IjIwMjQtMDUtMDJUMTQ6MDM6MDArMTA6MDAiLz4KICAgIDwvcmRmOlNlcT4KICAgPC94bXBNTTpIaXN0b3J5PgogIDwvcmRmOkRlc2NyaXB0aW9uPgogPC9yZGY6UkRGPgo8L3g6eG1wbWV0YT4KICAgICAgICAgICAgICAgICAgICAgICAgICAgICAgICAgICAgICAgICAgICAgICAgICAgICAgICAgICAgICAgICAgICAgICAgICAgICAgICAgICAgICAgICAgICAgICAgICAgIAogICAgICAgICAgICAgICAgICAgICAgICAgICAgICAgICAgICAgICAgICAgICAgICAgICAgICAgICAgICAgICAgICAgICAgICAgICAgICAgICAgICAgICAgICAgICAgICAgICAgCiAgICAgICAgICAgICAgICAgICAgICAgICAgICAgICAgICAgICAgICAgICAgICAgICAgICAgICAgICAgICAgICAgICAgICAgICAgICAgICAgICAgICAgICAgICAgICAgICAgICAKICAgICAgICAgICAgICAgICAgICAgICAgICAgICAgICAgICAgICAgICAgICAgICAgICAgICAgICAgICAgICAgICAgICAgICAgICAgICAgICAgICAgICAgICAgICAgICAgICAgIAogICAgICAgICAgICAgICAgICAgICAgICAgICAgICAgICAgICAgICAgICAgICAgICAgICAgICAgICAgICAgICAgICAgICAgICAgICAgICAgICAgICAgICAgICAgICAgICAgICAgCiAgICAgICAgICAgICAgICAgICAgICAgICAgICAgICAgICAgICAgICAgICAgICAgICAgICAgICAgICAgICAgICAgICAgICAgICAgICAgICAgICAgICAgICAgICAgICAgICAgICAKICAgICAgICAgICAgICAgICAgICAgICAgICAgICAgICAgICAgICAgICAgICAgICAgICAgICAgICAgICAgICAgICAgICAgICAgICAgICAgICAgICAgICAgICAgICAgICAgICAgIAogICAgICAgICAgICAgICAgICAgICAgICAgICAgICAgICAgICAgICAgICAgICAgICAgICAgICAgICAgICAgICAgICAgICAgICAgICAgICAgICAgICAgICAgICAgICAgICAgICAgCiAgICAgICAgICAgICAgICAgICAgICAgICAgICAgICAgICAgICAgICAgICAgICAgICAgICAgICAgICAgICAgICAgICAgICAgICAgICAgICAgICAgICAgICAgICAgICAgICAgICAKICAgICAgICAgICAgICAgICAgICAgICAgICAgICAgICAgICAgICAgICAgICAgICAgICAgICAgICAgICAgICAgICAgICAgICAgICAgICAgICAgICAgICAgICAgICAgICAgICAgIAogICAgICAgICAgICAgICAgICAgICAgICAgICAgICAgICAgICAgICAgICAgICAgICAgICAgICAgICAgICAgICAgICAgICAgICAgICAgICAgICAgICAgICAgICAgICAgICAgICAgCiAgICAgICAgICAgICAgICAgICAgICAgICAgICAgICAgICAgICAgICAgICAgICAgICAgICAgICAgICAgICAgICAgICAgICAgICAgICAgICAgICAgICAgICAgICAgICAgICAgICAKICAgICAgICAgICAgICAgICAgICAgICAgICAgICAgICAgICAgICAgICAgICAgICAgICAgICAgICAgICAgICAgICAgICAgICAgICAgICAgICAgICAgICAgICAgICAgICAgICAgIAogICAgICAgICAgICAgICAgICAgICAgICAgICAgICAgICAgICAgICAgICAgICAgICAgICAgICAgICAgICAgICAgICAgICAgICAgICAgICAgICAgICAgICAgICAgICAgICAgICAgCiAgICAgICAgICAgICAgICAgICAgICAgICAgICAgICAgICAgICAgICAgICAgICAgICAgICAgICAgICAgICAgICAgICAgICAgICAgICAgICAgICAgICAgICAgICAgICAgICAgICAKICAgICAgICAgICAgICAgICAgICAgICAgICAgICAgICAgICAgICAgICAgICAgICAgICAgICAgICAgICAgICAgICAgICAgICAgICAgICAgICAgICAgICAgICAgICAgICAgICAgIAogICAgICAgICAgICAgICAgICAgICAgICAgICAgICAgICAgICAgICAgICAgICAgICAgICAgICAgICAgICAgICAgICAgICAgICAgICAgICAgICAgICAgICAgICAgICAgICAgICAgCiAgICAgICAgICAgICAgICAgICAgICAgICAgICAgICAgICAgICAgICAgICAgICAgICAgICAgICAgICAgICAgICAgICAgICAgICAgICAgICAgICAgICAgICAgICAgICAgICAgICAKICAgICAgICAgICAgICAgICAgICAgICAgICAgICAgICAgICAgICAgICAgICAgICAgICAgICAgICAgICAgICAgICAgICAgICAgICAgICAgICAgICAgICAgICAgICAgICAgICAgIAogICAgICAgICAgICAgICAgICAgICAgICAgICAgICAgICAgICAgICAgICAgICAgICAgICAgICAgICAgICAgICAgICAgICAgICAgICAgICAgICAgICAgICAgICAgICAgICAgICAgCiAgICAgICAgICAgICAgICAgICAgICAgICAgIAo8P3hwYWNrZXQgZW5kPSJ3Ij8+vfTXygAAAAZiS0dEAMwAzADM38FfGgAAAAlwSFlzAAALEwAACxMBAJqcGAAAAAd0SU1FB+gFAgQDAHgOj6sAACAASURBVHja7J13mGtXdbffpSm3uNzr3rtxpdvGVNObaSYGUwI4kBBMDyVAgNBCaKGHjk0xLfQSegBTPnoHg+kY44J7v/Y0re+Pvba151xpRjMjaY40v/d59Egz0kiac9ZZ67fXXnttEEIIIYQQQgghhBBCCCGEEEIIIYRYG7i76SgIIYQQonYCZS2JlLX2/wohloechBBiUUFxg8Mw8y5e3wDGgYm4Hyvu860BrAO2i/t18fsNcd/pc6aAGWAWuD7eZ0Pcr4+/7eTrpoDp+Pvr4+er42cH5orbbHkzs5mlHKtujpMQQgJLCCExVX3N+uK2Lu53B/aM+92AXYFdgB2BHYDNcVtfx38duAq4ArgSuBS4JO4vAv4GnB+3K0KcXZ9vZja9iOB0iS4hJLCEEGtLUFknAeDuG0lZpnzbBzgEOBA4ANgf2I+URepGxDTj5sv0Sb4Cf+YdfmekDFi+dcOFwF+BPwN/Av4Qt4uBa0KsXW1msx0EFxJdQkhgCSFGT1BhZs3Kc2PAzqSM087AocBNgCOBw4C9OrxtnlbLYsUK39LpPj/2VfRDXnyHqggr76uP8xSodTgWZ8XtTOAXwDnA5cBlZnblUgSuEEICSwhRb1GVp6mqompP0lTefsAtgaOAm3cQU9NtRFSj8CWrLZgGKca8wy3Xm1X5KfAz4IfAr4ELgAvbCK6xdudJCCGBJYSosahy921DTO0P3AK4Tdx26CCmGoWQMvmMrsRXngJtLiC6zgK+B3wnHv/VzM6R2BJCAksIUU9h1QAaZe2Pu28CbgQcAdwOuCNp+q8UCNPMr0WyimiQr1i66KI4hs3i1iCtsMxMAd8Gvgn8CPidmf2+jVhuahpRCAksIcTgRNVW2Sp3X0+qn7opcBxwV+ZP+81EsB9rI6jkFwYruCaYX1z/feBrcf9LM/tTca7HQ2gpqyWEBJYQok/Cql226jDg6BBV9yBNB2ZyK4FSVClDtfqCKwutObaeTvwW8FXSdOIPzeyy8twDc8pqCSGBJYTonbAay80v3X0DcPsQVfcEjqmIqurUn7JU9RRc+dzkVZm5OSuktg9fidu3zOzMwh4mSM1QJbSEkMASQixDWI0BljNW7r43cDfg7nHbJV46y/zpP13vwy+21hXP/ySE1v8BXyumhSW0hJDAEkIsQVhVM1aHA/cnTQHepXjpdAiqMZSpGjWhlcUWtArkLwC+DHwB+KyZXSuhJYQElhBi6cLqZsBJpGnAo4ogPMvWXch1bY+e0KIQWk1gMn63BfgS8Hngw2Z2dSx8GO92D0UhhASWEGtBWBkwkfe3c/ebAo8KYXXjeFnunL6U7V3E8Aut7LfLlYg5ozVDmjb8DPA+M9sS08oNCS0hJLCEWOviarIQVocCpwD3Im1VUwqrMV2/a15sVacPS6H1DeDDwGlm5jFt2DSzOR06ISSwhFhLwmocwMxm3X1X4KnAA0j7AHYSVqqxEqUN5IxWbvOwJYTWu8zsY1nAAzOqzxJCAkuIURdWDVKtzHQ8fiJpOvDoIoDm7t/qWyUWElrZLqpC63JS49JXmdkPwu4mNG0ohASWEKMqriaKAvZ7A88k9bPKxctzElaih0LrfOATwEvM7OKoz0LThkJIYAkxKsLqhn5W7n4g8GLgvsBmCSvRQ6FVTh1CazHEWcDbzOyNYY/jqCO8EBJYQgy5uJows5mYDvxXUhH7/h0CoWqsRK+EVp5qzp3ht5D2OnyumX0vbLOhPQ6FkMASYtiEVd6M2d39tsCrgGNpTd80JaxEH0UWzF91mG3tMuADwHNyWwdNGQohgSXEsIirMTObc/eNwMuARwPbF8LK0HSgGLzQyo/ngD+EyPpU2KxpylAICSwh6iqsbghSUcT+WuCQyB50CnZCDEJotctmbSE1KX2ymV0ikSWEBJYQtRVX7r4phNUjaTWCrG59outQrIbI6iTwzyVlsz6gwySEBJYQdRRZ9wPeBOzTJpApayXqJLSqMWEG+BxwipldqMMkxNLRHmZC9F5YbXL3dwOfBvYtBJW1eSzEag+yrSL8nZRtPQH4hbs/QodJiOVdXEKI3omruwOnhrASYijNuBIfHPgY8AQzu0SHR4juUAZLiN4Iq83u/hbgy4W4UoGwGNaBd3Ua+8HAL939QTo8QnR/IQkhli+sGsBxwLuAA9i6zkrXmBha86b9YozTgWea2cU6REJ0RhksIZYmqKx4vAl4BXBGRVwhcSVGZADubN0N/lHAD939eB0iIRa+gIQQSxNZY8DRpFqrGzO/WagQI2n2tN9y503Ai8zs0jwAUe8sISSwhOhWUJUNQzcBTwJeQsoAlxszCzHqIivHjWbcxoFfkZqTnqFDJIQElhDdiquGmTWj1uqWwBuA26KNmcXaFlo5mzVLaunQJG0D9foim6XNo4UElhCivbCKx5uBx0QAWUdqwjiOGoaKtS2yst3Pxc/jwPeBZ5vZN+LaMQBNGwoJLCHEDZszx+OjgZcDd4sgMheBpBzJC7GWhVYeaEzHAGQK+A/g7blvlrJZQgJLiLUtrMqs1Q7AyaRaq+0ieIyz9UbNQkhkta6HmbgfB74OvNjMvp6vL8CVzRISWEKsLXE1bmaz8fh2wPOBe8XTM7TfqFkIMV9o5WzWFLAeuJbUyuRUM/tbXF83ZIiFkMASYnSFVTkduCvwaOA5wOYIEhMoayXEUkRWvk5m4toZI2WzXmVmX8jXHdBUNktIYAkxesLKgLEia3VP4F+Bu8ZLpkNcqSO7EMsXWc24ltYDW0ircE81sz9VBzhCSGAJMfziqpwOPBA4BXgCsA0pazUeo25lrYTojdCaiWuqAfyA1KD0A9ECZYxUm6UieCGBJcSQCqsG0DCz2XDqjwCeDBwVL5kGJovgoOtDiN4IrZzNmiGtNGwC7wHeaWbfqw58hJDAEmI4hJUB42Y2Ez/fFngc8DDSNKBqrYTov8jK19Vs3I8BvydtOXWqmV0W12pD04ZCAkuI+ourG4ppo4j9CcAjgQNjFD2HVggKMUihlesaZ2hljL8IvMvMPhrX7QQwqyJ4IYElRP2EVTVrdTKpG/tx8ZJqEbuuByEGJ7Ly9ZYzVWPAlcBHgLea2U/zAEnZLCGBJUR9xFWZtboZ8EzgAaSGoeX0hISVEKsrtKp7GgL8GngvaV/DaXefNLNpHS4hgSXE6oqrcoXgM4B/Ag6Lp6t7CMr+haiP0GrGLW9F9Vngv8zsmzFoQtksIYElxOCF1Q19rdz9xsBLgeNjVDxLKmBXEbsQ9RZZHiJrLH5/DqkI/j+jpYOyWUICS4gBiquyG/sTgacAh8TTcyGsZPNCDIfIIkSWF0Lrs8C/m9nP3H2dmU3pcAkJLCH6K64mzGwmNmd+I3AisKEQVpoOFGK4RBa0z2b9kbTdzjuip51pylBIYAnRH3E1GUWwdwJeA9wynlLWSojhF1plNstodYQ/FXiWmV2jKUMhgSVEb4VVWW/1VODZwB5tnLEQYrhFVo5THrc8cPoG8FQz+7mmDIUElhC9EVeNYnT7FuDRpGaFKl4XYnSFVpnNyiLrbOAZZvaJXCqgQyUksIRYnrgaM7M5d9+T1Cfnbh1GurJrIUZPZJXXeH58HfBCM/uvyGyj7u9CAkuIpYmr8ZgSvBWpBuMmEldCSGTF/RtJdVlT7t4ws6YOl5DAEqJ7cfUA4E3A3oXDtTaPhRCjLbTaiayPAE80s0sksoQElhCLi6s8LfhY4FXA5kVGskKItSOyqPiArwGPNbM/SWSJ1aahQyBqLK4aIa6eSZoCkLgSQpTXf7UA/i7Ah939xtH5Xb5BrKqRClFHcWWxWfNzgZegzZmFEIu4DVqNSX8NPMLMfpp9iQ6PkMASElbhDN39xcALCucpmxVCLMZciKw/Ag83sx/okIjVQFOEoq7i6oUVcSVhJYRY1I2EuJoDDgI+6O7H6LCI1UBBS9RRXD0X+E/md2+WyBJCdCuyDJgFxoHfAyeZ2c90aIQElljL4urpwKsLRylxJYRYqcj6JfBQM/u1Do2QwBJrUVw9ltTnapLWlhgSV0KIlYisGWAC+B7wMDM7W4dGSGCJtSS0TiR1aN9Mq0hV4koI0QuRNR0Dt88Bjzazi3VoRL9Rkbuog7g6Dnh9iKsZiSshRA+TCB7iagq4D/Bqd99Gh0ZIYIlRFVUW94eFuNo7RpkTEldCiD6IrHXA9cCjgOfpsIhBGJ4QgxZXjeiyvBNwOnB8OL71EldCiH64nSLmTYXYepyZvUOHRkhgiVERV7lDewN4M3AKcB2wQeJKCDEAkQVpdaEB9zWzL+nQiH6gKUIxcHEVP/5LiKvrC3ElhBD9wor7cVKt56nufogOjeinwQkxSKF1b+ATpHorQ+0YhBADdEHha3IrmK8B9zeza3VoRC9RBksMSlTlovaDSEXtud5K4koIMUis8D1zwF2A/wj/pJgoempoQvRdXEXd1TrgA8CJtApNJa6EEKvimsL35L57f29mH8yLcHR4xEqRWhf9V/GtuqunhLi6XuJKCFGzOPg6dz9E4kr0LPbpEIiBDBXdbwd8NUaKY7JBIURd3FPhh74C3AMYM7NZHRrRC+UuRD/F1fbAG0lZK2P+ah4hhFhtcZWz7HcDnm9ms+4+rsMjJLBE3XkecEu0DY4Qol5YG5H1THe/VYgs+SmxIuMSon/DQ/c7kqYGndbUoOxOCFEbN1URWgDfBW5Pmiqc0SESy0EZLNFPcbUReFMIq4aElRCihrTLYt0GeIGZzbj7hA6RkMASdePZwI1pNfTT1KAQYlhE1uPc/eYhsuS3xLKMSoie4+5HAj8kNRSVvQkhau+22Hqq8Itmdm93n9BUoVgqymCJfvEG0h6DElZCiGGgFFe5F9ad3P0fI4ulVYVCAkus8jDQ/SHAXds4LSGEGCaRtR54irvvADQ1VSgksMRqCStz9/XAy8tfS1wJIYZQaGW/dVPgudHhXQXvQgJLDF5cxZY4zwIOkLgSQgyxuKpOFZ7o7jc1s2ltCC0ksMRqiKzdSfsNSlwJIYZdZJVi6wDgmfG7MR0eIYElBiWsxiJ79SJgJx0RIcQouDbmt224i7vfNQreJbKEBJbou7gyM5tz94OBh1YckxBCDCtlFqsJ7AWcUnlOCAks0TfySO4FwCYdDiHEKI0hK2LqDu5+P20GLSSwRH89T8pezbr7EcDxHRySEEIMK2UWaw7YDTi58HVCSGCJvpCzV89FtVdCiNEWWlls3T6yWHPKYgkJLNFziuzVocDdihGdsldCiJFzeeHbZklZrAcVvxdCAkv0lDxyexqwa8URCSHEKGGVmHnHWFGoLJaQwBI9HMql7NVM9L26F61VNmUaXQghRlFozQL7AQ/Q4RASWKLX5BHbk4A9C8ej7JUQYpTFVXl/F3c/Kkol1BdLSGCJntB09wngfqS9uZo6JEKINRQ354AjgXsrlgoJLNET3H3czOaAx9Dac7A6shNCiFEkl0GU3d33ipIJxVMhgSVW7GAA/g7YDmWvhBBrbJwZsdOBOwB3VzwVElhiZV4l7Tk44+53JKXHq6M6IYRYC4PMBjBDqke9k7s3ohZLflBIYIllkQs5TyLty5WdjYrbhRBrarxZ+MO7AMdVfKQQEliiS2+SRmYz7r4JuE38eg5lr4QQazd+zgD7ALcthJcQElhiSYybmQMPBg4s7EcORQix1qgOLO/o7ntH41ENOIUEllgWdwc2oeJ2IcTaJk8TOnBn4Jj4vaYJhQSW6NKLpALOGXc/DLhx4Vw0PSiEWKtk/zdD6gd4LICZzerQCAks0S15RHYf4ODCdjQ9KIRQHE0c5+6H5kGpDouQEYhuyELqNsAkqbg9j+CEEGKtD0Dnwj8eId8oJLBEd8qq1d/lSOCw4ik5ECHEWidPE+ZpwTxNOKdDIySwRDejM4A7AYcUdqPpQSGEmN8T6w7ufnAenOrQSGAJsZjzADiaVMg5W4zchBBCtDaAvi1b79EqJLCEqCir1vTg/sDhxVNyHEII0fKHjWLweXPQNKEYUYHl7g13H3f3CXefbHObcPcxpXC7to9jgRsVv9P0oBBCtPeXt3P33SMWaTC6hhkfMWE1BjTMbIYuG2G6ez4GTTNT88z2DuMWwI4xQhtDGSwhhJgXSmjVYd0W2Bv4G9qrtYy1OdNnzE/uODA3ivF3fEROXCOE1Sww5+5HAHclpWoPALaLk3pdGP2fgV8BPzCzsypiy5XaTReDmU27+3paS49d4koIIbYi+8UpYBfSdmI/Uhy5QVTlxMfcAq8dH7UmreMjcALzSWm6+4OBJwCHkrZz2djhz5rANcDV7n4h8A3g42b27dIo1rjQykWbN2Pr5qISWUIIsbXIyr7xGHf/lJlNr1FhNS/pQUp8HATcgbRg6hBg13j5b4H3mNkXRk1k2ZCfxPEowj4OeBlwS2BDGzFVFQ5V5oArgbOB98fJvjyMxNai0HL3idge5x+Bt5JWEDbR9jhCCNHWbUYsGQe+BTzSzP4SswFrYpow1zXn6T53PwR4KHBf0rTpdsA2bWLIVcDpZvZkdx8blZg7PqQnMRvsnLu/BPiXOHHZyMssS3mfnysvCCPNne8Yt5sAz3D3jwGvNrNzo7aruVYukgqHhbiajnuJKyGEaE8jBqJHkzI0f2EN1GHlYn4za8Yis4cBp5D2rt2+jdYoY3EjXvOkSJo8Pg/wR8EYhk4hm5m7+47AB4F/D3FVPWEUwsraPC5f58VtAtgLeCrwY3d/BbB9fOaaWHUYAnbG3bejtXpQmSshhOhMufnzBmD/Ir6MerxwYLO7Pwf4A/Ae4LhIWoxXYqwXxyuXneSZpke5+2Mj/gx9CVNjyE5kIxTynsD7SKnH6gnLBr2QIGj3nLVR1rsCzwZ+Hie9War1ER+FQZonP7D4nVbDCCHE4iIL4BaRiRlJv1nEwR3d/T+As0ilOgeQ9qylTXyu3spYPUeqm36Cu+8W5T9DHWsbQ3Qys7jaDXgbcHyhetudrOVcENX3yoaxD/AOd/+Wu99yDUwV5uNxUCGwlL0SQohFQlURV29OyuCM6qB8m8hYnQU8H9itEju7icdl3C6P21Pi8YQE1gCUcoirjcArgfuRejJVxdBKjbhdBqwUWrcHvu3uL3D3DWtEYG1DSnlrilAIIRb3nTmu3iwLrJFSkKmJ9yOBM4GXk9pSQOfZpMUG6KXIysXt93D3XaNV0NDGnaEQWEXG6FnAyWzd8LLXwb9TRgtS6vPFwP+5+5Ej6SFaxYUHVASnEEKIxePHFLAnsFMXAmOYxNVtSCskTwf2LZ9i/tTfUuNydVHajYGT4vHQ1mI1huCENuL+JFIaMqdgbRUumnzMmsDtSNmsR4zY6CQf772A/YZJiAshRE0EVuaQGLQOdZdyd9/d3d8MfAe4dZtBt/Xw2M0C64G7x++G9tg1an5Sc93V4cDzSFmrOVav4NoLgeek6bP3ufur3X3TiDmHvYoRirJXQgjRfZzIsfWI2A1jWIXVmLufCPyQ1MR7thBX3qc4bMWxO9bM5qJVkgRWD09srrtqAI8FbkpKu46zelNW1WL6MVJ/qGcAH45OtaMisPaWwBJCiGXHCUh9BLfLMW3IxNX+wLuBjwF70GqiCstbULZUXXIwcOd4LIHVp0B/T+BpoZwnqUc9ULUmaya+5+djjnoUBNaepCWzMxJYQgixLD96GLDtkAkrc/cTgG8Cj4wkQiNETj+FVSlOcx3wMXE/lNvnNOp6giN7tXuIq6rR1ukCys1JZ0nz7Z939/sMsWOYKwQWtLbHEUII0X1snSWtxB4agRVtkF4BfJJUJpITGzC45EY5xXqYux8TemBsGI2gftK/tWrwbqRCt6mKeq6TyMrZrPEQJ9sDn3L3vx82YyiE7Ya4uLKNqMGoEEIsb7C6S519fvH4KOCjpNX6UxHbypKcQcbeGwQWcGyd9cpQCax8wt19P1JtE7TmfeuaSckiq1TY74+NkocJKxzCnhURKYQQYun+9OBK4qBOA2qPxw8HvgzcIcTVuvwyVm/F/kxolFvGz0O3mrB2AqswwjuTOrpOMRwFbllk5bnqGeBUd3/iEDqGnYDday5qhRBiGATW/u4+WUdx5e4b3f25wAeAzaQpwXV01yB0UPrkCHc/JFYTDlUWq1G3kx73ewJPjl+v5qrB5YqsnFqdBd7k7o8dMoewM2nbAwksIYRYni/NvnM/0ubPdYmzjRBXuwOvA/6TVMhejbd1WEwGcCStLNZQ1WHVSmAV2atj44BOM3zzrtU2DrOkfQwfmY17CATWDqRpwqFujieEEDXwp/uRGmeueqsGdx+LOtuDgXcC/xxxdqISu+oiUGdIiwRukf8FCazlnficvdocJ71UqzaEF1Ypspqk6cL7D8lqiM1xP4syWEIIsRKBtQetmqbVFldz7n4T0lY39w0BM9HmO9fp+AHcxN13MbPZYeonVhuBVWSvDgHuRavAbZgvrjLVOgm8y91vW+POtPkc7Fj8LIElhBDLiwFzpBXZqyqw3H084s7NgPcDt4kBdF3FVY4/5cbZOYs1NNOEdavBWgecUDnhNuQXWGksOwGnufv+Yey1+t/MLC8r3qkiEoUQQiyduRBXqyawInM16+6HkTJXN43vNVbzOGu0+ontSVr0NlTULUO0E3AyaUptbESCe5kFclJfj7e6+wT1nKJdT6rBEkIIsTKBkGPYDjGIHWhMi9WCc+6+B3BaiKtmxJ5hWTiWa4GPcveNwzRNWDeBdYtQqnOMTv+ldoWD9wJeEoY/WbPvuy2tGiz1wBJCiJUPrnddrfgTMebNwG2pzwrBpRzDnGm7Fa2tc4aifKhOGZRtgAcP08FbpsjKI5inu/uJZjbt7uM1+Y6Q9h/cvvI7IYQQy/Op0KprHWRMnTSzJvBS4IEdvtew6JRZYH9a7RqUwVoi25Pqr+ZGUGBVRzROKnp/mbvvWbOU5wZi93chhBA9EVk7DHJhUxS1T7v7ScBT49dNhq+uNmfb8jThrd1907BME9ZJyNwC2FQYgY3ohVZyCPCqeDxRI4G17ZCOdIQQoo5sZkCr30J4NN19F+AFMZjPdVfDWNec9/oFuCutacLaryashcCKOeLji+80qivXyqnCrMgf6O4PrtFU4TpgG/lDIYTo2cB6+wEKgvGYGnwuqQt6dbBsQ3ocp0kL4W4Tv5uTwOqOSeA+rI2+S+WehU1SzdOz3X3jKgtLK87FevlFIYToGdsMIt7GqsEZd98PuH/8ukm9urQvJzZZcfyOj70Jve57E9bly+1LKmAbpdWDSxE1twCeFqsKV3uqcIJWzxZNEQohxMrZwGAyWPkzHkZqcFr68WH253k14Qxwa+D2w/A/1UVg3aGiVNeCsMqjiVzUf5K77wysdvGeMlhCCNHbQfTGAcXb/Bl3jIFysxAow34cy7j4QHffrY4Nu2slsKL+6riK8FhLF14+B0cCp0QjuvFVtokx1MFdCCF6xcSAkgdZcOxaCKtRSVzk2DhD2kfxDnXRMbUVWHHAbj9ihrAUg8lZrDHgBHffKebQV+s4jDFEez0JIcQQMIj6q0Zsd3Yz5jeLHqXBchkXHxttjmqbxaqDwNqFVIPVXIMXXTWLdRStniWrVYs1FqJXGSwhhOgNGwYQb8vpwd3bCJJRiJc5izUN3IO0OG7gWxANk8C6XQd1ulYos1gAJ7r7EdG2obFKRowElhBC9NyvDoJ7k2q+5kY0rhqtWZaXuPtNIGXwJLBKZZE6296zok7X6oWX2zYcATyjRgJYCCFEnUfp7mPR3fwepA2dc2wZRXFVrijcPUTWjmbWrNtU4WoH8ElSr461WH817/qo/O8nuvtJccGMy30IIYToYqD+T8AeDOe2OEtlnLRH4QmkvX0n6jZVuNoC667ML8Zb6xeHhcFsAp5c7FOoTJYQQoitR+dp38FZd39IxFRGPKaWbY7GSFOhz4uYqQxWwT/q8tjKcMZi9HF74Dk6JEIIITqIq0aIq03Ak4AdaTXsHnWRle9zec1rgJe6e236ODZW0TD2Be6nS6Sj4UBahvoPMbesqUIhhBDt4sXzaLU7arC2ZoRyeVHef/Ez7n7wmhZYpEJu9Vtqoz3jvMyROqo/291vFaOUQRyv5oiPfIQQYtDM0ON6qChsn3P3hwOPLeLHWlsw5oWeceDuwJnu/mp33z+ama8dgeXuu6PpwYXUeLlK4jDgBe6+Q1xMjQE4gikJLCGE6BlTvRQ9hbi6OSlrs5lUv9tgeDd1XknMtIq4nCAlcf4MfNDd7+Tu2460wCoK0P6dtLt4eYDE1iIrN1S7D/ASgDouRRVCCLFw+OthHG2EuNoJeCVpm7UZWg2i12p8KDN3ecpwDjgROAP4orvf3923b6NJhl9gmZm7++HAY3S9dc1EjEye5O5PL45jvwxjNi5WiTghhOgN0/Rgt5IQV013nwBeT+pmPh1xYi2Lq1JktSuAnyU1Nf808L/ufmd335jbOvQrng5MYBVTW68n1RaJxQ2lNBKAF7n7SVlk9elz58IYhRBCrDD0FQJrRT47i6v48dXAI2IwPIF23lhIaDVorc6fAY4Dvga8xd2PcHeLpEXP9dBABFbMFzfd/WTgbhXDEwsbSS56nwW2A17p7rfro+qeCyPUORJCiN4wxQoyWKW4cveXAU+JmDDO6Ldk6EWiIuudiSLGnQx8F3i8u28ujm/PjuMgdvi2mC/eC3gFa7MIrxciK9dj7Q+8zt0P7dNU4WwhsIQQQqycZWewKuLqBcC/hUhoML+4WyweR/MCsvGIc9sDbwY+lPc0jLjakxX7jQH9YwBvo7XDNyg7shzjmASuB44B3hid3nslsspU9nU65EII0TOuZRkZrIq4ej7wYlqNRJWsWHocLQXpRJyTaeBewFfd/eGx5c5cL3pP9lVgRQv/prs/h7QSDhnEikXW+hBA9wDeEKnNXmayZsPghBBC9IbrlyqwKuLqpcB/hH+WdDHDFgAAIABJREFUuFp5LM1aJE8bTgO7AB8A/tPdt+/FXsB9E1juPhlf8F6ktgx52aRSmis8tMCGEFkPAl6fV0P0SGTlPlj5s4QQQizfXwNsWYrAKlYLTrr760id2mciZktc9TZpAWl2aDZ+/lfgve6+10obfPdFYIW4mnb3GwPvBDaGcckweqe8N8So6GTgtXHMeyGyNEUohBC95VrS1N5SxNUOpNKafwm/PKYY2teYmvuIzQAnAB+LWue55YqsngusmL+cjqL29wB708pcid4axHpStulxpML3Rg9E1pQElhBC9JRrihYLnWKnxaKwprsfFPHz0eGTJySu+hpTyxX7eUHZrYGPuvvNliuyeiqwQlzNuPuOwKnAUYVBaGqw9yILUmpzGngC8FpYdiNSbyOwNEUohBArCItxf/Vi4srMPHz3HYD3AfcnzVKsU/wcWFwtC+CngJsAH3b3my+n8L1nAqsQV5uBt5Oq8mH+/kAyjv4ZwzTwVHd/8wozWVOkegEhhBArF1cLCqzsr+PxycDpwG3CF6+n1V5A8XOwcXVdnINDgfe7+xFLLXzvicCK+p+Z2OPnzaTia1Dd1aBF1iwpk/XWFYisUmApgyWEECsXWVd3iJ25CXfD3V8EvIXU63A6Any5t54YbFylEFlHAu9y932WIrJWLLCKgvZNYRwPj6fmJK4GLrLGQmT9M3DaMgvfr2ORdLYQQoglcUXEy3m+OKad9idNCb6QtCBsllT6IXFVD5GVy3COJfWf3K7b1YUrEljuvi7E1a7AO4C/L8TVmMTVqomsOeAfSEtNt+1mn6Wcoo5CzGvajMCEEEIs3TfngWu7GHoc8OFITDTjNs782mWx+nF1gtbqwmfGDNHcYsmLZQusEFdT7r4f8F7gJImr2hhDI87DQ4EPuvsukYYeW+ScZnu4VuJKCCFWTN5HtlOLhuOBW6EGosMSVwGeD9y3IqB7J7Bi6mnK3W8KfIRWQXtT4qpWxtAE7kdaanpQF6sgsj1cpUMphBArIu97dzmd93e9voibKHbWOq6O0Wr2+ip3PzDXz/VEYEUh3lhMC94D+GSob0cF7XUUWbl7/h2Bj7j7sTF3vNh537ISAS6EEOIGf3wFKUPVjmtpbdqsKcH6x9XcvuFQ4Enuvn6h/mZdB9C82iGyIP9Mmjc+kFbqU+Kq3iLrlsDp7n6HUN0Lnadcg5WzkUIIIZZG9p2X0jmDpX1fh4+8rc7TSM1I6RRPuxJYxe7S69z9DaRWDJtprRRUn6v6XuDlqOgQWi00Ggs4hGuKkZUQQojlC6xLspDKi4kKpnSYhoZS5+Tz+BR336HTav1FA6i7j0ePq4OAzwJPIa1yyMXsElf1NYbyIs8cWnm+HVtotWpQBksIIZbPQhmspg7PUIqsvJ3OA4GjO4jnzgIrq7Go2TkB+Bpwt8Io8vSRxFW9jaEqtA7o4u+uBq7U4RNCiGVTZrBmFhkIi+GNrY+MJut0JbDyvkjuvt7dXwv8D7BvIagaqAnasBlDZjt335b2y4bLrsNXVH4nhBBi6QLrYjrXWimDNZzxNGexZoFHAHtn7bSowApxtR1pw+ankdrFNytvrhUPw8kkcPAiHd6vJi0tlsASQojliyuAixZYabadDtVQC61m3N8pa6dFBVbwMFJn9txdtlEYjoTV8F7sk8DBhYG0e91VtDJYw/r/ugSiECPhu4bxWi4LoS9c5HViOMUVtPqX3T22C2RRgeXuewD/XnmdpgSH3xiywDqo3bkstssZ5gyWVxyc7FWI4RVWRvvVW8M0qL0k4mo7X7RRp3qobTTb5K2BbbsSWPHivUnzxg00JThKrOsksMIJZEU+TALLO4ir6ghYCDE8gavTgGlYrunsS69b4DWTOt1Dnbgw0gKG3bsSWO6+gdbWN41OgVgMNQcucF7zOb+sw2iszqOI0uDPl90KMfQB7HrgojYiaxj80jhpevD6BV6nDNbw22hml0UFFrABOGqB58VwjwwhVjwsQq7BGh8icQWpfuzjYcdogCDEUAat7KsmgXNJbYJoM5iqq8jK3+uCRQTWtjrdI8N23QisSVLH76YC08gq7Q3uvgMw26YuIDuGy0nd3Ou6XU47cfVn4IXA3YEdGb66DSHE/Ot2DLhFiJRXFb6sWfPrO3+n8xcRWJt0ukeG67oVWNvRvk+SGG6nlVkPHBBF7QsJrLrWYbUTV98DngD8K7BTh9cIIYZjMFi9fo8n1bmcHIIl1wbXVWTl7/O3LLDadfpGbRpGKa5e1I3A2ljToCpW7rQy64D9F3n9Fcyvw6qzuPpf4DHAG4A9Ja6EGDmRBfAo4EhSjfClNRZZZRG+MlijLa4cmAhxdVU3AmusTUAWo0UpsDplsC4jlhfXzHGVzd0ATgf+ATiNNLXtHUSlEGJ4RVZu1PkM4CbAnYG/1lRkld/jPDObWeC1m3Wah15kGfAD4JpuBFaz8odiNAXWAV0IrEvbjMjqIK6y3b4deDTwFuA2ElZCjKzIapDKVsaAlwP7hMj6YzxX15qs86BjDyxI5QxieG0z66UzaLN/bzuBdX2bYCtGzzDaCqy8hU40G72kJmK7nbh6m5mdAjwPeIgGBUKMvMgaI+39ti1pG7cx4N4hssZqJLJKP3TxIoM+ZbCGE68kHr7VrsauncCaXuA5Mfxkxb3nAq/JrRkurYHYbpu5MrPHu/sJwAsqr9OgQIjRFVnjpD53ewAfAv4C3Bf4Q41EVv6eVwNbOvnP2O93QsmMoY6lk8BPSK1EutrseZbUHG1MJ30knVRm22gqO7dA+jqPvsZqIK4y7zCzU9z98BjFjtOqyVIGS4jRzxyMk6YLbwmcbma/AU4sRNbcKousPKV5XiGw2rFbB98shiOW5k4LnyBWEHaz2fMMcI5O+Mg6p8x6YN8Ou7x7IbCuWyWxXTrInL36APBkd58A3sPW7RiEEKM/QCy3bTvR3f/NzH4B/GNkEsYjUdDO7w3Sz55L6iXYiV0UZ4c2jpaD+a+aWdtERTuBNRUjgfKNxOg4KCsFVofRUymwVmMloVcE/zjwOeCpZjYNvB64VQfHK4QYbR+WM0Sz4Rue6O53M7NvAk8k9e+biOdXwydk/3XOIgJrV53OobXBubCxr5IaXLelk8D69SopfzE4FhJYFALr0lWyBQtbnCQtgX2SmV3q7g8hNRsETQ0KsZZF1jipZngv4N/cfQ8z+wyp2fA0rUzWIDPcZVLiXGKKsEOT0V3lt4aOfH7z9OD/mNmFnc7xVgLLzGaBn1YCmBhNgbVPB4GVDeUiWnVYgxJZWSxNk9pJnAM83szOdvf9SVvhbBMG3pC4EmJNi6wJUpb7LsCTI4adRmrlAFvXaA7qewGcE/G0E3vKdw2tyJqI2PhtAHdvuyiw00rB37UxFjFaTFC/KcIsluZImastwNPN7Cfx/IuAw2lNEcg2hZDQynHsFHe/Tzz+L+DDbXxLv31G+f7nLRR8SSshxfDZ22zY3LuAP4Woby5FYF0J/DyCsOqwRo9sDG0FVvTCGo/R16B6YXlxnx+/HPhkOKmHkVYKVb+LRoBCrN1gl/tjTQE7AE919z3N7FrgOaTZmAbzVyL3W2CNx/0Vi7x2T53CoaK6Y8AXzGxqAQHdUWBdA/y/SjAWo+OUMju2GXVVbePC4mcfwHfLtRMfA15vZk133w14KqnB4CyaGhRCzBdZk6SpwrsDD4+B4tmkrXUuodW+od9ZrCz4/kKbrVNisGgSWENra7OkxNOHSEkoFrKntgLLzLYAXykElgLZaKnwzAZ332xmM22WmObXXUBrJZ/38TtZfM460iKLF5hZdlBPA46Nx+rPJoRoF/yyD3uKux8dsewM4DW0ttnpdz1Wft+/0tr8t9Nn7aPTNlRxs5xd+aiZXeHujQ4LGNoLrCLQnkmqgSm744rRYj1pBQ50rsP6G61pwn6Kq2aMDK4DXmFmZ4U9HkVrK5xy2bVEvxAC5q8qnArhcrK7r4vnXwl8sfLafg9gzyF1cm+XwHB3Xw9sv1gGRNTKxmZJmdIvAt/t5ty1W0WY/+BS4AuFwBKjYyiZDbTS1J0E1oUMplVDXvZ6upm9z93zdj2PB/YP4x5DU4NCiM5+LdcN/zNwXBHT/pWUVSrbuvTan3k7gdUhw7GPBotDQzV79T4zu3Cx7FVbgVUIrcuBTxXBT0Ywes5ofRcC6wLmF7p7jw23nNf+GWn1D2Y26+7HA/cvvp9sUAixkD9pkEoNJklZrM2xef1ZpAbFU8yv4eylPyvf7y+LtGjYD+33O0zxMmevvgqc0e0ftj3BxTThj0grISbQNOEoUk4RsoDAurjyu17SJKX2rwPeamZ/dPd1sTLjEaTtJGZQ9koI0Z3Ayb2x/h44LqbkJs3stUTfoj75s/L9zo9YOtYhtu4rgTU0or08r+8zswvcfaxTa4ZFBVaR9jqXtJqrQWsKR4wO64DdC+c0zwbcfSJs4ZI+GW65kfPnzOwd8ZlTwAnA8fHcWLvvKIQQHYRW5mR33zm22ILUuuFy5k/P9UpoZXE3G5+xEAfInw2FuCpnWD5PKpvqWpx3VNCRVr0mBFb5hspijY7xQKvZnS3gqC6oCJ1eOcGcvToPeFtllPcAYFOMRNVUVAjRrV8pt9H5O2Lf0shi/RD4CP1ZTZinKP9C5xWE2afujzJYwxIncx+1D5jZRd1mr+jyBJ8JfIc0/6hi99Ehn8tduxBh5wPX91DoVNOunzOzr7r7BjObAe4J3KtioxrtCSGWIrSyz3hotKPJWax/LwaNvfQtZYuGKxdJSByoU1R7YZVbB42RdgX4ZCV2Ll9g5WlCMzuP1BIeUqoMZRNGwvlkNsb93AIO4wLgsh5/fjPs7/fAWyv2de8QftMoeyWEWLp/yVmsWeCRwGEAUYJwMXAavd8IuiytuXIR3yuBNRxJiEnSKvoPmNl1scNJ1/ayYAaraAH/LeAsUs2Oslijo84B1keNwtwCzUbPp3etGnL2KtvWl83sZzl7FX2v7lbYp1YPCiFWMpADOMHd14WPaQCvoLVLRa986lZNRtsE46a7bybtSqFkRX3jY5l0+ICZfS7O5+xS3mhBgZXnGc3sd8A7iyyDNoEefseTWU9aqQedWzWcTyuDtdJWDdnpGSl79bZitABwJ+AI5q8cFEKI5fi43E/vZFqd0xtmdl3EtF61ICpj4l9jiy+rJCwsBNdBqP6q7smHOVJh+y+JGbzqitAVC6x40/yaLwK/ImWxBrGnkxgMCwqscAoXMX+K0FZgvGX26htmdqa7r49NM3cLgVV+jrJXQoiVBMtp0mrpY3MWIsTPa1l8Q+alfhak3S8Wiq+HFMJP/q1e9pLvs5h6r5n9PKYGl9xJYVGBVWSxzgLeHL+eQz2JRklg7dzh3OdlxzB/inC5wrrsonwu8J6KYR9dCKwxnRohxArIA7Qc5x7s7ju03JtdDbyP3qyQz77yejq3aMjx8kbyb7UV41nfGPDpiuZZMl2lKYss1ueAb5AKv+Z6YJRidZ0PcS537GI0dX7cj6/AgEtb+bmZfdvdJ0nTgVlgbUvqtqwMqRCiF4FzjFTa8gBgt0rceiMpw7WY/+s2QJ9HKyvWqUXDoRJYtSW3Dvor8N9mdv1SC9uXLLBiPnnMzM4pFN0gdiYX/WfdIgKr2qphuefbCpu7Evifin3tC9y+eI2mB+ePrBe6CdlDO5uQbbT8SK7xvEP4nFz+8GfS9ies8JiVfvLKRV57uE5L7a4rY/7U4GnROmh8qYXtSxZYhbKD1AviLbQKwfq1caYYDJPADj1yHAu9R3Uj1I9EZjTb1WHArQvxroC5tcO3NjcUYNeEnSzFHpZiW2vFRrJPOd7dN1WeO7WH5+cCFu+BtY+uz1qKqxyLvgi8PB6vaAebrgVWKP5GqLm3AD8lzTnP9UD9i9Ud4W0uHncSARfQOfW9VHv7ejT9GyuM+kjmTw+uBSFVPmdd3BYaoVdv3kHciuESU96FmOrGHtqJctaQjeTt3u6e/V0x7fO/wEXF8VvqcbDKQPSKyvvnFYRz7n5YDGpFvcRVzl79AXihmU3HrN2Krokl1dPEVM64mf3K3V8GvJ/WqsKx4ouq+H24DGzbLsRBNYO1lPNctma4GPhofo+wqU3AUUsV/TU9lp0EaLOL/69JqkfLt9m4tqaBq4FrSNO05XnbTGoWOxHX4oa4rq14z6ro0vU5HKPp0lZmSRuiT8dtSwTyLbSKctcB28VtMnzyeNjGePyuscD5by5wXduQ+/Y847INqQbqL0Vcm3X3jwJPXMH1ccNANLdoqATnfPxuTGvhkFj9QW9+3Ajf+hoz+0E0pJ1Z6YcsuWA5jHHMzD7m7ocA/1lkIhoSWUNFM87ddgs4Fo8lzX9j/v5atkxjPt/MvuXu44Xo2Bu4WU0FlncY2foi/2ejjYMvg+X1cZuOQPnnGD2dHbe/krKGF3VTA+Du+5GygMcCdyEtBd+J1tRIGbB1fdbXxpqFCMobrf8J+BrwPdLWZX9ebGQd1+zuwJ5xfe1H6h5+UNxvCkG2Pm7jC1x7TRaedrYO2Ryr2THO/99x7n5GJYB+rBBYKwnWOROWC+urx+imymDVSnSXfvGdZva22LNyuhcfsNwVYTkwvoY0n3wKrQ0RJbKGx7iyY9i4gKD2bHDuvpwMlheCw0m7AlSdzh4xsiuzLXUZ3VDJKNgSgkfOOlwXYurKEFG/Ie2M8FvgrFgu3ilQNkKMLvh9zewvMSr/PPBCd78R8HjgxLhGG8pmDVXW6lzSMvG3mdmZFZsYa7PrQjubuCBE+o/b2NU2pLrHwyOjc1iI8u1JWdCNtLKhjSX8L802Ga86xILSrxwb/1/pz75DakWz0zKujbKdzeUdfEh+r1uiFYR1uuaybf8v8IxIHk336oOWJbCKeqwpd38+qUj6IbTmuTVdODxGRnHB+wLOiRhNLzUol8H8ClKrj1KkQ6voczpG1XU4JuW8fPn/zgDXxnedLS7Q2fjdVDx/doip34eg+o2ZXdYu0+DuE3SovYk+dItuTxUB94a+P2b2e+Dp7v5fwIuAB9FaLaprtL5Zq8uAzwIvCNFM2EfOInm3DQ8LEWaVgYEB15nZj6viK/pEZcF1I+DgyH5tF5muySJu5AC1LgTLZMWW5mhf97Va9pYHGcfE/3Jl5br+X+Aflnkux0jlD4stBDpiEV8rBieuMj8AHl9so9QzlpvBKls3XOruT45fPyQMbY75aW458HpmsKqPO130OcBfUAgyX4JBZy4DvhpG7CHUx8Khw+pMD1adfg4K5Xe5IJznH0hbJ/yeNBVwdTjqZjy+mFSDMbeAkCoFlIeAWvFcf0wZ3bCHVgTX8chiPM7dPwS8jLRSM09fjOkaXXVxNVv44R+TCmw/FzYzDswttxakmEb0BQRYtSXKFWb2PdJ0ZPnaBinTvEtkuSzsdgOpt9RBpGn+g0mNi/di/vR0depztYTWHGl6dGeKvQjDF30mBJYv0xddSJuFQFGPNevuh7NwvasYrLiyGPw+3szOCz0z18sPHF/JH8eqiHEzu9jdHx8j98cUIqsMVCtx4ou1gujlaMCW+dxa4MI4x9t0eT6rjvRnMUqYoFWfsAOtneVtFS+4bK9jRbbuD8D/A74MfK2biy+m9CZpszS+F0WTSwyuMxFEJ8zs6+5+F+ClwOPC0TeLYCKRNXiby+LqKuCDwDPMbEshrGYHYCNzbQYCpejKtzkzO4/USHNB+wfuCBwP3DYE1641ElpWZJJ+VXnumyEax5d4PXjhM67s8JlOWsizQZfAqg5oyu3a/gQ8wcx+0qui9p4KrLhIc9H75e7+T6Ri3ScXF9UsW6eoq6Ko28fzpkH6LHyatF9VYx3uGeJswGJThPn3FxUCa6lsAb5UyRI5aRXcfsXxswFdcGUDwrLB3F+A7wKfMLOPdhBOzQ7HK2ekputyYiOITsdA6Hrgme7+beBVEfzy+RhDdVmDsrtm4X//TJoOfH/OWvVbWHVhLwtlvDqtMMw+ec7MzgDOiL95AGlm49hiIJVF3WrOctwoylzK6fcrY0B1Z5Y2fZ6P16XMXwhE8X82gZtXBJaus8Fdc1TE1R+AU8zsjF4WtfdcYBWZrAap9uOl7v494OkxkikLqOeYX08yxsLLhrsRQbO0lrPPxu/mKiOz/Lvq8tiJ+OyJ+C4Txe8adJ8mnq2cSGsjKussvJYqsJYyWvRCYH2ljdFvR1rpNAiHUx3JzBXXwDkhAE8zs+9HcBiLYzMX2avpYfUyxQa342b2SXf/DfAGUl+gsSKborqs/trdXHG9/b9w8r8KW/PVFFcrEV9tslg5C/dp4NPufhTwWOBupOnE7DfHKgGwn3ZX+uT94ztOV+LTlwqB1a24KjNYVy+QNbspKnAfuNkWGiDH9V8ATzGzb/RTXPVMYMXF1wSa8YW/4u5fBx5J2v/piMhSTHYwsOsjAF9X3LaQCobzCqzpeHxtPJdv18frpuNxLjaerQigGVK9THnRbIgDnvsIrY/fbRO3beOWV9VsrDy3fdyPL3DxzbYZ5VGzUcyku28ErmvTv4WKA9myiBhr93cA55nZn/MIvSjA3YZU19Hs87Fot5lnnp75FPDWqD0hMlXNCHZzI+NpWtOG68zsLHc/idSx+JQ4FjPFIEQiq/fiKh9fJ00JPtHMruzX9MQq2tkNWdw8SMkF9e5+DGl16wOYv+iiMSB7y5+xZzUWRR1WOQhsLPEcX5aDdcWH5scHLMF3it74++pA+v9IU/G/jOuur4Pm8T5cXNO5x5GZvRt4t7vfmjT/fBBpSqhBq1HelXHLj6+K2xWkxopX12FUF//TDnHbKW67kAo8dyMVTe4Yt53jtrlN1szD0bYrMF0twTUJbIr6j4W6uZcCa6nZom+1+X0Wueto1T70+2KbLc7JN4A3mdnHCmE11++LrgYBcCoGQle4+xNI06IvDjvIIkDF770VV9NxfKdI7W2eHwF9pMRVG1ubIy26aJCypz8EfujuJ4SwvydbL7oYBLt0GOz/hjTVt0OX9l8+f3kWlblesyhwvxELtMNZRdtkGaJvsTrl1fIb7WYocjZ1C/Bu4N+jnGl8ENfdeJ8uqtli1dRcu1UpSxQ3eSqxUTmQSzESp/sC9urUXi44vThunb7nuhgZ7UVq7rdv3Pas/L7aaG66IrgaDKYeJr/3+hCGF9BhMUEIrytIWcRuj2nmujYCi+KzqYwy+nHB5VqrCVIa/83A683swtwmYdSFVbuBUNj1K9z9b8B/kzKyWmHYH3F1NfA8M/vvPGgbZXHVLquVfbmZfSpmOZ4KPCkGpIMUWTt0yFDNAl8n9Y9rduGDy+vjqg6xxEn9xjYO0PbKgu6yZrTaXb66oKEbqu9X3WrJuhBl3bxmoec6NXrOt8ni/H4LONXMTi8E8ECSNuN9vKBypqYUSOVce4P2e7Jt9bs8ClrlDFa7XjL551zcOUUqWv1z5W8nSOnh/UmFxWVH5UMKkZGNd7oiKPsd6DbEiK6tkcdIO0/tXb8EwZrP40xkiyiKSvNz6/qUvavWveTj+XPSUvhP56zVWhJWbQZCjfTQ3uPuVwFvbxPsJLKWb3tTYeOXkuo+PjhoJ1/TjNaEmV0BvNjdfwQ8l7TqsN8rW7M9b9PhvacjIJ+4hM/PmbBrFxAGh1X8fL98XZP5qzWX0ii2WcSf0n83QrA4S6tNXk1mSIuVvgC8L9ow5PZAA9MS44O8qIbcMSxa4Flp9niDAItR6u/i9uV47bYhsm5Eq6PyTeI22Sa7NbYEtb9UNpKmORd635zG39JlBqt87rzIFJV9Rtp1ke+VQ63WW+Vj9z8hrn5XZFfXpLgqMws522xmnwiR9R5StlX97Hojri4A/snMPh/XfmOQTr6mdjdTLLr4nLv/Gng+qc1P2dW+H3bnpExto8Ng8ptL8Ed5BfJMB4GVm29XBVYvM1VZHOXyhzKuX0YqAfhbiPzLae1rmve2nKK1UKwUWOX/N1HYdV4UNl7c8u/WFd8hP871zXk/zOprxovX5fewIg6OVWJirmfM33mKVh33haQ+hT8FvmVmf41rblVW547LH/ZfhFW7bMdrr4lsys/jNRvjIjyUtNrkGOA2hQDxMPwxtl71t1wHlP9uW1ITwW7e65plfOb3K9+3LALdWMkK9trp5GP1cuCVUVQ8udaFVRu7nQmR9RV3fyjwAdL0tkTWysTVucA/mNlXc31jpTWA7C4Fvz9HL8VzSDsP0EeRlQVWp/c8O/zcxiV89rW0yie8jY89tM1zK7Wxsp53ovB13yd1J/91/C/nk0pbLo9WLYO/MFL5TBZSk4UwW8f8TclztqwUWA3m1zLnBr1ZYM3E9bYFuNTMLik+N9eDr0q2WAJr8MJrriK6suDaAvwkbh9y9wNCcN0CuD1pA988nTYT7zdOb5Y4r6e1XY0tcmFfUxj9Yk4gZ+C+t4Bz6WVn46q4yt/xGcDriqlOiavOWYUJM/t/IbI+HHYhkbW0wJe3fDoPeEQsB79h9wIdqq3sbjayetOkKcNLgNdH4O2HyMpZmU4+bCpEyl1ZfHVz2YamnXjJuyrsXLy+sczv3C5blUXIL4EvhrA608x+00Ho5JhT3Y2jF0XuZY83D2GTy3ym4rgOQszlaczmak/DS2CtvuhqVgw/d03OtVxfcPe9gSNJ25zcK+7zhTZTcRZLdUR5Cm3vLjNT11ZGUJ0utPzcbFz0nS72bZeREVtM1JVO7HFm9o584a3FupdliqzvuvvDgY8Cu7P1RtESWe3F1UwEvQsjc/WNqEFtSlwtaHfN3CLGzN7s7luAtxVCoFd2180m99PAj0JgddsX7rqqgIj/Z87dq3W2S+0SX5Y7zBZZnyngE6TeXT9usyn4eBEnKAT+QEt2OqxMX2qRe7fHyrvdv1UCa+0Jrrk2KnzOzM4lTTV8yd0/SNrz657Aw2h1VZ9ifkFjt0uMs7PZuRBECwWR65Yodq7mXD0yAAAgAElEQVQDft6mazIxAtuml4ex8tlPKcSVaWpmSSJrPDJZDw8nvpn5WUGxte3lFheXk2quvhLXscRV9z4wP353HLtTmd/CZaUiq/z77Tt8j1l3/8kSMzu5F2P5N7n+6mDml0Is9XvmBtq5j+RfgdOBrwE/NbPLK6KqaWbNugwmO9j+mrgeJLBqPKKjkt0yszkz+z3we3f/EnBajLIeTas7chZaY104pPK5ze6+t5md20EMUbnYFwu0+X1/H1NzVhnZ5ZYJvchgtdvE8wXFcnhTgFuy/eUtsM5w90dGJmu9slcdbS9P2Vwbwv6zYfOaFly+DZ7m7ptIfcNyTdtKj2Vpu5sWeN0vuxQCZaZ+rsNnHcT8bNliZRhWec9cGvKLEJxfB36VfXQIUeokqkRLYYshGNkVjesaIYCujv5iLwPuQ2ra9zNa6eNpuuuOnp/fsRBpC/3N9XSfXnbgxws4qknSVjm9ziS8K47LQiMosbjdzYWtfZa0zQksPDW8VsVVk9a2Ky8ws/cXBe06ViuzwdcCrw6/NtVj+9u8wHOXkhord7u1zTTRlqiDwNqwiB1VM1Y5a7eOtKXSycAJZvbfZvbLmFIdy5l5ZeclsERvHE6zWFrfCPH1WzN7O3ACaZnzL2k1Wpuhc2PWUkh1K7CuZutUeCeaxUiwHeuKUeRysyLVFTs/Im2FMNdh7l8s0d7Cib+f1KtIImu+uCp7Nr0lBEEcOomrHvEy4PPhL2Z7aH87LvDcFCljlDdqXox2Re7Z/xy4wHeu1lhlYTVJ2jD7QcBDzOz0qMstM1ZzsjEJLNGfwOdtUsR/ie2JjidltM4lTVvkza7L7r5VJ7A9qSdXJ7vwNgJrMcEzB/xqgZH8JAun6bs+HPE/XgM8OhoYKnvQQ1uLh68gTVGsdZHlbf7/T5I2uGeRKXaxdPu7HHg2qZ9Yt4JnMX8BsMMCg7ApUpuDxQaS+bl2bRry/Z5t3qfaHDQ39p0kNWV+IPBQM/u4mZ1f8fOyLQksMcgsQ1yAeVri3Mho3R54Ca1GpTMdgmOetz94AYdyw4amtF+OXHVe+W/OXOC162il6ZeTbSqnaBqkzNWZsog+KIpWHdu/kKYsynO21oXWj4DHRK3hmAJgX3zcmSFgG4W/Wqnd7byA35kCflt8zmKfdWUMPil88WzUkG1T8Y9eEVa5z9N3SLMQDzKzT5nZRRW/LruSwBKrnWkoLsi/AP9B2mj7M7SyWU3aL3ve3d23L7ost+NiFl5JWDqiS2ND4U77UOU9EFca5BqkXdLfIyvon22FyLoW+HtS88K1KKyqov584FHRwHZsrXdo75e4j4efAd5LyvL0Yqpwp04xMHzpbyvnvJ0t5M+/3MyuLv42D0j2p307iHIj4l8CDwbuZ2afzo0yVccngSVqLrTMbNbMfhZB8ZGkabRGxUFl57EbacuedraRL/LzaDUb7TSyy+/3h0W+6nrSpqvdFON3EnJ577Knq4HoYOzKzM4BHlEJPmshCFTrrq4NuztL4mog4n4L8EbSpvO5Cemy3jLud10kBv6lw8CxfB8vBp55393yM6oCK/urMVLX+n8E7mhmHzOzyySsJLDEkAXEeHxNFCrfnNTXaJxWqj07gz06Cay8asXMzqNIhS8ijH6/iKNYH85nbhkCK2cRxoA3ELVeYmC2dQbwrIpIH+WAUG122QRONbMPS1wNVNz/BHglrQU8K1nIsvsiMXALqafZOJ3LJrKgurDiN/P32o/52501gKtIu0vczMzeVfaxkrCSwBLD7ajOJjUofTxbF6RvS+oY30k4jZejtUWCqgN/WuTrbFt89lKDXf7c64HXyCmtCm8gbc+RBccoi6xqtveHRFG7xNWAFG4UeQOfDt+yjuV1JC8HlAvFwGlSFquxgB8aJ2UyLyh+V37GPrRaNDhpC6BDzey1eTGOkMASoyWyps3sbcBxpCxTo3BUB8b9bJvaqZyS/03FfjoF1bM7fH5+n90KZ7SUkWiZvXp74dzEYO1oJoT6lYx+Jqv8n64EHptbWMgSBmZvzbg/C3hn9lOL+KBONIG9uhBY53R4/3KQdw5pxXY7gbVvPP4EcKSZPS0XrwsJLDHaDut7wJ2AT9HaNHRfdz80nJl1CDI/J60mhIULQM9d5CvsUckOdBvoSuf2DmUQVtWGzgaeHOdwrhJcRk1YZWH/X2b2y9yHTlYwwJPRymJ9hdQIdB1Lr+HM53E9Czc6nibVnLYTWOXGxn8qBpPNyv2FwN+Z2Ylm9judQQkssbYC5AWkKcNXxq/2B27cwT6y0/hBOLfFAtO5CzjKjRWB1a2DLDtnf5a0L5dYXT5KmiocL0TWqAiP6tTgz83sP7W35aoL3rNIWSHovH/qYucV0hTeQgLrgg72XA7yfmtmF0ctXq4Vm437p5jZJ3XaJLDE2hVZ15vZc4CnknrD3LSdfcSUyISZ/akY2VWdTfm7C9oIq+zYtimc21IzHjmwfSAvjRaraz+kRpBlg8VRnDqbJvUBUyHy6tla7jV2Lak1SymCl8OBC3zWLK3i9XbiaoL5vf4UT4UElujoUN4I/BtwcIzQpxeoMfkGaRVPo4OT22JmC/XLWq7AyitxriM15hP14CxSFnSM0cpilWLx42b2TdVd1eKcQKoF/TWt/n5Lsbd8Dg9Y5HWXtBlElos6fgH8pDLwE0ICS7TllcDraLVrqJKD5yeBvy0QSC9axLFtE6PHpWQ7nFZx+1dIy51FPcT5DGnBwVW0tjMZdiFS2vX1wPPjf1X2qh7n5U/A9wq/tBx7O6ToXcUCfqxcwFGKrR+a2c9jQKpaUCGBJRYNlj8ys1+3CybFNOEvaPWeMrZePbPYEuRNpCajS+llUxaWfksCq3acS9qvsFyVOsxipLTL98bUuFh9/+SxwGALacENdLedTbtze3g7/1NkKa+uCLvs6yZIWfSvx3PjOjNCAkt047wWEzxZ5LwjRE67bXeu6PD++W/3qzitbkeu2Yn+WEXGNUopxK4BwMcj8DSGXFx5YZuzwGt1lmspfs9mfj3UUs/x4YuIo+k2sTIPHr4BfD4ez+qUCAks0ZXIWuT5OXcfj9UxPykcXvl3Vy8QjCeAwzr8Xbc2+9fKSFPUw2bOA04jTePOMhrF7l/WEvtaCmBIZQp/XIagz35ne1I/rE7MMX/6sRlibg74hJldHhl9TRsLCSzRM3L26MWk7SSqgfSadlmOeLg9rY7xDZaWwRonFVRfp1NQS6F1LanTdj5fwxp4SuF/qs5sbbmIVquWpdhamTk/ehGBtaUQcNnvfQY4PXyasldCAkv0NJA2I4v19chYVIPSQhsvbw8ctQwbzM7t7CywNHKsUUqhJaD/QNohYJLhXVmVA/B1wNd0dmt5fiA1PD5/GQKrHNQdvcjnzBRia5xUa/gaM5sCxuSDhASW6IfImnX3ceA5tJr+WcUptWMXUkPTaZY3hXQeMKUzUDt7yIHmcuDbFVE8lP9S/B9bdHbraWtmdhWtvVGXmzE9bhGBNR3iaiIev9DMvu3uk7mhqBASWKIvIiuWJz8W+N8iMM0tEIBv1mEk2e2o9UIWzpCJ1bWJK2mtMB3W0X3+3j9leRsKi36foNa2OYtt27UYN3f3TR2ey/21JkJoP9PM3hV1V/JBQgJL9N/RmdllwKOAt5JWEO7S4bWbgDsU9rfUuonsUGd05GvN34ZcYGUu0GrV2sevq9v4iK7GAnE/Cdyuw2vWkdrJ/Az4ZzP77yiNkP8Ri6LeHWLFRD1Ww8yuAJ7g7mdQ2UQ1lvE7qf/VPWh1ZF/OiPMq1T3Uns2VIDas7FzYrqgnW5Zpa2XG6760Wi6U2fargFeRtuX6XWSuJK6EBJYYuMgyoGFmH23zfHZYhwO7kab4JlboUEUNcfdtgCNGRGDdmFbLCVFPZlZga1lkHR97HM5VBoV/A14YP0tciSWhKULRS5HluUdWu+0n3H0jcL8V2J5XHKqol7Aq23AcNuQCK3/voxjNjatHibll2lr5+v2AY9oNCt19IjL08jtCAkusutCa7bAv147AQ0mFoyuxPQW8erMdaen7Ss/zatMkNaHcQ6d0JAVWdfD22A7+bEZ1eEICS9Sd44CdwiEut/5K1FdYe5EN2I6l7TNZy38p7m+nszsUcWy5dXJ5mvB+7r69docQElhiqHD37YGnxY9jrGx1mRxgfc/zBHCbwr+Mwrm6s4LuyMax8rzuAjymy/1YhZDAErXhDqRpo5VkNfLfrdPhrC07AHcp/Mswb5WTuadEfa3Ji7WWY2vVv3miu0/GIFAICSxRb9x9PWnPQsJx2QoD1rY6qrU7x/l87grckbTqbtgzWPm778v85riiXucnD7iay3yPcouvg4EnxS4VEllCAkvUnoeSVmPloLvcrMYNq9SKLs6iDpGuVX91+yLYDXvWp7TTB+ks144sqDa28RFLPc+lyHqau++qwysksES9I5T7fsCrw3mNrcAJluzA8ntoif6d651CTMPK6+zqJrIerjNcW4G1XQdRvFz2Bl4XLWdUjiAksETtgq3FtNGppJWD1VHicsjCbCcJrFqyP2l6cGZEfMu8Pknufmed4hqdnFbWdNMKB27Wxj892N0fb2ZTUZMlhASWqIW4aoTzexNwN1r9kJa7GWuVXUn7h4n6nPN1wElFwDJGqzDcgCfqTNdnABf325Iy2qzQ5sq/y5s7v9Dd72pm0xJZQgJL1MHxjcW2OS8DHr/CkWUnJ7gnUdiq5dS1YSfgFFKPs1GZHiwDLsC9Yspb1IdNdNhYfpnn2YrHuwFvd/dbS2QJCSyxqiPK2Ltrzt3fADyLrVPvKxVD+X32Qq0a6pZNOJG0RU6vspR1ofxftgGeLGFfq/NSCqxe+ZfyfQ4CPuju95DIEhJYYjUCbJ4S3NndPxtBaKzH4io7wFlgd2C9jnxt2Az8G71dyFAb867cn+zuO+uU10Zg7UDKNPXK5trVYx0AfMjd/yVElmkVs5DAEoPIXBBTgo8CfgLch62L2Xs5RZhXDu0Wn+06E6vOw0j79TVZ+UKGOgby0n53Bp4V3b7lP1efHUklA71sC9JOZO0IvNbdPw8cFj7PlMkUEliiP5EnBZkT3P1HwGmk5c3laL8fzie/58E6A7UQ2TsCL4pz3ujjeV/Vf7Ny/xh331MbAK+68IU0PThG7/e9rIqs/PjewHfc/Z3AgRrgCQks0eugerC7v8jd/wx8nNREdLziiPoRZMsgfph61NSCZ0SQ60UbjjoH89KedwJeEdeCun2vzuBuNh7u20Z09UNklba9Gfgn4Bfu/lV3P9HdN+qsCAkssRJhdQt3/zhwJvBCUt+j6k72/cxelIHucGCDzsqq2sPhpMUMZY3dKE+ZlEH2/u5+p1jUIT86WLvLLRq2I9VH9TOWWYfzD6mD/F2AjwG/dfdnuvsmnSEhgSWW4tB2cPf/Bn4I/B3zV/B5h1F+v4PczZi/RYYYrE00SH3OxteAsNrq3yetXnulLGHVhC6kzOnBA7Y/q/i9zF7AfwE/c/f76xQJCSyxWADF3W8C/B/wpIpjGUTGqpODmyHVe2m0uHr8c4ze15q4Kv/XW7r7f0TB87hMYuDnYDfg0FWKZdXGpHngty/waXd/qUoYhASWaCeucrPQmwEfItVYzZCKSXvZdmG5ji1/9k11tlbFPg4BXlUJMGvm36e1mnUcOMXdb2tms6rHGjh7kOrhpldZ5FdrtaaB5wEvkfCWwBKiDJ65Weh2pNVhRwJTpK0jnNVvJFl+/q01Shy4fawD3s/8DXbXWgYrL7Zokto2vMndt1c91oBOgNlcPDy8jU9YbbsgfOX1pPrEE3XGJLCEyORR+N8BJ5C2Ppmkv6sDl+rIst3eHhW6D0x4x8NXA8cUgW1NxvhKUL8F8NYI/k31Ruq/Hbr7LnHccxzzmtgFhcgCeJq771m5hoQEllijo8O8/PnouJ+rYYYid3Q/mrRkWvQ3qDWi59mjmV+Lt9YDRpm1ONHd/61NoBX9ETF7FEK/UaNjbsV3mgaOBfbRaZPAEgqkeXS4O6kFQ7vRet0C21E6c321iVyPd3vSqkGJq62viznSytpnufsD43ipHqu/7EcqKJ+uYRyrXhsHx+BVTUklsIRGh6wnbWybf1e3YFo2HL2HNmDtm7gaj7qiI4D/IbXFkLjaWmSNkTKqm4E3uvut47hJZPX6gLemYI9aQNDUDa12lsAS4oas0DSpSDP/rm4jr1yH5aStK7Txc3/E1ay770dqpLjXAO3Ai1szxEuzS9v14vXVliL9FFnjtNqHvMfdDwuRpVVkvbPJLKT2Bu5YxLA6ZoZK0Xe1zp4ElhCZi4G/FcGpjiPEPDWzD9qXsNeBbCLE1T7AR0mrtbwiKPoprqwQV40QL40FxH7ZOsEqry83oO73954IkXUo8H53PyCOo0RWb0XL3sBxcf3Xqf6q3SAB4K8VgSgksMSa816pkHnMzGaAP7bJDtTNgWWH9XeajumpuJpx932BD5MKiZsVcdWvfSbze8+GbxoDzgM+G6K/03R12TrhUuBTEdQacZth6/3k+hH4S5F1FPA/hciSfa7cP2U7PCrO62xNY5gXtnANcIHOngSWEGWwOAvYQqtFg9fYfh8c31P0RlwdFOLqNrQyQP0WV9n2pkkZqOtITW7/0czuB3xzkb/PwfcnZvZA0ma87wauLURPPzekri7RnwZuBXzY3Q/NNVnKYizbNssFOPeNX49R31YhOfv6deAynUEJLCEoAtWPgO/H47q2asjf7RBSQ1SxzOAVNVcz7n5TUs3VrQcorsoO2JPAn4BnmtnDzexL8bqLFgmm2ZddGdmOL5vZY0htJf4YomduACIrv+9k/D/HAB9196Nyg0w1I10R+wP3JGWv6pgVLFeWAnzezC4Om9QqQgkssZbJS8zN7Bzg2xXHUedi0n9QdmBZ4moszvusu98Z+ARw80JUD0JceSGuvg88wszeEt8vZyYvWMT+8ve7MP5um+jf9R5SN+3vkjJjTebXZfVbZE0BNwE+4u73NjNXG4dl+SUPYXrHyqCvjtd83kbpWuA7EtUSWEK0C1ZnAOfG6L9Z4+/qwEPQcuiliqsJM5uL4PUw4CPAQbRqWwYlrmZCjHwJOMnMvltMp83E6y/pQhDNApfH4+n0L/qkmf0ceBDw+SLrMQiR5aT+WFPAgcB7/z975x0mWVX8/U91z8zmXWCXJDlHQUQRUFAJKgomDD8MYAJzVsAsJsCAgCAGEFQUVJK+ICgKiICSRBDJkllhYdldNs9Md71/nDremru3Z7pnunu6Z8/3efrpCd03nHtO1fdUVNX3GmFIGYb1z9M4/54FHGo/93Twhi9a136OxbK6+LGERLASVvPd4qDt/q8A/ugUEh0m1LyFZQ5ZbEbCyEprkrkEp6rqMYR4pTlGaHpov+XqAuAQEXnYLKiVnEvl6Trm3gCwMJ7DrEX9RrLmAocQsiJLbSJZ5EjW2oQ6Wd9R1Sm2znqT5XVEeRSfz3OB7enM4qKwaq/WC0VkSXq+iWAlJOQRd/qXmtLqpbOzCRX4RHpsIxKrksVbrVTVLYGfAl80EjBA1kOt1QHtGOmYBFwIvEtEFkRyVfC9hdRnwXqmQEFHkvUM8G5CjNl4kKxoqfsEIS5rW8vYleQyHHHezgLe4fRWJ7oHo/Wq1+b0zenJJYKVkFCorGzndQGZFatC6+sgjVawCbCLqu6dHl1NJdUrIlWznLzWlMAbHDnpLdiFt4JcCaGQ7WSbW4eLyKIicuWsF4vqJFiLC4icJ1mLCRmGlzC0tla7SjhU7PUq4AJVfas9k4qq9qZZWhPbAK8zktqJ2YO+OC7Az0VkfuzjmR5fIlgJCXnF1mOxA78zy0AnxmLlFeMX0tNbhViVjFwMqOosVf0WcBawI1nV854cAWrl84rk6m9GruYPY7mKWDyMUlVHsJYMM6f7jWQuAt5l5y+TZXzRQpLl2+rE2lzbAaeo6qmquqY9n54UEL3K/J1CZr3y49lpcmiQYKG8jKEJQgmJYCUkrGoRMCvWOcAV9rdWulSaYR15iarunh7d/5RTtFr1q+p+hKKdnyIkBAw4ha8tVlzx+P1Gru4CPuBjrkb4/pI6zlEh1G4bbuMwYGMyDzgMuNvI5WAblLZfN7E21xrAB4BLVfW1IjJoWYYpAD7DVsB7yeIDO9V6FXGWiMwz61UKbk8EKyGhUBl5K9avCXEwMdW903aPET3AV41crLbBpZaFF2tbraGqJwC/AF5kyqBC6+Ot8uQq7vDnEepc/dOUUKWOYyynPhfh0hzhHo5k3QscbtfjSZa2Ya5Gl2EsG/EC4Eeq+kNVXTtWf1/dY7NUdRKhllmnxl3B0NirS4A/J+2RkJBQr5Ar2fvvNGBAVav26iRU3fW9fHV9Vj6WR1Xfoaq3uDEacOPUjmcYj1+x935V/Yi7Pqnzvqaq6vIa54jHflBVn+3n7AjH7LH3d6nq0tyxqm2cr1V7LhG3qer73HX2rq5uQ1Xdzc2bTpU5/vm9JW5wkuZISBashHoQhcW5hHT5Tq1B461Yx3kluhoooliNvWoWmj1V9RLgJELhUMxq1ZOzKrXDIhAtZgA/FpGTIwmqJwBYVUVEltUx56qEzMT6zA5ZOZKfAKeT9TNsZdB73vKhbs5W7fdnA99S1ctVdV8RGTC34WpV0sE2Cl93uqqTrVc9BPf75W7OJyQkJNQl7Mr2font1AY7bEdZLbA8HDnRd5ORWLnfN1fVM1X1CTcOg222WuWfSb+9/0lV12j0mbg+dMtrWJei1ek+Vd2kQctYyVmJrsyNUXWc5u+g+/s8VT1XVXfwlrfVgWip6iHO6qodbL2q2HuyXiUkC1bCqHdqAGebFavTUqW9NSC+f8o12p1QCsmIVdmKaQ6q6rqqeiJwDSHjah2y4NvyOFmtYk+2XkJ/wS+IyEKztFVGccwlubmYR4WQoVj/pMlaQw0ARxA6F0gbrVhF87fsnt3ahC4Fl6vqGaq6mQXC60QmWtbU+UQ3Hp0qE2PXg98SOgUk61VCIlgJDUqSoMR7ROQcsibQdKBA8QpnbeDUDhfSYyFWFVXdSFVPJhQ1/DCwvn20mlPc4xEgHMldP/A9a4HTIyKDozxetY7zDY5iblfsuu4llPlYRntdhX7u5ivox3ten1Ba4lpVPV1Vt3JEqzwBidb3bZNQpbVdBcYyt2N5kwpwvts8pMzBhESwEkaN0wm94Up0phXLK8V9VfX42Jaky4lVyRGrnVT1J0asPgRsYM8jxvGUapDOdikfTw5+JyLRGlEZw3GX1UHA+kdDNmLWnjWHvig3n8ZzHpecMo9E693AdeY63NX1k5SJQLRU9WOEoqL5mDg6TNbEwssXA/+vzk1AQiJYCQk1lVCPiFzAqm0gOoVoScE1fUBV3x4LOXYbsbKxV3NnvUpV/0RwBb6TYKXzzYVL7t7HQynF81YJ1qu7sOKv0fI2hmNX6/j/wBjuOx7/g1iT3g6Yx3miFcdvDsF1eJWq/sUq80sc324lWqq6L5ag0smXaXOll2AxvdA6ESTrVUIiWAlNsU58H5jP+LhS6lXy8efpwLdV9WUxc6yLSK2q6saq+jlVvd+sK/sCM9z9acG9dwK5WgacKiJ3Wd2pyhiPX2nDWJdEZCFwJCGea7yJihQ8V//MpwN7A+cD96vqVy1Oq+vigFT1OYR6e5NyMqXTXIPi5uLvCe3EWj4/ExLBSpjgiD3TROR3ZFasThOEUkCy1gHOUNUXmyWoo3f4qjpTVd+sqpcTrEBfAzZjaJkFr3SF8S/EmCfZfxKRU1wQ+VixfIT/VwnxXjJagmFzo2RW2ktq3FcnEq0SsAnwOeAOVb1KVd8asza7gFztSHC1rdWhMiW/gegllAS5QEQWm0xMwe0JiWAljBnRDP5dghWryC3XCSQrr5g2BH5lLUk6Shha/MwsVT1IVX8JPEKoO7YfMCU3vuNppRpO+cT3EvAQVlG/ndfQDBeNO8aHCRmznUKyyD1zyc3v+LfJwIsJGb8Pq+pFqnpwp5Ita9B+BSGOMD/HOxHRUnUpoY0YjCK5IiERrISEIgUUrViXATd28I6zaPe/LnCOqn52PK1YlvnVq6qbqOo7CW6GRwiNtQ8BZtYgMJ3YLsS7c6JM+Y2I3NQk1+C4EF4R+S9wLN2Rdi81NjgzgNcA5wGPqurFqnqEzbu+8azZZJuK9wN/IMQSKu1pOD6WOR6tV0uA81wD8WS9Shh2N5SQ0IhwLJk7ZW8jB7Pp7LiJIhJ4BfBx4PZWB6eqah8hLmkNYFfgpcDLgB0LrpMCq0knr9W89ep2YE9TQoxV+RjZUVW9Fdip4CNVO+9tIrJznc2j6z633c/2OUXb8UuUYqubv/Z/E/rmXQX8HVgEDIpIf4vXQi+wOXAC8MouGdc4jrEbwkXAwfHviWAlJIKV0GxB2WNB4xcQ0qo7XVB6pRMDsQcJZv5TgDuBARFZMYYx6bUdbi8hWHcTI1TPBfbIEapIDvxa7BZSVTSmQoiT+qSInDbGmlcdQbDs/AcRCklKl5GsWmTLx2153EGocXcT8A9Ccdh+ew0Y+dJRjuEkWw9bE8pMvIesPZDQ2RZwb70qEZreHy4i5zVrjickgpWQUEvx7ULowdXJViwKlGOsGRXdJPcCfwRuMbI1lxDIWnWfjcqgZK9eu+9nARsRAtG3ALYFtisYg4pbe3lS1Y3rUXPy5HoR2b2Zime8CZZdw1WEuKauX7YFv/sK8nncba97CHF1D9m6mG/Ey68Nza2NPkLdru0I/TD3t5/jOhDGv6xII2MWN2UXisjrWzHPEiYWetIQJIyanVu7DhG5xRoLH9oFZMFbIXwRxyqwlb08VgIL7H2ZKY0+YBrB3TdcHGMlNxZRoRSNUbeSK38vS4Dv1FDk3Y7PEWqPKd1NiGWENaE50rWNvWrN70WEchbLCVauSYSkjDUIwfZ5DBasg06e//nSI/dw2HMAACAASURBVPOAM5KBIiERrIR2kKxBi1P5MvAqs+Z0m6IpOSGaVzA9hMD4IkVUZWjtG6mTTE0k4eyJ1O0i8puJ6DYRkWtV9Y+EuDmdQM+v6D68VanKUNdi3mK5BqsmXsTvDeTWhRhJ6UY3eMQVInKJBbYPkJAwDFIWYUJT5pGIPEBIC4fOKjpar4KJhKhsr14jV6UcofKuwrJ9ptd9Pn6/xKqlIiYcv3bvy8isV9Vxvp5W4Zgc0dAJ/EyL1kSPm+89ObJUza2Pkvtst66JfOzVI8DJ4zzHExLBSlidYGUbSoS6R49PMOLgY0r8qxMKe4638vEE4x4X9Nsq5TNpJHmmqlMAbVEJjr8Bf3Fyc3V89vm1MdL66OZxiuQxxqZdZg3L+1LsVUIiWAltVbgiMh/4Vk44JUx8RTsInNaGnX1fHZ9p2fktg+743HnSHJ+4Gwj/nO8Fvmk/p6zBhESwEtqoba2PG/A9QmuX1XWHv7ooH08sHgd+HmujjaO8ilmdrSQ9V5myLSVyNaHnt7deKXCuiNxn1qvkHkxIBCuh7SSraoGfR9fYDSZMsEduO/yLRGR5G843oosQmNTioo8rgRPJGv6mTcTEJloA/wS+aWUZ+tOwJCSClTCeROu3hLpY+d1gwsQhVp5w/DAS7Baft6+O6+pp8dyuEpoSD7Jqw+WEiUGqfGD7SuB7IrIkkemERLASOgWfJhQiTMpn4ikgX6bgDhG53dzDrcbkEf5fZmhj7FZhnpGscprfE5pkAVwtImeaazDFXiUkgpUw/hCRW4Hv2xyrkqxYExEV4FdOKbV8Wo1wLiHEYNFKa4O1UvqFG4Nk2Zh4xEoIBYa/YL8ncpWQCFZCR+EbwKNtVMAJ7SM5kVycZ6SjZc/XEiimMXLaf7ssWBCaI68gBbtPNHLlSdavROR6KyqaAtsTEsFK6CBNLPIkcJTNMx+zkjAxdvl3i8gDLao5lUc9xKkHmNqmcVhEiDMsM7TaecLEwH+Az1tmbKrYnpAIVkJH4tfAHwium+QqnFj4oxHpdjxPb8EaTp5FItZq0rcU+LP9nKwbE2PT4N+/ZnX9kvs3IRGshM6EBYbGgPfBRK4mDKqEqubtwvQ6PtM2C5a5jK5zCjphYpAsgMtF5CzrSpAqtickgpXQ0STrX8BXCGn2AyQr1kRRSNe18XwzhrEmxL+X6yRizcJcQiB0T5rPE4JYATwDfNR+TuQqIRGshK7AacCNRrIqiWR1rTKKeNhcKK09YRbfNYuR3TU9jmC1w7WzAriFFOje1fu/HMn6uojcZUVF0zNNSAQroQukmMjTwKdMmFWSQupqhQTw7zafd0adBGtGG69pGVlbqDSfu3PD4MnVNcAJqirJNZiQCFZCt5Gsq4EvEaxY/SQrVjfjvjafb406CFavfQ7aY8FaCTyYCFbXbxiqRpbfJyKDyXKVkAhWQndtFTNXzw8IwdGTSKUbuhmPtfl8s+skWDPbuGGounFIc7jLRBJDW+IcJSL/TsOSkAhWQvdtE21XaLWxPkNIc/eKKSmo7sJTbT5fPRas+DloX3r902kqdC25UtOBF9vGLyEhEayEridbfwOOJMTM9JNqzXQjFrZrutj72iPMk1iLas02j8MzaYPQtSRLgSeAD6Q+gwmJYCV0v1TLXIVnAWcQXIUpHqv7sLLN55tTh8L0BEvaNI+XpanQdcRKCIk2JeAdIvJIGpaERLASuh7WV05EZBlwHPAPQtB7isfqLqxo8/nWGW5auZ9jJfd2ZYGlbLPuI1eDBOv5F0TksjQsCYlgJUxEknUfoXTDIhN4qZVO96Dc5vOtO4LijJikqtOBSpt6JCZ0B7Hylqse4HfACWloEhLBSpiQJMverwQ+XiAINRGtjsaUNp9v9khTyt4nA2vb/JJWz19Cj8SEziZXQpYxWAbuBj5oVvSEhESwEiag5DMLg4icCRxjwq/C0OJ/iWR1JtpSDkFEqqq6NpnFTIchV5H4rdvGcZiapkLHkyvIyjEsBA4RkUfT8CQkgpUwYRFdhfbrsYR2OtFVmEhWZ6Pl2XpubmzoZNVIVqnJjmC1w0W4VhvPlTB6chVjr94oIrek4UlIBCthtSFZIrIS+CxwLsFaoYlkdTTWb+O5NmTkmK84T6a6a2sH6Vk7EayuIFcCvEVE/pSGJyERrITVjWSVRGQh8BHgAjc3vYBMJKtzsHE7poa9b9KArJoKbNAO0qOqfcBGaSp0JLlSMregAIeJyG/S8CQkgpWwOpKsqpGsJ4EjgF+ZYCwx1GWYSFZnYKs2nmtT6stajJW5N2wHwSLUcNusTedKGPnZ52VEiVBj720i8rM0RAmJYCUkkiUyH3gn8P3cPE0uw85QZADbtGNK2PuWdcqqWM19gzaNxRRg2yRLO2JO+kzB+POTwOtE5BepZEdCIlgJiWQZyQJWiMgHgaMJdbK8AE1Ea5wej/t5pqq2y4q1ZYOfn6mqk4CBFivWqcCzyYrkJowP2Y9yoep02i3AK0Tk96padmU1EhISwUpYvUmWxWX1isjxwCHATW7OxoKBmhO2SYi2F7u1SYGuVyeZjiRnJrBpq2thkbkuq4lgtZVU+XlQJWt7UwKWAKcD+4nIP1S1R0RStf2ERLASEnJEa0BV+0TkUmAf4HjgP/bvcm7nmtB+2bFXy7RoyCytquq2hNIdI04X9/MsYPOCvzfz+nqAF7qxSOS+faRK3QarZLJgGXANocbV4SLytFmuUhPnhESwEhJqkKx+VS0Dy0TkaOAAQmzWncCACVdv1aqQuRHrsXokjB77RDLUikdv7zsQelU28p01yNyKrZJxU4F9W0niEqEasn7Vre2SW/dPAX8hdIPYW0QuVtU+I+jJcpUwruhJQ5DQBSSrYoq8V0TuBT6oqhsDbwH2I2S0bZybz9F1IE4J+p9b7T6asI/Djd2mqrqdiNzZQoK1I9DboHKeShaE36pnvBawN5l7Ks2lsREqyZEpT7J6cuO7GHgYuA34jYhcaPKhR1URkf40pAmJYCUkNEa0YtByr4g8DBwHHKeqLzZrwq6EmkkbmBWjVCDIB2sQrrwyTiSstjKMKAFvAo4xi0EzrYVx3HdtUE7FZr6bF1xvM/Eis6JEK2rC8HMl/7ei92iZkoLvzAUeA+4F/gpcJiIPGbEqAyURGUhDntBpu9GEhO6T3CHTsAxUvStAVbc3pbwTwU20rr3mUF//PO9irEW86vl5IpMzf2+3icjOVl6j2sTn2yMig6p6rz1HrUNmxeKSZeBm4NUiMrcF19YHXEKwnlZzZH2iPmsdhjyN9HMkTyVGdtlWCW6/J4F5RqruAP4J3CgiT7nn0Jtf/wkJnYRkwUrozp1BUJhVt4ONZOsOE8hRCG8AbEHI+NqUYN2aTbBwrWGkayYwg+BaKo/SIlFlaMB9kXWslFNW3aqUPYHcVlV3F5G/N8uKZccZVNWtCQHrjWwI42fWIbgX57ZgnDcxcjVR3IOeROXdc/kA83KdRKkWBgmZfovttQhYQGjC/ATwKPAgcD9wn4gsKSC3VVvryWKVkAhWQkKLyVYMbo+WrRizURGRx2wXfHVOUK9F6CO3NiGeZjahgfFMU+rT7DUl95pc471c5+58gMwVkrcGdZNCjugFPkFwFZbic2gSgdvDSC91jpX/37OA5wB/tLFuipXDXNTvbJD0dfIzjGM96J5nPegHlrvXCnstz72W2SuSqYVGqJ4G5hMsVU+IyIoa4z2ZLJ6ymuKrEhLBSkgYP7JVBWLmYcnS6SMiARoUkadNyN89gkLtc2Rrmin8+PK/z7Dfp9trhiNraxqR24AsIy6mmffQvRatSHj2U9UNCdaiZiC2R3qxjWmjZKZipGrnAkI4VswBDifLZtMufm5qhL/XrY1ltiF52sjQIiNH0eq01N4jcVpqr/zvS4Gl9Vo0bZ368RRAaxGvhIREsBISxkN7qG4kIo+QWbX+Z9EyAa5mici/vBJXggWs33brC0ZxHTMIbsi1CC6rTYHtCfWjdnWWgL46LTQdw2NzpGUN4LMi8oEYO9Wk8+w2CoLkr20LVV1HROY1MQj/MCNZFbqzzE2cY9Gd3WuE6UpCMd+7jWDNN5K1SERWjmEt5l3utdyP/2vO7K1Uqro2sERElifJltB1G/40BAkTjFwJcKyRmquBv8ZsI/eZXoa23VHbLWuN48HwAe/598pwgbequg2wP/AhQjmBATK3ZreQLM1d7xPAXiJy71jITAxIV9XdCIHkcxock/g8S4Qg6feKyEXNIH6qui7wb4JFUrpQhnpyFcnhr4CzgWtEZGGtZ0IWd1VUX67m3/w8qLGpkbzbT1VnArvbGtkYeL9ZnBMSugrJgpUwsXYMocXO+sChhBY7/1LVmIV0G3B7LWFtxKvE8EG+hT/ns9RqELMSIY7kbuBuVb0K+A7wMjJXTTdtzvxYrAt8DXgzwSI3WqtHdA++jmAZy5ODejeNVYLV8IXARU0iQl8gxOrVyqzrFnIlhHiprwInRDeczf9VAt1zCSW1MiYLy564zyvBNV+tse52IPR13AXYjpCgsCHBurbAqrKnbMGERLASEsYZD5tCmE4IlN6D4NJ5EHhUVR8FHgDuAx6y19yxuEKKiF4BIYsuy7Lt3G9X1bcBv7DdenQXdlNcj7diHaiqrxGR3zbBYrQfo49Pi+7gErCrqq5lrVPGYlnbAziC7o+9qhiRP1pETrJ76yFYXQfqnNejJpaq+iwjThsTsnu3ADZyf8uXUnnCNk3J25KQCFZCQgdgEVlGW1QIvU6g+8/FYPdFqvoMIdZqnv1tgX1mCVkg7wpCxtWgESKAsojc3wD5ikSrT0SeVNVPE1w129hxu2Vd5qtvTyUUHb0GaJjQmHtwUFX3ATZzx2001sl/Z1fg5cA5Nq4NpfYbGe4BTrU51I2tlyIZjAT+JEeu6u7XZyRnNiFxI7q1+2yspwKTyBI9ZhEskDHBI34vJn2sSXD/5omTLwRctvXWKMFOSEgEKyGhRXjG3n3dKR9vhQnvKPA3KzjGIFnqeQx0H7C/R5dJbMVzm6oe1qh1xPos9orIrap6BvBNhsa5dJsVC0Lm3rdF5J2qOonGXIU9Ns5HmEL2x5ZRXNOgWUT2N4LVULFRV+z0ZILrSuneIrIVI0P/AU5z5KrSwHxVI7/fsM1HH1nl9R5HuPqMbE229+GQ76xQzs39hY4kJiQkgpWQ0CEEi5zwzsfOFDWFjrFSPWQlF0bCPWPIUItK/0LgjcDz6U4rlg+ePkxV/y0i31bVyfWk2pv1ql9Vdwb2dGNTGuU1+fdXqOr+InJ5va5LI74Dqvp+4H01jk8XPaNBIy8/sBhARhnTtJShVuB653hRAV5haGucoti2xUmcJXQrSmkIEiYgltaheCORKrv3HrcmlKHV2aPFyr+ior5x1JpPpGLK/D7gGq/ju0yBR7dcDKL+kqq+TURWWLHIkRBLVRxJiMkZayB5vJ4BYH3gEMuGG5FUmOt2QFVfa9aabpeTVRvfJXGO2VjUP5hZDFR0ha8oWA/59aLuOfr1FddcPmBeGljLCQmJYCUkjAMarZkjBeQrEjD/KruXr8Z+T5Ou+waC9a2H7nWJREvWdOAkVf0/I1mTagUqRyuXqv4fcFDOmjGW6/Aup0OBt5qba9IwRGKSWdIOJLjS1sgRhW6DOtJ7FSGhYywEfhmhoOxkN75+TfjXcHXm6sXKLtxwJCQkgpUw4QlWK4Wyt67cOcZjRavKrYTMRli1PEQ3EKshVbgJtch+qKofjhmaqtqrquJekVztBHyZUAG/SnNinaIVK7rHvqaqu4nISiN8JXcdPRaTtFJVDwfOANZjYvSNjPPrRhH5LwytT1XXQbLPLwfubSPpWVaDCKeg94REsBISxgHtqJejTnk92oRjQbCEPdbFO/Y8KVJCkPl3VfVnwPoiMiAi6l4rVHVP4JeELEplVdfRWK4Hsl6EGwO/VNWXishKEam66xgE1lDV04GTCDW0up1c5efRXUZOymM43nIyN6G24dortQhfo27OhIR2IwW5J0xELGsjobiPBlP/ayiLPnNNPd7lY59PJlAjOG8HXqKqfwAuJlR+nwO8Hng1WdZgEVFrBhGO2ZlbABep6m+B8+061iVkGr6K0M4IVm2G3M1NnWPh13lNWlueYLVybJQCd7+qrgGsJSL3G8nSJrVBSkhIBCth9UQDdZXaIWyjYrmnyef7r72Xu/hRFVmyhBC8/h5Chf1YCHR6wZg2U2kXEb6ZRvheT9YYemrueicCuYr3UiJYWReNdX1YUsb9bVxn1YL1P4MQ3/cfEfmY/a9UVCU+IWE8kUysCd2jtTtzl3ofDdZXGoEUPkGoBdVtrVhqEZs8uYFQjHKmI1dKa2tMFRE+fx3TCq53IpCr/LxaNNYNjv34YBsJVhFiTa+PquqVqrqz9a8sk5CQCFZCQkOCfbqqHqyq96vqXjlhP15KKyqX+5q0c47He4qQTj8hOHENcrNKv7s2EBopONdw1wETo3p4vJf5ZCUPxkqMFjG+tdoG3b28BLjauiEkC1ZCIlgJCXUSqx1U9SRC38BzCRXXq3Uov0ktvjR/7vubdbv2voD2xZC1k2h5wlX0agehkTquZaIQqzyaOa+WE/p9lml9pu6kGgQrxmYNEFyG3wQuV9XtkuRMSAQrIaGYVE1V1YNU9S/AbcBHGNqzrJ7WK31tvOT7m3y8xWT911LgbkKziLufV2PFMrJ6Wq22GhWt5YEcWYxWx32Bv6nqB62BdUJCIlgJqz2pElXdwMz8dwC/A/Zy8zPWRVpM1mB5OExusSXCt9d5vMnHbKYiTEiI82qRiAzA6GMZc7WwHmnDJkDcWvbnH2BVd2ckWdOBU4CLVXXb9PgTEsFKWF2JVZ+q7kComH03wcy/kdsVeyJTIsSR1FPZeVqb1s6DZO1ymoUlNNYgOSFhJHIFZvFpUuzicobWfmslyZpasFkaYNU4Rd+SpwK8HLheVd+vqlPSVEhIBCthohIpyf0+w4LVzwNuB94LTCGzVNWal09Sn3VnRhsUlxDcJM12kSyjPitdQsJIkDzBoglWXRHpZ6gFq5Uxa9MLzl+htgUr1l2rGjn7PqHu2c5pOiQkgpUw4YhVNO2r6hxroHsZcDWh79xgDWLlg459qnk9fQbXaNMtPkLzqsZrAcFKMVgJY51TcQ4tbYbMd5uldnUcWLPG3xcXrB2ftRp7hQ4ALwNuUNVPqursWhu/hIREsBK6kVhtoKqHAX8GLgT2NMFXNSEoNXbdeSXxaNyJjxBHMqcNiisSrGqTxy1vwUokK2EsaCQ5pJHjPdXiORqPOduf15GiZ9znpOAa4/d73Qbu28DvVHUv6zupiWglJIKV0K3EahNVfR9wBXAWsJMjVj2smjI/krB91O3Eh8O6bbrlR81dMXatFcasZO/JRZjQLJSbTLAilhPc9T0tIFheFsQg92pOZy0ageDlrVk9Jnv2JFjPv6Gqm8S1l0hWQiJYCZ1KrEo5YrWFqn7EiNVpwNZGGqq2o6yXWOV3ow+OlAFlgvJZrbxddz2PtWg9rqyhbBISGp2rcU41q/SHzyScR2tqYfnj9ajqOtaix6+FSLB6GpAfvQSX/gBwJPAHVX2Dqs50sivpxIREsBI6gliJ9Qer2u9bqupHgT8BJwGbO2LVx9Bq3fUSB+8CeKxOIbhxC2/bX/d/W7Qel4+wO09IaGROLaW+2MVGsILmNI8eaY31EjKL8+thASGLt8fki45wvCJr1jbAb4DTVPV5tkmsRrmWpk5CIlgJ40WsSiKiZl7fXFXfD1wMnAhsWkCsaJBYeYHaZ8J8YZ1zeosWWwV80H0rdu7PpPWZ0MT5tKQFBGslWRxWKzcBfbZRg6HWqKeAuxo8v5c/0ZrVD7wFuFJVj1bVzZ1cS70NExLBSmgrseoxAVS1GKv3AucT0qG3McEbm7GWCnakjSqIGHtxF/B0HQJ1PWDWGM9b7w67VT0DF6T1mdBELCIr09AsMrSiTQRrErBVXHcuRGAucIv9XGlwrXtrVi/BmjUNOBY4T1XfqqqzY3xlIloJo0VqJ5BQL7nqEZFBYFBV1wYOAN4N7O12tD1kvcOaVR8nCtR/EwqNjoSdct9tBckqGdlrVezJAhP6vWnmJTRhPi1s1mbAEZx+txFoJfqAZ/uNjVnPq6p6W44wNUqyImKm4QCwC3A28CtVPR240uK/yoA2qbF7QiJYCQnZ7k1EBlV1shGrw4DXOEFbYmiMFU0iNkJmwbpVRJbmhHwRdmmD0iqZ0qq04NgQ3KFLCfW8Wl3IMWHiE6z5ZHWjmrUpGGBoqYRWXb8A29f4//2EVlXr2VosjXKteGtW7MzwZuDVhPisc0TkprjRBKqJaCXUuxNPSCgiVqKqvSJSsR3cXsD3gF8buRoks7L05ARisyxXsSozhFY69Zjr966xS202nqF1FqxIsOLfKvbywbxKCoBPGDoPas2V+Y4MNQXW13BxC+/Lr905qrqRbfL8Ju4h4Hr7uTrGc0XZ1WMyp5/QXeITwK9V9XOqurWIDJr1rDcFwickgpUwGnLVa3FWA5YZ+DXgV8B7nPApk7mwmkmsPGK9rBvISiJUh7nuKcAL2jRMy2l+m5yoOP7rFGIsxlq29TpAFnMiiWSt9uQqrrmBGnMF4AkRWWzEqJnzpVmlH4ZbCxDa5bw06qxYt0pEnmgSwfKELo5pnx2zH9gM+Bpwtqp+XFU3EJEBu45EtBJqIrkIEzxBKQcZLANGVt5hpOq59pF+mzN9bufcykDyiimLvwIP1KEgXkTWJqfVrrXltM6C9YgjWL22U38G2ABYy/4+FpdIwsQhV9FSFTc7DxDirTYl68k5N67vZhXGzRGsVq3/uB5mAq8AfmZzvuLebyNY0/toTniCJ1ox9GHQfn++vQ5S1fOBc0VkftyUApXkOkxIBCuhiFz1WRNXVHV/4P3Aa03gDDhh0w7ykheU15l7oFQkwGw3q8C7CgRlq6+xeRol7Ih7RORpVZ0H3AT8gJBBuRJYx8ju+wnFVJUUo7W6k6vohfgDwX1/HyFjcI5tON5BVq9KOn0NFCDe4/NUdRZZsH48993AdYTQgLghazbBi9XqB+zvL7XXQap6sRGtpxzRqjaZyCYkgpXQpcSqh5Ad06+q6wGfAt5KCByNQqWH0RUJHatg7QVuBm4fSRhaZuPL2zh0U2iNiz0SyK8CT4nIA7n//15Vr7Td/OZpBq+W8GUGKsBPgSOjNcXhMlW9iKwgbqUFa6Ad9wqwIfAOETnJZTQjIvep6t8dweppwbl9JfgoE8smb/YHXq+qlwLniMijjmgBDDbZLZvQRUgxWKsvsSqb1WrQgtgPBS4CPmnkqt8JFdpoKYnnidk8vxWRe0yYFlmvolXraGDNNu6sZzdxt5xJ9BBAWxKRG0XkgRjUH4u72meuBY4g9SxcLZdubn5fA3zAuaomu7XRKyI3ichjzsrbzI3Zmjki0srN1hTgEFXty10DwD+crKrSmt6I+ZY70bIfLVrfBM5X1eNUdTeL0YpxWn0Wq5X0bSJYCasJsaqY1WovVT2XkCH4ArIspLw7sF1uqBh7NYkQT3JZvO7at6SbE0pHtIMIxuvbxo1RK0jWVPt1LVX9EvB74E+qerApzj8bIfZKaMBI1yBDM8sSupNIRVTcs624Ob4A+J6IrFTVjVT1u8AfVfVXqvoay/T7X9JKk+RHXFszcQVAW7jWvOzZFfi4hQtEMgXBwn2T6bNqi9d+nmjh1ttuwFGEYPhfquq7VHVtEek3slVV1R4jXOUUHJ+QMMGIlft9Z1X9kao+rBkGVLVqP1e1/ajaa6X9/pmcUF/lnuz9rNwxWo1Bez+yRc9qsr3vrap/yZ17vqquZf9/gf2tYi/NPcuB3LgmdAf8GlxZ8P8V9n6dmzPvyn1mkap+W1Wn56w9Y52bJXvfza5tsGDutWIs4pr7p6qu6S26dj2n2P9XjoO8ij8P5MZikareqKpnqurhqrpDwXj2GelKxo4JiBSDNbFJlWBuLItZqKjqbsDhwD5kMTwx7T8Gc45X4HQ0u/cBlwM/cX/XAktPRVU3AA5qk/UqniPulL+gqn8XkatrBeCP4plNEpEVqnogcDIhRTzukgcJWYSbEirJ3wA8TGhuvYLQuHYesB3wSvteP0MzrBK6w3KlzpL8MPBHQibp8wjxRoOE4G5UdQaws31vmX1nJsHdv66qflxEnhprFmH8vhH8E8ky7MotlgmQeVu2Bd4pIidEYmKy7R9Op7VLfuVjtHrcc4tWvufZ62BgrqrOJcSV/hX4q4gscOMbY12rhED5tGYTwUroQGJVAsrmIhi0vx0EHEowY2/sBIM64TXeGWn+Wn4jIk+Ye2Og6B6N0BxK1nuwnUQQQn2es1X1jSJyfRMUWJ+5e14KnAJskiO/ONIUsw5vIvSEey8hg2wFoa/aTsDnjUh7kpXcEp2P6IbuAb4MnEMIVB8wpf1me7bXuA1SXCOx8O+gvb8NWKGqnxCRxaPdCNj3Kkbmfgns4c7RrqziGDpwIHCCEZF43tsI7bR2oP0lTPLnKZP1UY1jM4MQVrANIWbrUGCeqv4H+AtwlYjckpcHdi+pRU8iWAkdQKpKthgrQFVVn0XICHwDsAUhMDsiCqdSByneWCjxfuAO97ciRCvSG5xAawdJ9NmUVWAjQoPYd4vIH0dLsux7/aq6LfBtI1dVpyjUKd7H3Vd/DdwoIve7v60ArjThfYLtnn1vQ61xPwnttVJJwbMQtw7eCfw0WjIsUH2eqn4fuCfOAxFZZs/ar5ceRzTeAzymql8ZA7mqquo6Nt9e7K6xnQQmvm+hqnuKyHXO9XmrWbEiwRqvBs35ay25jazvTrGOvXYkZCPG0izXA1cAV8TSD1E+uLmhybrVPTulhO4lVeJIVdUtxNcYsXoesC5DGzD7oPVOU6xxR3wNwQ1wX9GOO2ZEqeomwI3A2m2+76e48AAAIABJREFUF68gIwmaD3xeRH7QKMly9zOZkHL/JkeAhaGWxquBA0RkmX13koisrEHYKqq6E/A7R9j8HFBHshPRav+8iQQIp3jjc/6BiLzfP8uCZ/y/4paqug/wZ4a67CRHNt4oIuc1YsVy5GpHs6TtWEAQpc1j1w98UUSOj+UQrDjyJ21zEsdAOvDZF91P/joXEXqd/see6Z9E5Ibcc4mWw+RK7GCkwLouJFUxA8Xa2VTCn/Xl1v39HuAs4PUEV+AkhqYulzqYYMdrXEJWUHC4jcEetKcWT63ze6IyGzjBrAuR7Na7vqIC/JSRq1rWMoALCFXkMcWyUlVLqvp5C4j/oaruYeRKROQ2QiwXhGKlZSOxK8j6ruVJV0JrCUIkVr1kfQN9rbl+4OtDl72+T1UvVdXfWiFgcuv6fkJcT7RcedIWS56coKrPjqVA6ti8xYzWN5qiHy9y5ddcjEt7Ts5CBMFNONfGoNphc1lyr1KOXFfdGp9lG6J9gC8Cl6rq3ap6tqoepqrrx/I6sW2Q6YRSykxMSGicUEleIKrqLFV9g6r+XFUfVNXFBZlilYJMl05GzHr7gwWvF5IUlz34FVXtH8dMuWqNc1+rqlv4ax3m+fbY+36qOjeXMVV1r5ihtEXu+2up6l/d2KmqPmpKMX5mV1Vdasc5S1W3UtU59v5N+5+6DKiUcdi6udLvsuFep6rrq+raqnqAqt5n/zvfzxtVPcdlDqqqLlDVLzorVvzcp3JZhtWC855lFdGHy86VOHdV9SRVXV4ja248ZcQV7hqjPHiWql5ekBHd6fOiWrDeKzWuf4mqPqWqN1uW6Ct87TOnMxLZSkgYjlQV/H0nVf20ql6hqk86wVe0YLtRSUbh+VdV3XIYghVJSbvLMzRCsuaq6rtGsmS5tPczXJp5tUaK+pm5QpLTVfWGGmNwlfvcxjamP6xxDQePQO66iaR3mqIsIjnnxg1E7jmsp6oPqeon3N+2qnG+lY5kTbL33XLP0Z+74tbXS+uYl9vb3Cp67uM5B+L8vNFiwjAyEUnWKQXrqBuJuNaYQ/mxWKKq80wnfFZV96ihOxLZGgekIPcOhAtq3Y6QcfISc4fNMZN/bw33Q9611HW3bu9rkjVtlmE+t1aHXLN3r8Wf1wd+qKovBz4EPFmjmnb8/QuEoNcDnatAnPugDHzfSjjE45xLaD7rjxNjwtbLXeNPsMKk/jrs5/NVdVPgOOdeKQ3j5qKB/3VrbFc9LtOi9lG17nXQ1u0twDEi8ljBun9cVT9CCHiOz2jLgvFVc5N9UlUfFpGzLFbqBisa/HGGxl75bLsPAFdF918NcvUpm48za4yFjOMziZhkrrR5zlVYIfQmpEBGdpsMrCVb/P/KhIzhaaYn9iJkly5W1RuBKwkxmzelOK1EsFZ3q9UMU5a7AXvaz7NZNUW/XlIlXSxc1jOyMdJ99HTQdSvFdXHeBOypqp8UkV/nSVb8WUTmqurBwEnA+9xxKqYszsYyKy3u4kvAqwqUuk9pj9a+x4BfxmD4GsL2e3a8l5qy+ichqHkZoel3/LtSnAUnNeZovcp5OELTKEkby7G0DrJUtM78/c23sbsF2N3mQCQrp4nInbUCzUXkt6o62T2jgRrXXbVjfl5VbxaRf9nff0tIcFmHrMRHCXiSkDhyyTAyaGvgdEKT6KI4Q+kQ+RAJVbngmdxr832DHLHs2v12jbVWJP977DXF1vIrbA4sUdUbCOUgriVkHa9IWjdhopGo6Bufo6r7quonLXDxDnMfVEYwa1dXAzdLdAG8x8ast2Ace+39og4em2qBuf88Vd2ojnnyOef+jbEkz3X/38PFTVVruCmvtM/2FRz/ZTb3NrLfo4vp4/bdn6vqGnHO2vv+zv00nCu6WofbQ4dxpVVH6fKu5aIb7ljVGtdWrXPtFX3+POe6iq7sfS1u5jYjMX4OH6CqR6rqhjXmwmbD3G+Mmbss96yOz8Vi3ernT8E5yhZ6sHSEOdxJ8uE2H0bgXO3bOLf54Goc61cLFZMtf1fVE1T1TTbHUsxWsmB1PIEqOdMttovcilBcbltCjZbtgWc1uBPvZqtUo7u1mGK9qdup17IgPN0FO0//DA8GXqKqXwB+bBaLQVV9GdArIpeYhevrqno/8C3biR9H6LcWlehpwNQa1suYpXZzHD9XBqIH+BqhXxrA86x+1zL7/QZCEcljRWSht7aJyOWqujehwv6mBe6Lxwl9I/9jcmUHgmt7bVZ1pdVrAcuP43AWpZGsTvlzaA3rk//7IHAnwaX2X3PFvMBcMZMKPv9jETnCZeANWomFP6vqSWaRvtfGdcCe+xkEd/InVfUNIvLX3DU/BDxBKLdSK7V/P1X9nIjEzMNfmQVjB4Jb+AMi8l9zAz8HuFZEnrT5tCehqO0uBetLOnRNQciCXVhgUXzMxgtWz4zYkZ5ZCZhs8/gF7u9PADep6j/M8nqrjWUVKwXSIn1ZclbWKaYb1zO5sRahmPNUW2/9wFJCGYsngAcJ/WqXkdV/TASrYKB7yNJWSwUuhugqqba7oq0JS8ldX5wU00wBbmyvTe21GbC1/b+Vi2UiIj7/rVV1jbyizwnOR1i1gGYnKgVPRNYEvm9umHdEBQl8WlWPBb4LPCki51jxyGOBs0Wk3z77eUK6fP5+PVlZTEirxwSPmjD7ipGrlSaw9iW0XbnMPvswIfbmISMIQxSU1SU72FwN0+2cS+0aj7eWJX7tTAc+B3yCEDPkY7uKXF4rTXDebwp0E1tX0xia0l5EYPN/HyA0Q77HBPJ6tjZn2LVIjWPhXE0fEZHLCmTC1sCp9tzidy82cpV3/VUd6Ylp9ZPsXt9q5KpqCuX3qvoKEbnWjXnVLFSHFcgEX+fqUFW9WERuFZF/qOrZJoMOt5Idh9i8uws4hBAT+DHgeIa2UpIOlzv/K+WSb/9jY79EVReuxgSr0U17xLpGyl/l/vYMofTFXap6l62l+2wz1U9WWiKWxKjm5mbUm2WysiQbmH6MenJzW+ebkcXdNoKqbYL+ZpmlVwLzi7p/rDYEyzKhpphlZxdC77RN7CHPtAXfY8J7CSF+4L+EXk5P2O9PmQVjoTHYSk6gVUdQevlO7TFgcIZdw1qEIMrZ9ppj1xdfGzB8DSY/4SSRqIYJ1o6E6vM3kwWw5oXs3aaoertIsMUaSDPds4/WqM8Ah1gW2SVWXHBf5/rZhBAwX2b4OKMngctUtceRng/a8SMhrZhS39CO3Ssij4y02TDl/UVChfjFhOKVf8i7F+yzS4DPqOothAKqkx3J8oJ+gVnOThGRu3LHWR84ghCcvU7unmuRq78Z6fu939Wau/RA4GMUxxnFZILrgddYq6Yh5N5+v0dVDzDLz3tN8XyscHFnFsB7CkjXJrn5PI3QFeCFucr85zuClb/vuDa2JtRRe7s99+PsendS1W8BL7Pv9tlzwI0nNUhvJ5ODJ5wOqzgZXjV9kFC/FVdrjPUMWycvKvj/485a+JRtYha7Z9Fn+nM905UbMTTxZjh9Wa9ejNe9g73eY8f4g6qeAfxZRBZOWIKVy1bqNdKyH6EI5stHsPA0utDVdr1L7CEvo3aQ4yRTMpPsNZpilVU3mWq58Tqlx1+3Eayqke6tjWBJjYV1gz3z6R1OVossJP3WGqfkCNYKE0QXABeq6qdF5D9kxSKPJQv+z88rLywvM0tJXIevAL7jrB3eFTut1rq1NbumWQuWOaJxEqHH3feMXK0SsB0LIIYf5deqOsesPpqzZF1nVpY77Ny+8GkJeFxEjlHVnwA/J7RpkRrkaplZ0r4Sj2XjGz87KCIXABeo6ofNohd3zXFsHgHeVESu/H2Z++8o22zdKiL/8X0zVXW2WawW5sZUCE3Xe8g6LPh5vx5whqoeZAQV4E9GmucwfJujl6nq60XkAlVd00jfUWTulT63gcU2sNUu2fCpI1GDhL6DI22kE+qTS0Wky2cuFnkP1h2BMBU9v8oI524kHEZZtQ1RxAH2ekRVTyAk+MwbT2tBa56eCWnrr/ZVQnzG2UawJttCqZBVM67mBktzZsj42UH3GrBXrPA72x7+ZoQU5y0KXhvY7j0KG3+cwdyrUuMavfnTuxDzlrFkpWp80Ufz7k42jwYL5lWPiNxHlqZNwULrxHvLZ4dNcYo2mtKXAa8D3metcAZV9XnAQU6pSI3d59MMje/akhDL1Ztb80WkzxOBMsEd+QDw0xj07r7zNisPILXc9jly8nN7ld29/wZ4pYjcYXKiZNWpq7FLQbwWs67tQ2j7UzSuiwkuva/EoP3csaqxgrmN6feMJM51lkWA94nIwyPJNfvxGULT3h85kobVmboduNri1mpt0LRAYVQIsWufcf9bSXDv1SoJUrIxXQd4l33ntYQq4L7xc5xvMUZ0WU7p0SVr5wng755gGXGNcmJWEqNNsXBJgW4rOxlSpJsrNXQmTl+Wa+jLIt1ZDznMv6o2FzYkhFzcZp0QZns515UEy1+4qq4HfJaQ8n2UkapIhkpkrTqGG3Af9xQ/2+O+2+t+LuUUR7XGKz958sfsyf0+3DUmAtX8nWpUALur6mY2l0o1drR/pDvTsf3cyd9bvP+bXZ/B5W7XXqJ2YPYNMWXfXGKfJLhb+xnaFFuc8i4697GmoCcRGmp/yAVvqys1oDXkwEz7bFVV+0RkMcENuMCOeTEh+HqRkeWB+FlV3UdV36qqu6vq2s7Np8CbCf0n82TjJBE5Q1WnxDFT1S0tS+8QVd0qXo+1F5psJQs+SnBx9AHnEdLYYzyP2vVMHYZoLbESG7Fn35YE9+l6wLOBn6nq7o4oKhAtfpUCAlG2v3/W+gvGelVn2d+LymRUHYGOTdLvJsSRlQus6nnl1A0ywd/3I0ZefQupuDHY2jbXSS63VmbV0s3lEXRmK6/Nv+KGYtA2HqcRYhz3NkuztoNkNZVgeYGrqi8mBNp+2Rb/AFmgW7lFD7wWMSsKUJcxsOeE1s9LJdQD266GsIyC9VyCa61brYVF1xvXx0O2lnpF5N9m+b2qYEePI2Hfcr+/mlBTayVZIHP8XrRsLMqWb4jZUtXXAoc75TZACFRfK2fpqhZtsFT1LcCp1jdtqgvQv9JeC4HPWJByr50zCsTPmtw4mxBLdZ5Z7yKxW0FIDljO0NpHxxmRW66qPar6IYIL+fdG7C5T1V3tGstWsHWyiJxH1qvxZ0b4IlnaFjgG+Laq7jCMld4/ixcSMvVWkAXqf0FVZ1qwua/ftCRHInxcVRX4QWxrAzxKyDgsuw2F5j7/JRE50s2dB3JrpYhUdVMgeBy3G21O9TqCH/+3B7BzqwwICV0nU3ucDNuNkKDzedu4tZxkNW0CmtCqWtzD+82ysL3tnMWIVSdUA07o/MVRIosZ2bVASeAsAtcTMltqkY5OFwJ5V1Fs/Hsz5v6McT0iMtesSX+oYb26WURi/avNCeUdsLVXFEcRk0XisSoWd/UpQmxShawJ8ZpmkfHWmyK8E/gFwf12llnCMDKz0gjWsSJye4xZcsTuFWZRwsjJSkKW46WquqM79x1GJEtGEk8TkaWOyB1JKJw6w46xhJCt9DkjfLER9gojPN8GfmBELVrdNgQuBY4G3g9crKo1y6vYfJxp1xsV/iQT7K8kyxj11sfHasjhSIK2MoIX3eQnF1h04lo5yseeWaX4uwtIlJ9v5S6Qw/lYu0dtfkXrRCT70e28vxv3RLCSLlGGNlavECzzv7HG5//raNGxBCvGTpiwOoYQL9Bnk7wvEauEUQjVuCPdT1U3daUGiqxYJ3UhsZpkimGpWWPifUe30XWEzFlUdfMYAyUi84E3Ym1v3PH6gS9FBQt8mBBv2M+qpRHiWM0lZAMBRPfVRx2pzWf7vWA4QWQk6ERb99GqeKiqvtGRmbMI5noKUqk/5IjdZCdD5hDaDvlklNPs/RbgZFe4cz/g60asxJTtNDvmgWYF9BYPFZHlhPIUD7o5diIhlTzGYm5qpG04YTybkM3kSVL87NtUdWsjSvEc97kNKAWkWYEPq+ru9r97CPFe0fpYIgSqf0JEvq2qM80VGu/t324XH9fKUrIYuOl0Ry1Ev7ZvFZHrjZxX3f1hltdXuuebyjQkSG5DEeMVXwz8SVVf6TZITecmYyZYOVfBMYS6N3F30cvwBQITEoabmxWzCGxfRM4d6TqbzB3SLfNsMlkw7qKcZQLgGlcA9N1GIna2+14M/B/B9RVxhYhcYT+/iJBBttKtwaJ6WQ+bRQCgX1WnMTQBJT+Wm1DDvW/xXp82q5G4Y6xhVrdI4pbY9eOsLYMWb7RTwTXGneeeDK3Rs8iI9bcsrmrAMuc+4uaPL2cRWw7t69yS4rICnxKRFWa92pQQaB6Fcrzn16vqfgXCWBxh2SB3D2UjUc931x/l5d01nr233AhwUoxTM+LXb/fyNPAhETnVWm19nRCSEYO9byYE2/syJ0868jurwwlW3m26wBHrqtvcDxj5frtZWpP1KqFoUxvnU9ygrEPI1n57K5XYWBG7mL+XrEJ0zFrJN0JNSKh3QZScotgrWkmLhLC5ho6rsePtVEwji2l6wimNSYRA5X/l1unbgV+q6oFGslYSMthON6V5lK3DWaZoIzkpKnERx+cBK+Q62TZJ7yGr6F0uWL+zh5EZO9r19Oe+C6Fo7JamCMtF8gN4DaFERREZjDFGn3bfW0kos3CxIzvbETIt+3Pyx1tE9yGrYF3yu1d3ba+nuHSLEirh1yLyk4xQKqvGgwK8UVW3cK7MW4005BWB5CxZuxHqgEHIxD7Ovvduy+R8thGPDxnBmGL3dRMhIQC3lh4kZFxCVmW/061X8Rr/bt0Oep0siP97pz23Su7ZJyTkrVmeZPUBZ6rqoa7bRWcQLLcTfIlZr2Iwe5rgCc0QrHGyH0xoNbRKNqGzJvzEFFZ+x9Kpu6k1TMFFS8YCp9TPsSy9XkdsBsyS9yvrGTjJyhAcDnxURG6zz76aEGgdXYNF67DslHVcy0KoHVPLegWhXpcUyIGyKfd47Hx27QZkgceSO+eA3Wd0S1YoLnNSAnZT1S3suVdF5GkRWe4E4345gpLPnhsgVIbfeZWHYtl99usLKW5FJMCuqvoSs3TlxyI22q3m5nEsTbEHFqNlz+9+shi4Whas+LejVHUtI2enAm8RkYvMLXYmoSp8tIxOdevkt4RyDLHe2S2O0G+Qs6h1qvUqNtD+hpsjmFWvoqo7Octl0jsJ9ZAsn+hTJiTlvMr4TNMKV4+aYDnT7GxC7Me6ZKbrNMkTmjU/+wnBvrvWIk2xZhKhJEGVzi4+GNfFOlgVdUJmS4ypuppQL8oToSlkrrLJhDIAJ1sZAhGRc2xNbmLKdwWrBrbHsYvVyh8mxPRgmXmvo3bsFU6xFZHWjQhB7YO574qzlGxZYPmJWccvtWP4c+cFYsRBnqA5kjObrFp50TH8cZ7ng90L7mfb3FzTHDn9dA35WXUEMX/uiANUdS2b1xDafPhnXYtsPIsQ24qIzBORy1T1SLNg7kqIrcJ25JONAPYSymGcGC2WwB9cEdk5BfOy08hVHOPzROSaGHvlXMtTCPXatjGrZtrcJ9Qrgz3Jmg58T1W3q2Fpb7sFK373g4R4hUoNoZ6QMNpF4JXTwSOl1orIn03hRJdSJ2YVxto9axMq1SMiC2x3/gngCBF5yD476CxHXgkPENrHfMxZkHBKdLIjQ7WaK9/rlDuEzgpzCgiCxzJWLUxaMgtjbw3LUbyHDQsUuU+t37hORf/inNUpYpYdJ5K8ItdoPN+ucezj52KhSnOxTi8Qxt6a8kJV3biAyFeM3NY6d5XgCn2Ou/bryOKwvCUrns8/jyfcuB9I6CMYydpkR7Bi4dqqbTy+Q2jp83asaTjBFTwzd95OxZ2EDNC4qRfnIvw4IekjJlQlcpXQKMmKtec2A76RK7vSfoLldg/PJTNN52MnEhKasZONO4zXMDRDqxY+a+ShxPC9tsZzYUfl8GxbT5NE5D4R+a6I3G1/24FgFcYpz3g/USBMctY7jJi9mtBYODZQH6C47cVdlsqPqm5PiPOpZXWJ31lYMJaTCbW2qiNYn9Z0Vh5yPz87R8akxlyAECxOAcnamCyYW4Yh7BU736Z5GWjH2pCslQw15tA04L2u4n1EPyG+SQrGoeRIwF5uk3AVIVgdVm1TEmNZnyK4gT/qvhdraK3IXW8PULbPbaSqa5or9UfWRDqSr5eRtTrppDjZvGuwH/icZc9KjhQfSFbxvpT0TsIoSZaf/68EPugswONiwYrC4822E8wHlSYkNNOKFRXxK42M1HQBmiD+IFmbo07boXtLyktVdR+rLD4jVj+3Vi/vdladonEpA//IbXzESNbbCa2plphlaaVTWtHKfFvOevUchvb3KsK8AqvNrgT3n9YgZuJICYRaW2LWiEGrLbXxCIre/209c7ENuW9Hvoe7ft9OZWtndfLnmMPQzDqpQfpfXXD8FYRYoeE2CxDa2MTK8vcTKpP7z0VXYy+hWOo7ReTk3PEezT3PIfPcyOJhZDFfsyxLNFbuf4V9t5Pc6XlyBXCqiFwYA9tdvcUdCG1QplOcWJGQUK+OiXIvBr2/TVXnRGtpWwmWm+DPIQTF+uOkyZ3QKitWzHLbyuZhaRiSdTkhLrCHVesMdZIVaz3gaFVdT0QWi8gz9v9vEGKiBodR8pDVOcpbcwZF5IsEN+I9ZrVY4ZTp7YRg59iEfU9nQRqu0vdcT27tGRxaYK0qwmSLe8rXw9sRWL/OY0RsV2BF26JOGRTnzY6qOqPA5TyT4tIF+XHZ2ILdvcVsGVlvTK1x7n4js74y/LVkrs2Ks0SdTcgUvNgRaHVk7k6G1rjK3/9zgS+r6mwRWWTFWFVVv0lmsewU61WRpfAahroGy0ay1iXUA9uSVbsUJCSMlmTFje8LyHp6jimrcCwxWPsQTO0DpKJuCa1F3F2sCbxsuAbDDscDPzPh20/nuArzqfv7A5eo6jGWHfhLs8Bt6Ba31hAIt+c2P7NV9ZWuttM5hHpZvyfrA4op5pvs571MEQ9n/Yl/ezD39+mEGldah+Wpj6GlD+L9b08I4K5X2Uu0eDli1FeHFSx/TbXOO20Yuag5InaY/exb3zzmPqvDELT9rHYV9nzmO4FeJdQT/KBVvN/AyJwng4vJSnnkn1lFVafb+Z4D/E5VP6OqR6rqeYTYvWi96qR14X9+FHiPFYFVV8x6GqGZ+Z5GriYl3ZPQxDkYN7UvV9VZY7ViNUSwYnChFfR7UW7nkXYPCa3cXUSy8aECBVtkxaoQWr5cQ1YRvFOUid+tqxGcLxKyAw8hazQ+w1krvBIS4C7gmdxxtyDUyjrK7hkRuYXgMjzREZwbnSVkD0IbmUodxOK+3N/3ZtW6T7VQds/Qf3ZrhtY8q2c+5FvW9JLFE4303XiP25DFuOWJoIxAAuJ47GkWwIojPQ8NY8Hy8/jVcR6LyDVkBV//AxwqIt8QkWdU9U3Ab2xe+GtYDPyz4FyDZkmbTZYluCfBKno8WUKCj5mTDlgPnpSuAN4lIndbjJuY16SHkCV7EFk8WxFBS0gYrZ6J8mEXMg/dqDMKS6P8/C7A7m7HlXYQCe1YAP2ETI8Xm2Iadt6JyJOEPnL3mlIZ7BCSlY8zGSRz81TIUvgjAVhUoIyuLriP2YRsuuMITZJ3t3F4WkQ+Tsi4+guZe3AW8Dz7bnUYklQmlAF42m+2ckq/kTEVEek3F+OGDSpJIasf5gnW7DqPIWb5mE7mmqSBa/D/Xwd4uW06e8yqen9uPCmwYvXbfXs34Y3AJYR4q3Os7c3JhNIMe7j7iwNYJSsi6vsLriQkI6xr14edT3NzrdRBm434Hq/rCBG53OZH1Vmrv0uwGvoemck1mNAKK9aaZKETo8ZoXYTbmXDqT5M7oY0TP2bPfdlqPo3YpFNEbicEjM8zoVzpMJJFTlmU3I5pK3t/3BGw+J0rCirbr+k+cyBwjqp+2sWrnUKoeB3dg7uSVW4fzj1YIrijvJVpMkNb19Rzv/ks4y0ZmslW7zNZo4AAzqrz+36+bG5zpFLjOocjBPE6XueeIWQuwlphE/74+zg34XEEl9hfrT/apYR+krPtOGvkyC2EWmZPkcUgASyzFksbO/LqXc1limuVjSe5ikqtDHxcRH4eU+VdM97jCNbrfKZl0j8JzZTJfj7tYKWBBoeL+W0KwXLuwXJu55XcgwmtFsIxkzDG+92FtfsYyYpln/mrEYtFDE3l1w5a0P7nuC6fbYUU7ydzE8baSFcXHG9mzkqxKcEtdKGqPkdEBkXkATLX4i6E/oK1erf5OKJ/OcsaBCvirAZkwKD7fvzspjmCVS9mFhCsGTWsRrUII4QWPjNz5/fJAMMRtPiZ2HYnkrT5BHdfUYaeOpKjhOzN9W2OPiQij6vqtwmV2ffMWcJmufms7lx/Zmjpj4WOnE9ym2CpQXI7QakN2Hh9XkROzN+nqh5LVtxV6RzXZsLE1TcQQi52Gst6KTW4ECBUXN5mhF1vQkIzJrq63a2a1eSbhBiVp+vdGJiw/r1ZslbkFFcnFiKN63J3U8C3ktU9Kpt146mC+5zm1qU4IvlqQmzWa+z/sb7LdjlCJhS3bAG4xfXQg1BqoMiqUwsDBQRrEzI3ViNCrLdgzBopcuwF6Fq5/61k5NIFQ9yEqvpSa8QMoS/knQUENW+tqXqCqaprq+plhG4E65C5/eJcmFqwcXga+F2O8MU4uR1HMa7jocgiuTrONgN5cvVV4Eiy4sGJXCW0QwZHrrPlKLjSqAhWxLqEOBjSJE9oofCN8yvWWHsGOExEjhKRp+peKS7zSkTOJ2TolR1pq5cgtHuB95vy3UlEbiRr0CvASSIyWPCdabnfy86ysYWzFsUx+SLBbTiFrF8eOeIZ32/Ine/ABu9pgKwGU8lZsCZRu/dhLUwrkGP1ZjJ7K85mZG5VX2qhWsf8jJ9fi1BTKpLceWTlM6qhhRCAAAAgAElEQVQFn49lBR4h1BH8u/19KcX9GDV3z77yfHwu9xgBewq4RlU3J8sM7cQMb79x6iV0X/hKfk6r6usJbXDiJiBt6BPaIXsj8fcxom2zYM2xk6bswYRWCl+vjG4ADhCRn+WUy2hI1pmE6s++fEOnLnKA15pb/pv2+9mEQHUKxqInN45+LB9zlpWqVYCfC3zULFz/IUsE8K62MqER9WPunLuSZfINZ03wynClpTz7jMH16zhGPXKr0WcYr2FDR7AiFjO0QO1wsjD2dYwZ1X1m5ftXDauVGqE8C9hfRH5twf59Fjf1UO7+tMaz9XP7PkLNN4BrReRSQpX2bR0p6cT1HQPVrwSOtnIMeVxJyASOnx2gsxu5J0wckhXn1zqO4LeFYM1iaEZWQkKzBK+Ptxo0ZfRT4DUicn0kFPXEXQ1HsgglC35sx19J57kKfYugw4CdReRHhKDs90V3lNUG0hHWq4/XuTtnWUFEqiLy/wgxVWfZ2o5xatElc71ZdiIOaGDt++w2gB4LGp3hhNd4yJHBnACN1/lMHQQrf80bWJPYeI8PMrQ3XrTCzrPnebgRI3LP49/DjMcQi2JuPv+GYKF8i6quQ+a+7bRNsLr7LRlpf791XyhaswtE5DtGYP9uc7O/QAkmJLRqkz/LNkDV0dTDGs3uJma9VNJzSGiy4I072xhDdBShkvXjniiNeluSFeBcQYj5+BtDXVSd1rMw4hhVnSIiD4jIUtdqpqqqbxzBkhPvaZ6IPOH7a6nqHFPIWF/C9xAa5/6XzI0KodJ4nmA1aj1aau9lZ72aU8PaNRJW5n6vNngtnnTEWlTxXp+uc7fqhfBs4KXuf48SWhFFy1UfcD7wErPCzrZagvl7/wdZjGCt+dCrqjur6maxF6KIVETkfrOCvZUQPD/AGKtQtxDRBfqu2HtzhHV7A8El/VVHWn2iSiJaCa3CVAriH1tBsKIQm1IgpBISxrpb8KnaDwGvFpFvFpQiGBtryUjW/QTXyhJWbTfSKeQqkpwDgZOsRyHm3quq6peAw904Li04VlSydxWs29nAuap6plUtrhgReD6hYXQkY1dGAmLEYJdRyJhncve2Plk9q0ZlyUDBHKo2OOfidW2iqlPt3soFBEvrONZ0rDabHeMRshpVT9szepMVzjyEEDO1u/t8vPYbckTWj9cyd+/PJyQt9Pr1oapvsY1DnDudtGnIB7UfJSJ/bGDdzrf2T/sRAvn9BiBZsxKaLX/juptE1iC9pRasOIH7RrnrTEioZbWKO9Ie4E/AfhZL0prVY1Yw61n4Nber7qR5HRVStPgcTghg/qCqvt0yzr6Eubjsnpbkvq9Oyd/sNkpRUEw2K9I7gFtV9d1G3h4Tkf8j9Bn8Ny7+itAiq6/gHDqCjFmQ+/u61F8cNI9lBZu/ZaO0YG1EZpUvm3VzsMBKVWtuRHK0tapODo9ClhPi3W4G9hSR04FdVfUaQgmGIf0OnSXqb7ln6LHUjed0I2i3qOrHVPX/VPVcstZQnZZt54Pa+4DLgDNGuXb/TOgg8GOyItf5+0x6KaFZ8HUJW2rBkgJFlCxYCWMlVp5InAi8Khef0pqLyPzppwMXksUVdsq89oUU45g9DziZECv1cvufr0Y+P6fQ4vf+C1yXIwQwNCtrQ+B0Vf2bqu5pyuwXhKbAD7vxeoUTOPk4Ly34OVZOfzr3nfXIioM2Ot5LaxCsRrLMvItwRu5vTxdYRmqVXCi5+9nL4ssEOM3Gbpmq/oTgZn0hI7fhubnGHIyZsz1k2aDbA98hJD68mSxjsNRh6z3GVZYJteg+Uyvuqk6S9YSIHEHog/lETpbk21AlJIxFT60kC0loeD6NhmAtS7uEhDEK27ySWkCoYv1xVnX/tMyKZVaD+cD3TFD7vnKd1ADXK/pSbt3OdsUyH62xi39ARB6MwZo1LDkRLwCuVdWzVPVZIrLMviPu//nnl3/lx26JIwjxf9E9OJrsnMW53yt2DhnF2G5gFiGPuTUIZFHBzoiZZK7Tsr0+TLAAvpPM3VorXiz+/fcMLehK7tn2kZXJqeZ22Hmy2kkbhRjneLSI/LNJa/h8giXvooL5V2suJiTUS66wtbiynRaspQW734SEesmV5gTg7cCBInLGCFlxrSBZFTvnlUayKNgFdwpquaqErNrwA7nPlIHlBLdrEWnsZWjRTn/fhwF3q+o7LGYtEoDdCFldRwO/JVjHVhgxzhORkiNETzoyBFmAe6MWLCWrVu4J1qIGiXGMB5pDVmMqfvexGqQqkpp+k4O3Az+0sdoZ+LZ9ZkdCwPqJrFoGImKqP6fLUrqQYgvdPfbzJGpXl5YOXPPx+fQZebwAGi+1MswaflhEXkdoo7MgR+qSNSthrLJ2sYgsGe2BekaxWBaSpZGniroJ9c4byf2M7TyPEJEnY1bcOF7nTwmZYPuSBeJ2izB4IXCNEZn7zcIRY9oeJKTxF1mLKqyaDezjZWKsz68xy7XFKF1rL0xZbm3XsLu9NrVz95hiXUkoUQDQr6p9DK2grg3Op3yh2UEyt14jyrRiz3lmDQtW3MEOGFH9J6FcwDXAdSIyxJKmqjFZYgtClfxYx63oHouSN0oiMl9VrwAOZqgFLRYknUmocdXJWYJ+HkUr2yBwvIjMG22plZonCrLjVFW9GjgV2GsYkpX0VUI9c9fzHayZe8PW9tEs0KcI5uqNTEikSZswkpDN/7wcOFlEjlbVUs5C0l52EiwHvSLyqKqebtaZSXRPWw4hlE043sb1d8DH3Nq+VETm2j0OFFhGasVURgFzhx03r9QmE5rxrhSRe8zCcqb9b5aN4/MJDaEfjaTFXLNrk9Wf6mvwfktksWaeYC0chUyL594oR0DvJpRZuJvQ8/HavFtLVXss+3C5Iwvx/UmCy3I6tV2CKwr+Hj/7HXum0co1n6y47F7ue90gd2Ng+7FYHGCzrdS2hksi8i9V3YeQ/PExMtdvldQgOqFxOQMhdMT/3nIL1lxCmuxGabIm1EGu8larRwlxGL+oofTHg2QNGMk7V1VfRoiZqXQBsYpjvLuqbiQij6jqjwlZgWsAfwW+Zu6YwWHW9HDr/c4aCvFoYLqq3kDolbjQSMNyEVkEXGKvL0crg7NSziCreRYbcEdrR1FQuScpg4QyCF5R9xvBe4as7Ea+eXYcL//zIMFFONOTfIvtOT9HqKYTStRMJTRS3stI4peAeTbGvqjrgwRXYVHcYa15qDZGf1PVMwl1yarAN41ETAbe4u6pU+VvPmvwHuBsSwBoiaXaF4IUkS+YFfC7BNdtiWLXf9JdCbXmb49tLB/NyaDWECwnfB5U1dsI7pRqehYJDZCr64H3isitnUKuHGJdnbMIpQg2MQJQ7lBF5pV1L6GlyEcJ9a4OAPYHzhSRBcMotZVkAdVa8PwAHjaCkXfrvB54tvv9YeAm4B+qepNtwpYT4omWuuw6gMeNmEwmuDWjtXCFG/NlZEVnVzjCu5Kci1BEVlhT4FMcseojC2OYRJbAEH8eNKI3i1BS4X/z1YjMLCNT6xH6+u1CyOLc2Z16gVnt5uXm+5OE1kM7unvLWwkHhyMKIvIhVb0TGLAq/tjx9ierFycdLgP+Z5ETkbtabam2+TlosuVKVd2bEBf3dptr5J5HMhAkFM1bH4v5QD2bo2ZYsLwf8pbcLirtBhKKyJW6OfIrQouQJTaPOolcYQSgV0SuVtXzgE+OZWG1ebxLwLtU9QwRuY0Qr/N3q/hejsUorVDpZLMwQYjjKcpYqxoJuYPi4qUQsgC9i3EjQsmD17vP/JsQYH8yITYsjvVC4C/WLsf3P6y6YyqhZ2K1zue3HOfKNDIXMy7L7udoweoFnvbHd2P1KUI5ip1ZNcMwXmusN7VuTsFjcUb3urH0srGUJ1jWn3FNV7ogPrdTcxa043LH6OT1H1sFXUEIbm/nWo49L5eKyBGqehWhsfk2NnZ5l2HSXwl+AxTnxENkBZpbT7DcjuQWe+1igqInPZeEGuRqAXCKiHzRuYkGO/T6I1k4g1Axemc3vzttt5vPcpwO/EJVXyUiDzuFH8nVFoRipfeSFXlczqqtWfwO7lazMBXFzazlCIs6i4W3XOxgBORPRrDKqloxV9i6ZsV6nlm0VpjVarm9LwOWq+oyI3nxf7dbzJff+E01q10PISMwtreILr1p7vf4mm4k+u+OWMUejEcYYRwkawgujqzFsgh9ZFmCkiNp99ZYF5EcecvhTOD7qvoTEfmDkT5P/GYS2kbty1CraicrqHifZ1h8Y7nZXRlGIFlVG7s+Efmlql4LfAt4nVvP1Q4nqwnja8G61xKwekars3pGM2lF5DZV/YsRrGraBSSwqluwZErm8yLy6w50CRbObxPId6rqhUawOtVFmFdoQnAhXaaqnyYEaPcbsdiFEDO1k1lnotVkqbNQ5ZttA9zkrF3kFH45dw35AOKKIxJFlZAHCLFMz2/wfr8FHBmtVEb8NgbOa/A4K8haYJDbpS5zc7jIFadOfs6qcfyHbGynsWpx18WRYNmc2xB4CfAGVT0G+H9kWZHrAe8jxNV1KtmvZb36DaFqO4xTOImI9JuCfAh4k6p+FPgIoXG65KxZCUmHKcG6PUDIGh4Tr2nY8uTY3J+B/9/emcdJVlV5/nsiIrMKRJEeQWiEZrBRUUFppx2Xtu12a5uxp+1GkEWgERUFF1pUwCkUkEVhphUEwQZEVBQEQURZBAVtQGUtoAS0itViqQWqiiqqKjMj4swf99yKG69eZEZkZWa9F3F+n098IjOWF+/de945v3vuWT5oqy9fCQy2UEJ7SjaE7KvDRGReGchVxvBDaMWxO6HuU9G9WJKsyHcGfmoE62ngZYRA7jhPOyb3/grWL9qZekbuyBCZ1FvW6Xyyf1c76IaVtDL/1ia6SMc5HyFpJZOcUzTeq2jPSsw7n7i9t5TORZNrGeLYCRVaNbSygeyPEbZIX0+rinn07DxDe7ufuHVVAY4D5hCyGAFel8jlEMXespZkfOvARSLyzIZ4AKaIZMX4vyEROc3KOZxI8HpGr2XFSdbAI11c3k+rFM2kPa+TIUXxx35ByBKC9t5djsEkV/VEWX2H0PJmXhHjrSZQxmperCcIdbqKXvMtJVlVG/9RM9pvIvT7S4PZt06utZmQnJSoDROyhRd2+M1eSivUaAUYp5lysbZUJGGxbtZQ5jGced4k5zdmJ+eVPtLjxONXE4K3toM8V3oY++EOx3gwIUlN2r27i2iPbXs5rXY9I/b7r7NHnVbNqyLvFGjGFnw/8V41inBfmzdrWETuIpQPOcHkvJoh6m7HBtd7tS48wuxXdUMSMyqTEVTzSMSaO2tpBXx6a4LBEkhJVtc18wocKyIHWjB7keOtxvVi2Yr3bFoFHousfNO4tyqtjLl6QpiiV2YbVd2BlqduSeYY8TpvMA9YXvxVr+Vdsga2mnic6HFc6xO8pl2cD0YsV0/wmW7GvZajH6siMkr7FkOqvJ+g3XO4K63tymFaJSwayXx2atFTRO/VSuBSEVltC6zC3DNGsiqEoq7HEEqy/IpWjF09Y3Adg2XTaqaXfrEBTqgN8mClCi2tF1P3+Rk4chVrCcWMs4+IyAmWvSYbuTL7Bq12CdsJywitPcYoRyxW2rsweoUqmfe2BV6WGL0/0b79FMnQ9Zbt1y3JGU9XjOScK7S3NulV96TtVkZzSP9EBGtpQvCynqFml2RLJxiLeQQv4BDtsaoPAcuS898p87tpML2URB+kc3MJcLXdS/UC3t9Na5M1JCI/B/6ZUM5hmd0zDYrZLssxvfYsTeK7bCp4TWWSAqrJ1s/5BJf3MK1aNS6U/S+MUQkNAdcBe4vI5apa7eD1KBtiqvdZwG2JASzryjYa6u2BVyavP2QkK15flVCw83YjMXk6Ys0kDXD2/1iWoBePWHOca5tI92gHgtXNuHU63tpxzvEOQlsdkvsFQvHWUdOjr6S9bRAlla3ovVoG/NjingqdXW7lHGoiskJEPgscAvwmWZjU8V6Gg2TXYqurq0VkpW0nb9C8VzZAOOsmnL8g9HHLKk8XyP4TwDRLKAYvnwvsZW0qqiLS6ANyFQliVUSeI3hpR2htbZU1GDZuC74q8QDdRYgXisSpBlyIFdjr4IVcRZfVyc1Ire2gG5bkeJEmwprMHKWEppd5WWxzmx4nmwE50Xk1yAmUTxagqwjJHvH9WDQ1LeHwxoRgSUn1QjpmV4jIlebBrpfgPq8n9eIuAfaxRVUMexjtkrw7yu8wALiVEBqS6suZJ1gZxfZVQp+pasL6Hf0lhFHJrCV4rZYBR4vIh0Vk+UzXuZnBFW7Vbrh7+2ABEe/Ll6nq9hb4u5xWnNnz7Z6+VESeS7awsuPyHK1tv4nu9TE6xzotorVN2C2eG0cPSRfXH+ftKSOZeTpwdZfn0hjn/OM5/dhIVqwgfy1wTzK2f0d7s2kpoUzFwrRP2/VCiWoj2n3QiOUcRORQ4FDCFm/MiEx3Z5xo9Re5apq8riXUbVtm28cbPM+VDRTMWDfoKeBLhMDRIdpdq47+EEJMAGcTeot9RES+bEaq78hVeo+IyGpCJfq1tHcvKN212PNrgP+ZvH4OcIWRoaOj1yV6YjoQrSVdkvIR1vdSxecnadV76tZwPduB6KzsQp+lBTAXj6MDl49DdjRDHhdnXzdSHoPdnwROItTFepxQdHcZoejq82i1Gyp678tO45kmRlwlIlckWaJlW1DVkxCHcwktdr5vNq1qstyt59ZRDruWzuOVInLuVGa+V6ZAKEeN7V0D/EeyevGswv5i+GNGrm4E9hWRS6MHoI/JVerFOoP2tgllk+0Y6D5GKI75Jpu/WSLyJ0JV8/cCp8emvHZf1zus5B7tglxFUr68g3fnSVpxWN2O5YoOBGsF3cVgDRG8YM/k/G42NmwijBhpajtOsk0emw9fC+wJ/KuIXJ9k1+5BiImjxLoyxq6k3qtqie/3RrJlOJeQZXg4IVlhlsmzB8D3j9Mg1m58gFCMeUrJ81QVB4177SfbSp8SGyJHe7xVnNth4LvAPiJyhxng0mYK9nqfiMhaQnZUrFNU1i3CqFjerqqvEZERI1kPishV1jh5VkIu91PVLXOO9ccuf3M1rebMsVdf9O4szbzXjQdnac5rY0aYus0gXEjLA5c3j0/RufJ4+hujwPx0m1FVX6yq7zTPfl1VZxuhuk1EbrWPxZIM7yW02mlSTu9VSpZ/KSKX2byOlflmT7YMq5aMcBqwL6Hu4+xE5nzLsNzkKjZNfxo4REQeskXllDkMKlMlkEm13k8SMjFiU00nWeVUnGJkIhY4PBE4WESeisXX+iGYvUv5jl6sr9FqWlzGWKxYJ6tO2Jrao8ULdBNV3dQUzAgwpKpHEIrG7pRzrHk5MkOON2ZV0uA7/Vz0cjyR6KJuxvLJDgu8xRPMR2oIH00+34mAjU1wfwA8ZWQiLaewBXAM8D1V3UFE1looxaZGtjYTkTWq+h5C/FUe+S2b92oFcPkUL9qLcN83koXkfxG2DL9ISLQYopW84fatXOQqllepEUIO9heRX09Hx5HKFApj3U5wMXAAweVWdZJVSgGMweyzbKX/YRGZE4lGP28Jji/ishr4oXkuymhIssUqP66qe9sqfY1dX0NV9yFs93zFrvMvc451cwevTpSjiWKd0ornaZ2x8dAw71IWowlRG+8Y0dvyUHKcvC3CBbSyx/LIdNw2vz3nGJsQymDsCVyhqp9X1a1EZLWRrVWquhOhinjqvSobUU/H82YR+UFZY68muOmbicd1mYgcD7yPULpltsmuB8AXX17zyNUiYA8RuXq6PK+1KRbGWFdkgaruRWha+he093oqcrFGJ1fhedSUx33Ax0XkBnNzDCq5iguICiFjdn9aPf0omUxHL1bDDPzXVfV/GenYysjBLvZeNBa7qeoPbZs04h4j31uS38IlerDndyA+0Tj/wcjOdl2M5ZMZ4pMSrD/lKNNOxGBBh8XCujpVtsB4/jjjuIpQATy9FoBtaLUn2pVQEmNPVZ1HKH3xQuCdwCsypFdLqC9qhOSC6L2qspGaOs+UN8sI1zU2n0cCH7ePjNDa+nUbVzy7Fu/TmPF6G/BREblzOuOIa9MgiHVTXPeq6h6EGkJOssohhE2bp1nAL00A5xu5qgwquUpJg4isUNUfEQJfi958txuS9SLgA6zfsL2RGM23AZuSFNW02K2rgAPHWS0uJTQ8ziNYKZmJBGsivfDHDjpnVFUf6uKaY0uvh3MIYRobdp+qrjLymLcAgbAtdqWRbk22P1+bGcOqvfbanDHWEurDrDfvduB8G4e+7uZhW70S/pSFqvopgif3ZGAHI1lDtG93u50rhtOgQauA7DeAk20OK9MZR1yZJkGMbP8O4D2mGH27sJgCmC20NkSIu9lDROaXve3NNCwehLB1lpYpKJM8S4ZkNRPDHxVR/L9C2ALZ1RZJWXwjWRlKzr29iBCPmfXyRGM1JCILaTWV1nEMOoQK6J3G+YHMuXSS898nBGu8qvC35RjI9F65xjx6695X1e2AdyTEtJozppqjB8tohKuEbMzLbOFVHYSYTAuAbyberIuAdxMSYGbRSgwqq2eyH8lV3BJcQigk+9mZIFfTRrBSti8i8wgu8VtySJZj469Eo0KIQcfHAQdZ8dCKKRRXEu1erKdNoZa1NVRKsiqZa6gkeiGN19pbVYcyx7mD0PC9mhmL+J15IvKEZdQ1jYRIUlcrPt9pz7VxiFb8vXYhbh1rESFjsdaBOMXX7iZsS677nUydr/i5S2lvCZR+ZiVwbFxMJu+9Avh71o8pq2bGWEpKrrKxV/cA37TxG6hetIk3CxH5A8EL/FFC0HSsAO/OhI1LriLXGCJ0p3iTiFxkTchnxGlQmWYhVLuQx8yT9YNE8bjQFYdcxViKD4nIsekKzYdqPZmOnr6TaS96WcYK3JL5O/taupX4Cdq3zOJYfJpQzTxuEcVQgCWEsh7Q3nom/Y34+s3AIx3IVWqgbh7nelYStquy+iV7vLtMwdbilmA6d4nsX0LLs9akvRDo0UYc15UqUdUXEmLzyBnT8ca4jKga+bzMAoNrg7gIi9dsMjAqIt8E3mpyGrejU++u27yZI1dRD60y8nuIiCzIzl2pCVaGZC0DPkgIDKzQ3r3ahW/mBTAKYc0Myb+IyPmJwnBy1WkAQ5zOIvNy9PsqNZKATYD/k63qLiIPArsTgsxriRfqYsvOqcU2JPb6AcBh8es2ljfQKn+R1QnRy/YImeKmJqdx3JfR6vvXzPFeDQGPJV6wqPveARyoqpvnLEAOo+XdjR7efxeRsyMZS77zZiNYsYed9qneSJMTzhxE71UnG2d/303YMjzRxquSkHP3Zs2MjMZ79rfmtbow9h2daVRmUgAtZuFUQtDsQlqZRrjwzagAxjiQKqHH3rusaXfWaDkm9mI918+XmuiJJqE/2z/njMdvgdcTMqrOMRJ1uL1Xj5XLVfXPCEHxh1iNqLoRH4DrEnJCDtm5gkwGYSqn5km5PvOdbHzhjcBNmePvA3wLeKnJfyUeV0SuA/4W+DqhrMKuwGlZgqeq/z15vUL/hj9Ej+YooV/lmkH1XnXyZtnfq0RkDvAuQhmSvPhj17HTR65qwEXA/xaR3w+qF+DFqnqBttBMnpvJ/46pQTPzrKp6g6q+2O/NSclvxZ4vGDC5WaGqfzvOuAyN895xyXHn2Gs1e95aVe+29+rJb8a/d8kc69VWrDOdi21U9abkGE1Vbdj/q62+F6o62553V9WF9v6NqrpVJE6Z36rFHnUpuUr02C05591vMpCO5X3R49epIbhjnZy8SFW/l3M/qdu4KddR8f67WFW3cOFTrarqP6nqIx2UuQvg1BrIdDwviYbGsUEyvJOqjvS5vGbvx1WqenAPYySq+gX77pg9L1TVt2QIzxGqujb5rWjQL0yJm+mN36rqElXdNkN49rLvjNox4u9dEAPs7VFT1WvsvTh/16nqNj1c12tV9V77bqPP9VYzmb/jJyLTjvVk5QBVfSaHtDqmBin5f4lLXLvwbaaqJ9vN23SWP63kqqmqZ7vUTan8/qDP5bWZQx4a5vV5d9qLL2ds/oeqXps5zqj9/4PEExI9WedlfnuBqv55zjHj8U7NfH8TVf1ahjjdpKo72vuz7PnojHKO1/WIqh6UxIzlXdNfquqZqrpmAg9xP+mQaMAetK1e9171rideqqq/HufeckxeRuO9vnsRYyyKIoBvILQi2Y72ujF+I09+TzqbMfgVEZnjsVZTKrc7E1LWa5mx72e5SrGUkDn1B0Lj1CqwPfA3wKs7yGRMsDhSRE6JBttimg4gBM4/CJxm7bfaCC2wt/37OLCLiCxLvj+L0M7kvcBc4FwRWRR7janqPwDnAdvSKgaava7FwA2EQqirCYVWdwT+Gti5izHpxzlvAF82/RF7zzp60xUCHA98lvUrv7utm5xsxnjim4B/FZElRbFvUkAB3AX4ObA161c+dvQufHGeR4BjRORUJ1fTIrcXAvsOiNGdTJXq7HjE9PUxYG8RubzLcX498LuMUTpLRA4br5VTQr52JNTEeQOtgNhBIUqTnec4148CuwHLYeZS3ftUX7wVOJdWn8+8BbGjO4wRkmWOBk4pUgZ84ciLiNwLfMz+beAZF1OhGNcS0stPTbOkHFOKE2hlCvX7+HaqlJ73gPw2OdE7PQycrarvzFnpZ43S5gTPE5kV/36q+p4suUqLmhq52ho4M0OusveK9nBN2uc6JK3X1QQutHI7VdchG2znfgX8FaGperYTAm7zepLTSKjmFq28UKEIVqJUbwauMVbacDY/KcUYn9cAh4nIWV7faloV5v3mGZEcY93vJEvGeZD5Ox2bWCNoK+BiVX1fMp6a0Q1bEvqavjoj501gc+A8VX1bSszSLgSq+ipC+MG7Gb9WlUzymvp9ofY4EL3fvjU4NTpjpYj8C/iNXEIAABGGSURBVKHcy2giz06yJofFdq8XhtdUCiZwsf7MEuBie7nhgjZpcjUCfFJEvuXbgjOCk3M8HY7OBC3th7g5cImqnqOqO6vqn6nqlqq6raruS9gWfDvtfQUjSWsaSbsGOFFVX6GqW1mK/EusKe+NwFtobSf4VszEeiSdp/NFZDkesjEddm8OoVPCmkSeXS57X+xp0YhpEWOwKtZ6YjdC64t4s/uN3Ru5GgWOEJEznFzNmOwKcBZwCJ6kMRm5jYHvEKqurwFeloxfNDxZhZr2HYv1qhYSisC+1I4Ztw+rTq66mpPURiwEXgk85x7w6dEbtoW9J/BtQkJFp+QLx/qyOkpIGHidiNxZJHtXKfDNvYzQBLbq3oCeyVUDONbJ1YyvRJXQqWAU92L1sshLmyI3CF6m7YCXJ/9HwiodVq6xSXXdPr+tfT8G0lcyBsuN1vi6JB3fM0RkpQ/NtOoNrP/lwbawyDZQd0ysP2pFO7kie4VWAPOTlatjYnIVcYqInJzevI4Zw8PA12htfbmC7E5JSkKyYnxUTL8eouUN7PTdVMmm36/Qasfj3oDeSdbDwNe8+fuMka2LCC2nGq5DepbVzZxgdcnmCe79R5NBdAEbn1zFG/EcEfm8D81Gk98moXfdqmSOHN0TrfgcPVJ5HquJSFre991r1dscRJwkIiMuxzOqQ74FzElecpLVnbxuWjSnQqXAQjZK2Pt3IzUxc4+rnUuxEhdeZXmj4gngSzYndVeOjpLqlXsJ2ZkeZjBTg9/S21+xhVoMelfXIxNik6KdUKXgQvZUzk3vaL/JRglbItcDB4lIwxXiRl8cNIELCIHaQ3hWkKN8egXgqLTUhWNGdIcmtQqPAn5i+n3MR6fzsNlz4XrrVgo+YM8k//tNvv4YjRAKNd4O7C8iq5xcFUZRLqLl5q93MGAOR5HIVboI+LmIXOXDsnEWaEayVhN2JOaanh91WzguCtd8vOilD1aTX3HZFWErNXU+cICIPOXkqnD4CaE/1jC+Vegoj34ZAT7jQ1EIkvUEoezLEtcjE2LYCVZvWGOCVXXZaSNXYyZMi4APisj9Tq4KqSRXAF+0f5uuFB0F1ysx6/Ib1rLMsZFJlj3faoQ3LazrJGt9uAerhxseggdrUea1QVeCdROk1cDHReQmuwn9ZismbiIUHx02YuyK0VFknfs4cJIPR0EmpRWP/F3g/5nNHsuZN0fouesEqwesxvoLDbggZVeYAEeLyKWZm9BRMOVo2bCnExI2hn316Sjwwq0CfE5ElvqwFAMW9B6ba59ESGaaRdjGdb3fjlEnWL0TrEH3YGVbiVSAr4jI6WbEK+69Kq5ytOcHaG0VjvrIOAqmWxoEr/jVhIbYjmLpkYaq1kRkGfBZQvHXWbhHPMpwvP41TrB6MEyEYqNP5gzkIAlPys6HgAuBY4xcVb26csEnsOVdvBj4GSGV2LOBHEXSMU0zTp8TkboPSSFtYt0W03OBLxA8WGkJmEHVJakXb4UTrN6EaowQE8AAkysh7C3PAq4BPiEiY0auGq56Cq8YY12bFcCJhB6bUTEOolw7iqNfYsLMEDBHROb5sBTfJojI9whhBxC8jzrAuiS95mWZRa0TrHFW/vHcHh9g4YnkajZwG/AxEVnm5Kp0JCtmA/3GSFYss+ExFI6NSa7qhLjA64FzfFhKsViLGfUn2oJ7yHXJuioDq4t2YkX2YGWLjdYGSGDSWlezgQXAoSLyiJOrkk5oa8FwDnC5zWsMVHUvlmOmV/zx+VngSBFZ6UNTCpIV47FWAEcT6iAOcjyWGjf4E55FOClF8CwhDqtGa1tlEMhVWuvqcBG53baanFyVUzHGwoHPErKBHjXF6IUDHRtj8TpiOvUzInKnD0mpdEndFtpzgRMIjeUHNR4rXutDNg5OsHrEcjNGDIDgZLN6niPERvzM9pXdCJecZNnz7aYYO3kVHI7p1C8jBA/qOcC3wUu9lBBRl3wH+GYyv4OkS2KCBsD9kWAVKau+DB6s5cAjOQLUr8qvSdhTbgKniMi5iYF2A1z2STZDZvN6unkRPB7LMVP6pU7wnN4KnGAJM94FonyLtTQeaw5wldmN+gDpEkkI1lwRcQ9WLwJkfy4j1P3oZ1ae1rqKOFtEjjej7LWu+ksxxvvuOFOMaeFAn2fHdC7eKqZTjxCRx3zhVmpdEuOx1gKHAw8Qdj4GJewgbVA+L13AOsHqbrVfsW2VBfZSsw/ZeUquogK8DPhEZgwc/aMYmxZD8QwhUPVevHCgY/r0S3yOhYo/FVtsOUqvS+pGsuYDRwFLCV7xRp/rkmgvh4HfA08U8SSLHoMVyVQcvFqfCYxmhKUK3AD8WxIU7eSqf1efFRG5h1A4domtPvtdMTpmXr/EjOQh4BgR+W4RV/uODSJZVRG5AviqLdSq9H/Qe7SN1xFakRXOG1spiYJYAjxGf2USpsovkqu7gP1EZKWTq4FQjE2Lf7mCsF04OiCK0TGzi9RRgof0m8D/jeTKtwb7i2zYnJ4EfC+x79qHuiQbyH+tiKwp4oKhLARrMaHeR3xN+0RAUnI1H9hXRJ50cjWQZOtM4JRELlLF6IbQ0at+yZZ7uRL4goisdXLVl/ojnc9DgJ9n5KFfSFa8hobJ9W8IGYSFRKUkQvMEYZ8Vyh+HlQbmxZirx4EPiMgDTq4GTzEmmYXHAGcn8hFlxb1Zjl71S8wYHDIj9BkRWezkqu91ScVazH2AsCMifUayJCFYAN8VkUdzSKYTrK60Raty+dycFVpZlZ8m47+YEHN1q5MrJ1nAocD3M4oRJ1mOHvVLgxBScS+hC8QfPRt5IHRJ3CpcAuxFSBDrF5KVeq9mAXcDvzCeUEguUynR4N5HKNcwTDm9WFnhFkK69EdF5HonV06yEu/CwcCPWd975STL0Y1+UULYwQLTL3Ntoer6ZbB0yQJgb0IbmSzJKrt8A5xhCwcpqmyXgWDFgbsb+GXCYCmRsckjVyuBfxeRy135OTKKcS3BxX91DrFykuWYyPhUCN0vPiwit3j/0oHVJRURucN0yZOs7xUvo3zHbe8fA1cU/cQrJRGUWEztWnu5TH2X8sjVauBzInKBKz9HB5L1HLAPrWBVJ1mObvRLJFcfEpEbTXe6fhlMXRJL/fwa2JfQ17ZsJCsbszxECKv5DxFZYvazsNdSli3CqCCuAy6hFcBZCjnPIVdHicjZTq4cE5CsFcAewE8zstSPqdeO3g1P3uLtQeAgCzsYEpG6D5WTLBG5kRCTtZD1Qw+0wDKeBrXH1kBHish/2XUV2n5WSiIk0Yu1HPgOoQnyMMUuyqiZh9h5HyUiX3dy5eiGZJnMvJ9Q3R/6LyvIMTndEmWhmRjMB4ADReQGVR22bDKH65LUk/VPwB8yC7YiloPpRK6OEpFvFznuqnQEy4SkbkLyU+C0HAVTNOFIBbgCPAt82smVoxeSZX+uBfakVUCw7AGrjg03PGlvQYA7gf1F5GYjV6M+VI4MyRIRmQu8A7g5Y0OztmtjOybS9nGRXH2RVq3AUqBSUnk5jRDgFs+/WSAWnlfnainwMRH5TydXjkmQLAUqIrI/cDrtnlv3YA0euSJDrn4JvF9Ebndy5RhPlxjJWgi8zRZsa2hVfGcj65Xs4iFylDXmnDgeytWFoHSrX9sqrKvqzsB5wBtpz57RjXhtedk8jwEfEZFrvRSDYwNlf0hExlT1i8ARwPNp3yJyj1b/k6tUt0CIST1URJZG+fChckygR9YRFFX9pOmS7e3t2BBcZsiW5hG7WGYEQpX2OSJymarWgEaZarlJSQVkWERGVXVX4AzgLfZW3SZmpoQjT0jS/eK5wAdF5C4nV44pJlkHA8cCL3GS1ffEihxypab7Pp00+3XPuKNrkkXwijdUdRfgVLOjm86QLU31VNwKJLGdzxKSe+aIyMNl9cxKiQUkkqztCfuy708YODPEwrPKL9boALjKyNUiJ1eOaSJZfwd8FXitvdWkvcGro/zkKjVCkVw9A3xZRE5V1Sqgrl8ck9QltZhpqqqfAv4NeE0id/XElm6oPc0m5miis6JHdiVwK3CWiPwo1XdlHF8puXBEQ1MDPgN8CHhpQrR0CoUjj1iR/FZk+0uA84Gjk+wNV36OaVGMtsA4g5AdFBVijY27Ve6YOnKV3RK8FzhORH7k8VaOKdIl60i6qm4JfAr4R2BX0yVx8dbI2NPUuSAT2MhsVn0t853HCMXELwEutHMZBupltp/SJ8KBuTr/CjgMeDvwF8nHxhKhEHrbTplIUIaS138NfFVErrBzc3LlmFbZN7mvELy4HwZeYPJew7cM+4FcNRIjdyXweRGZp6qzRGTEh8ox1Q4L+3sb4ADg74FXA9tmPh4JVycekdrNKvkJdQuB+YSm1D8VkRsSmy79UMNN+kg41q3mVPXNwPuANxDcnZtkPj6WMTwygbLTRFCqmfdHgN8BPwO+ISKryhiM5yit3K8j8aq6H3AksIspwBgs6t6s8pGrpj1qhHiUM4EvicgaD2Z3TKc+AaoJ0aoA7wL+xojWjoSA+M17PPQq4CngcUKngfuBO4BbrGtFXxGrviNYeROkqjsAbwX+Gnh5Ihy1DfiZlYmQzCcEsv9MRJ6y36x59WTHDMu9mNw3VfWVwBdoxSSOErys7s0qPrGKSL1WvyN4xS+OOs6D2R0zRbQIW3SavLYbsBOwA/DnwBaEbOZhWsW/64TafSuBZYQWPQuBR4AF0VamzhFzSPSdXEufCkeVkCExlry2FbCzkaztgK2A/2ZMfFNgtim1ihmlOqGtzSpgOaGWVRSUR01QlibHHzIh8S1Bx8aS+xiXVQUOBz5GiEmMhN9js4pLrqLXqm6Gqg6cS+i5Nt/mtOleccdGWLxFx8VYh888D5hljwZhh2iN9Q/O1VNmZxv9LtPS58IRWbjmeZVUdVY3BEtEnh1HUMSJlaNIi4u4ElTVNxrR2sveHiF4szZ2vThHO7FSM0rD9vqtwJki8p2UOPtwOQpAtmKQe9Qh9U4EKbG/cfGgDFjGqwyQcKSCIfSYnZCw7igovpp0FFrWLQB+NnAQwZu1i8nuqBnzma4X52gRq4iY7TwErADOAc4RkT/GufTFm6PgpCvLJxTaWn0NLMSFY70xyPY1dGFxlFW+0xo3ryJkBX2UVqZhNOxOtGaeWMXtwFn2/2XAeSJyVbKg80QZh8MJlsPhKCjJWufNsv/fCewHHGgfiXWUnGhNL7FKyy40EmJ1M/CfwE9EZLnNkQeyOxxOsBwOR0mIVhqb9TzgHUa09rSPRI9WjCv0rMMNJ1VRx8aaQUorzuoOI1bXisijcY7w0AOHwwmWw+EoPdHaAngzsAdh+zAWAxyxv6vTSLa0x9cn+sxE59YpFGA6rinrrarRqp93M6FJ/a9E5CGbhwqAx1o5HE6wHA5HuUnWurpZ9v8LCG0x3g18gFYXhBgQH3uFpV0QUlKR7S8Wn/NeyxKk+P3s8bspAtwN2dFxHtnfyAbsSoe/NYeoxUcsEFqlVctqDfBD4HLgDhFZmDcPDofDCZbD4ehPojVEKCC4G6EX2e6EenEpRunce0xolTqZLGKJlLVGVEYJ25cRTXsvRY0Q0xSJT4VQdqVCqwDi0AacV+qN6tRzLXv8BnAdob3NLcDDIrLCiZXD4QTL4XAMKNGy1zYHtiRUbX4joRvCLqzfkyyL5YSCvEvs8Qyh/MAzhMrO8fGcPdYagYqenxir1Mw8Z8lOikoOeapm3otbnpWEgG1GqIG3GaEa9eb2vIU9XmRjsBWw9QTX/SxwH3AnYRvwHmCJiCzKjLNnJDscTrAcDscgkq0sAbCSAS8Ankfo67mlPWbbR0aAJ4GnjSyN0vI81eOj6JlxFgtVSx5DyWPYiNg2wAvtKw275kVGFlcDK0VkzURj6nA4nGA5HA4nW9N2/I2q/Kb52pxUORxOsBwOh6NrQjROa4y+3AJLiWDetfnWn8PhcDgcDofD4XA4HA6Hw+FwOBwOh8PhcDgcA4//D7m0DMTMwWvHAAAAAElFTkSuQmCC;" vertex="1" parent="1">
          <mxGeometry x="140" y="270" width="141.11" height="123" as="geometry" />
        </mxCell>
      </root>
    </mxGraphModel>
  </diagram>
</mxfile>
